<svg width="89" height="36" viewBox="0 0 89 36" fill="none" xmlns="http://www.w3.org/2000/svg">
<path fill-rule="evenodd" clip-rule="evenodd" d="M35.4596 0H30.657V12.4992L35.4596 6.44864V0ZM59.8731 21.2556C59.8731 13.2148 53.3095 6.76611 45.3051 6.76611C40.4224 6.76611 36.1 9.1545 33.4585 12.8167L21.1317 28.3412C19.2907 30.0927 16.9694 31.048 14.408 31.048C13.6075 31.048 12.8871 30.9684 12.1667 30.7296C10.886 30.4111 9.68536 29.8538 8.64479 29.0577L8.56474 28.9781C8.4847 28.8985 8.40466 28.8388 8.32462 28.7791C8.24457 28.7193 8.16452 28.6596 8.08447 28.58L7.92439 28.4208C7.7643 28.2616 7.6042 28.1023 7.44412 28.0227L7.28403 27.8635C7.20399 27.7839 7.14397 27.7043 7.08394 27.6247L7.0838 27.6245C7.0238 27.545 6.96381 27.4654 6.8838 27.3858C6.85324 27.3554 6.83435 27.325 6.81821 27.299C6.7921 27.257 6.77319 27.2266 6.72372 27.2266C6.48361 26.9878 6.32353 26.6694 6.16345 26.351L6.16341 26.3509C6.08337 26.2713 6.00333 26.112 6.00333 26.0324C5.92328 25.9528 5.84323 25.7936 5.84323 25.6344C5.80325 25.5548 5.76328 25.4952 5.72331 25.4355L5.72318 25.4353C5.68315 25.3756 5.64313 25.3159 5.6031 25.2363C5.55815 25.1916 5.53844 25.1218 5.51562 25.041C5.49782 24.9778 5.4781 24.908 5.44301 24.8382C5.40298 24.7586 5.38298 24.679 5.36298 24.5994L5.36293 24.5992C5.34293 24.5196 5.32292 24.4401 5.28293 24.3605C5.28293 24.3276 5.2692 24.2809 5.2531 24.2263C5.23035 24.149 5.20288 24.0558 5.20288 23.9625C5.16286 23.8829 5.14285 23.8033 5.12285 23.7236C5.10283 23.644 5.08281 23.5644 5.04279 23.4848C5.04279 23.445 5.02278 23.3853 5.00278 23.3256C4.98276 23.2659 4.96275 23.2062 4.96275 23.1664C4.96275 23.0867 4.94275 22.9872 4.92274 22.8877C4.90273 22.7882 4.88271 22.6887 4.88271 22.6091V22.2906C4.88271 22.12 4.85973 21.9493 4.83838 21.7909C4.8199 21.6537 4.80266 21.5257 4.80266 21.4149C4.80266 16.1604 9.12505 11.8613 14.408 11.8613C14.8082 11.8613 15.2084 11.8613 15.6887 11.9409C16.4891 12.0206 17.2095 12.2594 17.9299 12.4982C18.01 12.538 18.11 12.5779 18.2101 12.6177L18.2103 12.6178C18.3103 12.6575 18.4103 12.6973 18.4902 12.7371C18.5331 12.7584 18.5703 12.7797 18.6048 12.7995C18.699 12.8536 18.7733 12.8963 18.8905 12.8963C18.9705 12.8963 19.0505 12.9759 19.1306 13.0555C19.2106 13.0953 19.2706 13.1351 19.3306 13.1749L19.3307 13.175C19.3907 13.2148 19.4508 13.2546 19.5308 13.2944C20.1712 13.6924 20.7315 14.0905 21.2117 14.6478L24.5736 11.304C23.2128 9.95063 21.612 8.91566 19.931 8.19914C18.2501 7.48263 16.329 7.08456 14.408 7.08456C6.48358 7.08456 0 13.5332 0 21.4149C0 29.2965 6.48358 35.7452 14.408 35.7452C18.2501 35.7452 21.8521 34.2325 24.5736 31.5257L37.2206 15.5235L37.4607 15.2051C39.2217 12.8963 42.0233 11.4633 45.145 11.4633C50.5079 11.4633 54.9104 15.842 54.9104 21.176C54.9104 26.5101 50.5079 30.8888 45.145 30.8888C39.8621 30.8888 35.6197 26.7489 35.3796 21.5741L31.5375 26.3509C33.6186 31.7645 38.9816 35.6656 45.145 35.6656C53.3095 35.8248 59.8731 29.2965 59.8731 21.2556ZM88.9292 11.9416H70.9193C68.9182 11.9416 67.3173 13.5338 67.3173 15.5241C67.3173 17.5145 68.9182 19.1067 70.9193 19.1067H73.961H76.9226H80.5246C85.1672 19.1067 88.9292 22.8485 88.9292 27.4661C88.9292 32.0836 85.1672 35.8254 80.5246 35.8254H53.9499C56.031 34.6312 57.792 32.9593 59.1528 31.0486H80.5246C82.5257 31.0486 84.1266 29.4564 84.1266 27.4661C84.1266 25.4757 82.5257 23.8835 80.5246 23.8835H76.9226H73.961H70.9193C66.2767 23.8835 62.5146 20.1417 62.5146 15.5241C62.5146 10.9066 66.2767 7.16479 70.9193 7.16479H88.9292V11.9416Z" fill="white"/>
<path fill-rule="evenodd" clip-rule="evenodd" d="M40.1453 20.6365C40.1453 17.9533 42.3177 15.7581 44.9729 15.7581C47.628 15.7581 49.8004 17.9533 49.8004 20.6365C49.8004 23.3196 44.9729 27.9541 44.9729 27.9541C44.9729 27.9541 40.1453 23.3196 40.1453 20.6365ZM43.7659 20.223C43.7659 20.8736 44.3293 21.4429 44.9731 21.4429C45.6169 21.4429 46.1802 20.8736 46.1802 20.223C46.1802 19.5724 45.6169 19.0032 44.9731 19.0032C44.3293 19.0032 43.7659 19.5724 43.7659 20.223Z" fill="#DE0085"/>
</svg>
