<svg width="150" height="158" viewBox="0 0 150 158" fill="none" xmlns="http://www.w3.org/2000/svg">
<path d="M80.9171 153.257V129.243H69.9541V123.5H54.2928V111.493H39.6755V100.008L22.97 94.2659V129.243H16.7055V115.67H0V153.257H80.9171Z" fill="url(#paint0_linear)"/>
<path d="M97.2048 153.674H49.3854C47.1928 153.674 45.3135 151.899 45.3135 149.602V66.0751C45.3135 63.8825 47.0884 62.0032 49.3854 62.0032H97.2048C99.3974 62.0032 101.277 63.7781 101.277 66.0751V149.707C101.277 151.899 99.5018 153.674 97.2048 153.674Z" fill="url(#paint1_linear)"/>
<path d="M95.012 140.31H51.6822C50.8469 140.31 50.2205 139.684 50.2205 138.849V71.8179C50.2205 70.9827 50.8469 70.3562 51.6822 70.3562H95.012C95.8473 70.3562 96.4737 70.9827 96.4737 71.8179V138.849C96.3693 139.684 95.7429 140.31 95.012 140.31Z" fill="#E6E9F1"/>
<path d="M73.2952 149.185C74.6215 149.185 75.6966 148.11 75.6966 146.783C75.6966 145.457 74.6215 144.382 73.2952 144.382C71.9689 144.382 70.8938 145.457 70.8938 146.783C70.8938 148.11 71.9689 149.185 73.2952 149.185Z" fill="white"/>
<path d="M92.6107 65.2402C92.6107 54.7993 84.1536 46.4465 73.8171 46.4465C63.3762 46.4465 55.0235 54.9037 55.0235 65.2402C55.0235 65.2402 52.4132 85.1823 73.8171 101.053C95.3254 85.1823 92.6107 65.2402 92.6107 65.2402Z" fill="#DE0085"/>
<path d="M83.48 74.9406C88.7806 69.64 88.7476 61.0129 83.4062 55.6715C78.0648 50.3301 69.4378 50.2971 64.1371 55.5977C58.8365 60.8983 58.8696 69.5254 64.211 74.8667C69.5524 80.2081 78.1794 80.2412 83.48 74.9406Z" fill="white"/>
<path d="M74.4434 72.4441C69.9538 72.7574 66.2995 69.1031 66.7171 64.7179C67.0304 61.2724 69.8494 58.3489 73.2949 58.1401C77.7845 57.8269 81.4388 61.4812 81.0212 65.8664C80.708 69.3119 77.8889 72.1309 74.4434 72.4441Z" fill="#DE0085"/>
<path d="M64.4916 154.888H9.66564C8.92474 154.888 8.33203 154.296 8.33203 153.555V153.481C8.33203 152.74 8.92474 152.147 9.66564 152.147H64.4916C65.2325 152.147 65.8252 152.74 65.8252 153.481V153.555C65.8252 154.296 65.2325 154.888 64.4916 154.888Z" fill="#626B84"/>
<path d="M64.4179 146.59H10.481V153.407H64.4179V146.59Z" fill="#00237A"/>
<path d="M18.7059 157.555C20.9973 157.555 22.8549 155.697 22.8549 153.406C22.8549 151.114 20.9973 149.257 18.7059 149.257C16.4145 149.257 14.5569 151.114 14.5569 153.406C14.5569 155.697 16.4145 157.555 18.7059 157.555Z" fill="#404A69"/>
<path d="M18.7053 157.999C21.2423 157.999 23.2989 155.943 23.2989 153.406C23.2989 150.869 21.2423 148.812 18.7053 148.812C16.1684 148.812 14.1118 150.869 14.1118 153.406C14.1118 155.943 16.1684 157.999 18.7053 157.999Z" fill="#404A69"/>
<path d="M21.373 153.406C21.373 154.888 20.1876 156.073 18.7058 156.073C17.224 156.073 16.0386 154.888 16.0386 153.406C16.0386 151.924 17.224 150.739 18.7058 150.739C20.1876 150.739 21.373 151.924 21.373 153.406Z" fill="#323253"/>
<path d="M20.9283 153.406C20.9283 154.665 19.891 155.628 18.7056 155.628C17.4461 155.628 16.4829 154.591 16.4829 153.406C16.4829 152.146 17.5202 151.183 18.7056 151.183C19.9651 151.183 20.9283 152.146 20.9283 153.406Z" fill="#F1F2F2"/>
<path d="M66.9368 151.776V144.664L65.8255 143.923L65.3809 142.293H64.0473L57.157 134.069C56.7125 133.476 55.9716 133.18 55.2307 133.18C48.3404 133.106 33.078 133.18 29.3736 133.18C28.7809 133.18 28.2622 133.402 27.8177 133.773C25.2987 135.847 18.927 141.922 18.927 141.922C15.4448 143.108 10.7772 144.516 8.62861 145.701C7.51727 146.294 6.77638 147.257 6.48002 148.442L5.66504 151.999L5.88731 153.48H12.9999C12.9999 153.406 12.9999 153.406 12.9999 153.332C12.9999 150.22 15.5189 147.701 18.6306 147.701C21.7424 147.701 24.2614 150.22 24.2614 153.332C24.2614 153.406 24.2614 153.406 24.2614 153.48H50.2667C50.2667 153.406 50.2667 153.406 50.2667 153.332C50.2667 150.22 52.7858 147.701 55.8975 147.701C59.0093 147.701 61.5283 150.22 61.5283 153.332C61.5283 153.406 61.5283 153.406 61.5283 153.48H67.4554L67.3813 151.776H66.9368Z" fill="#000F35"/>
<path d="M66.9368 144.664L65.8255 143.923C65.6773 143.405 65.5291 142.812 65.3809 142.293H17.8898C14.5558 143.405 10.629 144.664 8.70272 145.701C8.03591 146.072 7.4432 146.59 7.07275 147.257H67.0109V144.664H66.9368Z" fill="#021E65"/>
<path d="M66.9364 151.776V146.516H7.591C7.07237 147.035 6.70193 147.702 6.55375 148.442L5.73877 151.999L5.96104 153.48H13.0736C13.0736 153.406 13.0736 153.406 13.0736 153.332C13.0736 150.221 15.5926 147.702 18.7044 147.702C21.8161 147.702 24.3352 150.221 24.3352 153.332C24.3352 153.406 24.3352 153.406 24.3352 153.48H50.3405C50.3405 153.406 50.3405 153.406 50.3405 153.332C50.3405 150.221 52.8595 147.702 55.9712 147.702C59.083 147.702 61.602 150.221 61.602 153.332C61.602 153.406 61.602 153.406 61.602 153.48H67.5291L67.455 151.776H66.9364Z" fill="#000F35"/>
<path d="M40.7834 134.143H29.3737L22.9279 139.996C22.5575 140.367 22.3352 140.811 22.3352 141.33C22.3352 141.774 22.7056 142.145 23.1502 142.145H40.2648C40.4871 142.145 40.6352 142.071 40.7834 141.922V134.143Z" fill="#535C78"/>
<path d="M58.1943 139.996L53.3044 134.143H43.0801V141.7C43.2283 141.997 43.4505 142.145 43.821 142.145H57.972C58.4165 142.145 58.787 141.774 58.787 141.33C58.787 140.811 58.5647 140.292 58.1943 139.996Z" fill="#535C78"/>
<path d="M22.928 143.182H22.7057C22.0389 143.182 21.5203 142.664 21.5203 141.997V141.108C21.5203 140.441 22.0389 139.922 22.7057 139.922H22.928V143.182Z" fill="#2F69FE"/>
<path d="M41.7466 153.555H42.2652V133.106C42.117 133.106 41.9688 133.106 41.7466 133.106V153.555Z" fill="#2F69FE"/>
<path d="M10.7031 154.295H6.03544C5.5909 154.295 5.22046 153.925 5.22046 153.48V151.776C5.22046 151.332 5.5909 150.961 6.03544 150.961H10.7031C11.1476 150.961 11.518 151.332 11.518 151.776V153.48C11.518 153.925 11.1476 154.295 10.7031 154.295Z" fill="#2F69FE"/>
<path d="M67.8258 154.295H63.2322C62.8618 154.295 62.5654 153.999 62.5654 153.629V152.591C62.5654 152.221 62.8618 151.925 63.2322 151.925H67.8258C68.1962 151.925 68.4926 152.221 68.4926 152.591V153.629C68.4926 153.999 68.1962 154.295 67.8258 154.295Z" fill="#2F69FE"/>
<path d="M16.4819 153.703C16.6301 154.814 17.5192 155.703 18.7046 155.703C19.8159 155.703 20.7791 154.814 20.9273 153.703H16.4819Z" fill="#D1DBE6"/>
<path d="M18.7044 158C21.2413 158 23.2979 155.943 23.2979 153.407C23.2979 150.87 21.2413 148.813 18.7044 148.813C16.1674 148.813 14.1108 150.87 14.1108 153.407C14.1108 155.943 16.1674 158 18.7044 158Z" fill="#404A69"/>
<path d="M21.372 153.407C21.372 154.888 20.1866 156.074 18.7048 156.074C17.223 156.074 16.0376 154.888 16.0376 153.407C16.0376 151.925 17.223 150.74 18.7048 150.74C20.1866 150.74 21.372 151.925 21.372 153.407Z" fill="#323253"/>
<path d="M20.9273 153.407C20.9273 154.666 19.89 155.629 18.7046 155.629C17.4451 155.629 16.4819 154.592 16.4819 153.407C16.4819 152.147 17.5192 151.184 18.7046 151.184C19.9641 151.184 20.9273 152.147 20.9273 153.407Z" fill="#F1F2F2"/>
<path d="M16.4819 153.703C16.6301 154.814 17.5192 155.703 18.7046 155.703C19.8159 155.703 20.7791 154.814 20.9273 153.703H16.4819Z" fill="#D1DBE6"/>
<path d="M56.1199 158C58.6568 158 60.7134 155.943 60.7134 153.407C60.7134 150.87 58.6568 148.813 56.1199 148.813C53.583 148.813 51.5264 150.87 51.5264 153.407C51.5264 155.943 53.583 158 56.1199 158Z" fill="#404A69"/>
<path d="M58.8608 153.407C58.8608 154.888 57.6754 156.074 56.1936 156.074C54.7118 156.074 53.5264 154.888 53.5264 153.407C53.5264 151.925 54.7118 150.74 56.1936 150.74C57.6754 150.74 58.8608 151.925 58.8608 153.407Z" fill="#323253"/>
<path d="M58.4165 153.407C58.4165 154.666 57.3793 155.629 56.1939 155.629C55.0084 155.629 53.9712 154.592 53.9712 153.407C53.9712 152.147 55.0084 151.184 56.1939 151.184C57.3793 151.184 58.4165 152.147 58.4165 153.407Z" fill="#F1F2F2"/>
<path d="M53.9712 153.703C54.1194 154.814 55.0084 155.703 56.1939 155.703C57.3052 155.703 58.2684 154.814 58.4165 153.703H53.9712Z" fill="#D1DBE6"/>
<path d="M66.9368 150.072H65.1586C64.7141 150.072 64.4177 149.776 64.4177 149.332V146.516H66.9368V150.072Z" fill="#D32F2F"/>
<path d="M66.9368 150.073H65.1586C64.7141 150.073 64.4177 149.776 64.4177 149.332V148.961H66.9368V150.073Z" fill="#404A69"/>
<path d="M10.5549 149.628H7.29502C7.14684 149.628 7.07275 149.48 7.07275 149.406V148.517C7.07275 148.369 7.22093 148.294 7.29502 148.294H10.5549C10.7031 148.294 10.7772 148.443 10.7772 148.517V149.406C10.7772 149.48 10.629 149.628 10.5549 149.628Z" fill="white"/>
<path d="M10.6289 149.628H9.66576C9.59167 149.628 9.51758 149.554 9.51758 149.48V148.368C9.51758 148.294 9.59167 148.22 9.66576 148.22H10.6289C10.703 148.22 10.7771 148.294 10.7771 148.368V149.48C10.7771 149.554 10.703 149.628 10.6289 149.628Z" fill="#D32F2F"/>
<path d="M40.4128 146.516H37.4492V147.035H40.4128V146.516Z" fill="#535C78"/>
<path d="M58.861 146.516H55.8975V147.035H58.861V146.516Z" fill="#535C78"/>
<g filter="url(#filter0_d)">
<rect x="67.866" y="105.513" width="77.2628" height="18.7936" rx="4" fill="white"/>
<rect x="68.366" y="106.013" width="76.2628" height="17.7936" rx="3.5" stroke="white"/>
</g>
<path d="M81.1258 117.938L78.62 119.296C78.3068 119.4 77.9935 119.191 77.9935 118.878L78.5156 116.059C78.5156 115.954 78.5156 115.746 78.4112 115.746L76.323 113.762C76.1142 113.553 76.2186 113.135 76.5318 113.031L79.3509 112.613C79.4553 112.613 79.5597 112.509 79.6641 112.405L80.917 109.899C81.0214 109.586 81.5435 109.586 81.6479 109.899L82.9008 112.405C83.0052 112.509 83.1096 112.613 83.214 112.613L86.033 113.031C86.3463 113.031 86.4507 113.449 86.2419 113.762L84.1537 115.746C84.0493 115.85 84.0493 115.954 84.0493 116.059L84.5713 118.878C84.5713 119.191 84.2581 119.4 83.9449 119.296L81.439 117.938C81.3346 117.938 81.2302 117.938 81.1258 117.938Z" fill="#FEC800"/>
<path d="M94.0729 117.938L91.5671 119.296C91.2539 119.504 90.9406 119.191 90.9406 118.878L91.4627 116.059C91.4627 115.954 91.4627 115.746 91.3583 115.746L89.3745 113.762C89.1657 113.553 89.2701 113.135 89.5833 113.031L92.4024 112.613C92.5068 112.613 92.6112 112.509 92.7156 112.405L93.9685 109.899C94.0729 109.586 94.595 109.586 94.6994 109.899L95.9523 112.405C96.0567 112.509 96.1611 112.613 96.2655 112.613L99.0846 113.031C99.3978 113.031 99.5022 113.449 99.2934 113.762L97.3096 115.746C97.1008 115.85 97.1008 115.954 97.1008 116.059L97.6228 118.878C97.7272 119.191 97.3096 119.504 96.9964 119.296L94.4906 117.938C94.3861 117.938 94.1773 117.938 94.0729 117.938Z" fill="#FEC800"/>
<path d="M107.124 117.938L104.618 119.296C104.305 119.504 103.992 119.191 103.992 118.878L104.514 116.059C104.514 115.954 104.514 115.746 104.409 115.746L102.426 113.762C102.217 113.553 102.321 113.135 102.634 113.031L105.453 112.613C105.558 112.613 105.662 112.509 105.767 112.405L107.02 109.899C107.124 109.586 107.646 109.586 107.75 109.899L109.003 112.405C109.108 112.509 109.212 112.613 109.317 112.613L112.136 113.031C112.449 113.031 112.553 113.449 112.344 113.762L110.361 115.746C110.256 115.85 110.256 115.954 110.256 116.059L110.778 118.878C110.883 119.191 110.465 119.504 110.152 119.296L107.542 117.938C107.437 117.938 107.228 117.938 107.124 117.938Z" fill="#FEC800"/>
<path d="M120.175 117.938L117.669 119.296C117.356 119.504 117.043 119.191 117.043 118.878L117.565 116.059C117.565 115.954 117.565 115.746 117.46 115.746L115.477 113.762C115.268 113.553 115.372 113.135 115.685 113.031L118.504 112.613C118.609 112.613 118.713 112.509 118.818 112.405L120.071 109.899C120.175 109.586 120.697 109.586 120.801 109.899L122.054 112.405C122.159 112.509 122.263 112.613 122.368 112.613L125.187 113.031C125.5 113.031 125.604 113.449 125.395 113.762L123.412 115.746C123.203 115.85 123.098 115.954 123.098 116.059L123.62 118.878C123.725 119.191 123.307 119.504 122.994 119.296L120.488 117.938C120.384 117.938 120.279 117.938 120.175 117.938Z" fill="#FEC800"/>
<path d="M133.226 117.938L130.72 119.296C130.407 119.504 130.094 119.191 130.094 118.878L130.616 116.059C130.616 115.954 130.616 115.746 130.511 115.746L128.423 113.762C128.214 113.553 128.319 113.135 128.632 113.031L131.451 112.613C131.555 112.613 131.66 112.509 131.764 112.405L133.017 109.899C133.122 109.586 133.644 109.586 133.748 109.899L135.001 112.405C135.105 112.509 135.21 112.613 135.314 112.613L138.133 113.031C138.446 113.031 138.551 113.449 138.342 113.762L136.358 115.746C136.254 115.85 136.254 115.954 136.254 116.059L136.776 118.878C136.88 119.191 136.463 119.504 136.149 119.296L133.644 117.938C133.435 117.938 133.33 117.938 133.226 117.938Z" fill="#FEC800"/>
<path d="M45.0752 21V5.35938H49.6943C51.0765 5.35938 52.3011 5.66732 53.3682 6.2832C54.4424 6.89909 55.2731 7.77279 55.8604 8.9043C56.4476 10.0358 56.7412 11.332 56.7412 12.793V13.5771C56.7412 15.0596 56.444 16.363 55.8496 17.4873C55.2624 18.6117 54.4209 19.4782 53.3252 20.0869C52.2367 20.6956 50.987 21 49.5762 21H45.0752ZM47.793 7.55078V18.8301H49.5654C50.9906 18.8301 52.0827 18.3861 52.8418 17.498C53.6081 16.6029 53.9984 15.321 54.0127 13.6523V12.7822C54.0127 11.085 53.6439 9.78874 52.9062 8.89355C52.1686 7.99837 51.098 7.55078 49.6943 7.55078H47.793ZM65.2812 11.7617C64.9375 11.7044 64.583 11.6758 64.2178 11.6758C63.0218 11.6758 62.2161 12.1341 61.8008 13.0508V21H59.1904V9.37695H61.6826L61.7471 10.6768C62.3773 9.66699 63.251 9.16211 64.3682 9.16211C64.7406 9.16211 65.0485 9.21224 65.292 9.3125L65.2812 11.7617ZM69.707 21H67.0967V9.37695H69.707V21ZM66.9355 6.3584C66.9355 5.95736 67.0609 5.62435 67.3115 5.35938C67.5693 5.0944 67.9346 4.96191 68.4072 4.96191C68.8799 4.96191 69.2451 5.0944 69.5029 5.35938C69.7607 5.62435 69.8896 5.95736 69.8896 6.3584C69.8896 6.75228 69.7607 7.08171 69.5029 7.34668C69.2451 7.60449 68.8799 7.7334 68.4072 7.7334C67.9346 7.7334 67.5693 7.60449 67.3115 7.34668C67.0609 7.08171 66.9355 6.75228 66.9355 6.3584ZM76.6572 17.6914L79.1172 9.37695H81.8135L77.7852 21H75.5186L71.458 9.37695H74.165L76.6572 17.6914ZM88.4199 21.2148C86.7656 21.2148 85.4229 20.6956 84.3916 19.6572C83.3675 18.6117 82.8555 17.2223 82.8555 15.4893V15.167C82.8555 14.0068 83.0775 12.972 83.5215 12.0625C83.9727 11.1458 84.6029 10.4333 85.4121 9.9248C86.2214 9.41634 87.1237 9.16211 88.1191 9.16211C89.7018 9.16211 90.9229 9.66699 91.7822 10.6768C92.6488 11.6865 93.082 13.1152 93.082 14.9629V16.0156H85.4873C85.5661 16.9753 85.8848 17.7344 86.4434 18.293C87.0091 18.8516 87.7181 19.1309 88.5703 19.1309C89.7663 19.1309 90.7402 18.6475 91.4922 17.6807L92.8994 19.0234C92.4339 19.7181 91.8109 20.2588 91.0303 20.6455C90.2568 21.0251 89.3867 21.2148 88.4199 21.2148ZM88.1084 11.2568C87.3923 11.2568 86.8122 11.5075 86.3682 12.0088C85.9313 12.5101 85.652 13.2083 85.5303 14.1035H90.5039V13.9102C90.4466 13.0365 90.2139 12.3776 89.8057 11.9336C89.3975 11.4824 88.8317 11.2568 88.1084 11.2568ZM101.203 11.7617C100.859 11.7044 100.505 11.6758 100.14 11.6758C98.9437 11.6758 98.138 12.1341 97.7227 13.0508V21H95.1123V9.37695H97.6045L97.6689 10.6768C98.2992 9.66699 99.1729 9.16211 100.29 9.16211C100.662 9.16211 100.97 9.21224 101.214 9.3125L101.203 11.7617Z" fill="#FFA825"/>
<defs>
<filter id="filter0_d" x="63.866" y="104.513" width="85.2628" height="26.7936" filterUnits="userSpaceOnUse" color-interpolation-filters="sRGB">
<feFlood flood-opacity="0" result="BackgroundImageFix"/>
<feColorMatrix in="SourceAlpha" type="matrix" values="0 0 0 0 0 0 0 0 0 0 0 0 0 0 0 0 0 0 127 0"/>
<feOffset dy="3"/>
<feGaussianBlur stdDeviation="2"/>
<feColorMatrix type="matrix" values="0 0 0 0 0 0 0 0 0 0 0 0 0 0 0 0 0 0 0.04 0"/>
<feBlend mode="normal" in2="BackgroundImageFix" result="effect1_dropShadow"/>
<feBlend mode="normal" in="SourceGraphic" in2="effect1_dropShadow" result="shape"/>
</filter>
<linearGradient id="paint0_linear" x1="40.4899" y1="85.4261" x2="40.4899" y2="156.424" gradientUnits="userSpaceOnUse">
<stop stop-color="#F8F8F8" stop-opacity="0"/>
<stop offset="1" stop-color="#D0D0D0"/>
</linearGradient>
<linearGradient id="paint1_linear" x1="49.6897" y1="65.4647" x2="100.167" y2="168.285" gradientUnits="userSpaceOnUse">
<stop stop-color="#AAA0FF"/>
<stop offset="1" stop-color="#6B55FF"/>
</linearGradient>
</defs>
</svg>
