<svg width="163" height="49" viewBox="0 0 163 49" fill="none" xmlns="http://www.w3.org/2000/svg">
<path d="M156.127 48.125H6.12695C2.82695 48.125 0.126953 45.425 0.126953 42.125V6.125C0.126953 2.825 2.82695 0.125 6.12695 0.125H156.127C159.427 0.125 162.127 2.825 162.127 6.125V42.125C162.127 45.425 159.427 48.125 156.127 48.125Z" fill="black"/>
<path d="M57.0275 12.4198C57.0275 13.4254 56.7299 14.2258 56.1335 14.8234C55.4555 15.5326 54.5735 15.8878 53.4887 15.8878C52.4495 15.8878 51.5651 15.5278 50.8391 14.8078C50.1107 14.0866 49.7483 13.1938 49.7483 12.127C49.7483 11.0614 50.1107 10.1686 50.8391 9.44741C51.5651 8.72621 52.4495 8.36621 53.4887 8.36621C54.0035 8.36621 54.4979 8.46701 54.9659 8.66861C55.4351 8.87021 55.8107 9.13781 56.0927 9.47261L55.4591 10.1062C54.9827 9.53621 54.3263 9.25181 53.4887 9.25181C52.7303 9.25181 52.0751 9.51821 51.5219 10.051C50.9687 10.5838 50.6927 11.2762 50.6927 12.127C50.6927 12.979 50.9687 13.6714 51.5219 14.2042C52.0751 14.737 52.7303 15.0034 53.4887 15.0034C54.2927 15.0034 54.9623 14.7358 55.4999 14.1994C55.8479 13.8502 56.0495 13.3642 56.1023 12.7414H53.4887V11.8762H56.9771C57.0107 12.0646 57.0275 12.2446 57.0275 12.4198Z" fill="white"/>
<path d="M57.0288 12.4163H56.9088C56.9076 13.3991 56.6208 14.1611 56.0496 14.7347L56.0484 14.7359V14.7371C55.392 15.4223 54.5496 15.7631 53.49 15.7643C52.4784 15.7631 51.6312 15.4187 50.9244 14.7191C50.2188 14.0183 49.8708 13.1627 49.8696 12.1235C49.8708 11.0843 50.2188 10.2299 50.9244 9.52908C51.6312 8.82948 52.4784 8.48388 53.49 8.48268C53.9892 8.48268 54.4656 8.57988 54.9204 8.77548C55.3752 8.97108 55.734 9.22788 56.0016 9.54588L56.094 9.46908L56.0088 9.38388L55.3764 10.0175L55.4604 10.1027L55.5528 10.0259C55.0536 9.42708 54.354 9.12588 53.49 9.12828C52.7028 9.12708 52.0116 9.40788 51.4404 9.96108C50.862 10.5167 50.5728 11.2475 50.574 12.1235C50.5728 13.0007 50.862 13.7315 51.4404 14.2871C52.0116 14.8403 52.7028 15.1211 53.49 15.1199C54.3204 15.1211 55.0284 14.8391 55.5852 14.2811C55.9572 13.9079 56.1684 13.3907 56.2236 12.7475L56.2356 12.6179H53.61V11.9927H56.9784V11.8727L56.8608 11.8943C56.8932 12.0755 56.9088 12.2483 56.9088 12.4163H57.1488C57.1488 12.2339 57.132 12.0455 57.096 11.8511L57.0792 11.7527H53.37V12.8579H56.1036V12.7379L55.9848 12.7271C55.932 13.3307 55.74 13.7855 55.416 14.1107C54.9 14.6243 54.2676 14.8787 53.49 14.8799C52.7592 14.8787 52.1412 14.6279 51.6072 14.1143C51.078 13.6031 50.8152 12.9503 50.814 12.1235C50.8152 11.2979 51.078 10.6451 51.6072 10.1339C52.1412 9.62028 52.7592 9.36948 53.49 9.36828C54.3012 9.36948 54.9132 9.63828 55.3692 10.1795L55.4532 10.2803L56.178 9.55428L56.256 9.47628L56.1852 9.39228C55.89 9.04068 55.4976 8.76228 55.0152 8.55468C54.5316 8.34708 54.0204 8.24268 53.49 8.24268C52.422 8.24148 51.5016 8.61708 50.7552 9.35868C50.0064 10.0991 49.6284 11.0303 49.6296 12.1235C49.6284 13.2167 50.0064 14.1479 50.7552 14.8895C51.5016 15.6311 52.4232 16.0055 53.49 16.0043C54.6 16.0055 55.5228 15.6371 56.2212 14.9027L56.1348 14.8199L56.22 14.9039C56.8416 14.2835 57.15 13.4435 57.1488 12.4163H57.0288Z" fill="white"/>
<path d="M62.5593 9.41001H59.2809V11.6924H62.2377V12.5576H59.2809V14.84H62.5593V15.7244H58.3557V8.52441H62.5593V9.41001Z" fill="white"/>
<path d="M62.5607 9.41136V9.29136H59.1623V11.8138H62.1191V12.439H59.1623V14.9614H62.4407V15.6058H58.4771V8.64576H62.4407V9.41136H62.5607V9.29136V9.41136H62.6807V8.52576V8.40576H58.2371V15.8458H62.6807V14.8414V14.7214H59.4023V12.679H62.3591V11.6938V11.5738H59.4023V9.53136H62.6807V9.41136H62.5607Z" fill="white"/>
<path d="M66.4584 15.7244H65.5332V9.41001H63.522V8.52441H68.4696V9.41001H66.4584V15.7244Z" fill="white"/>
<path d="M66.4597 15.7258V15.6058H65.6545V9.29136H63.6433V8.64576H68.3508V9.29136H66.3397V15.7258H66.4597V15.6058V15.7258H66.5797V9.53136H68.5909V8.52576V8.40576H63.4033V9.53136H65.4144V15.8458H66.5797V15.7258H66.4597Z" fill="white"/>
<path d="M72.9789 8.52441H72.0549V15.7244H72.9789V8.52441Z" fill="white"/>
<path d="M72.0514 15.7258H72.1714V8.64576H72.8554V15.6058H72.0514V15.7258H72.1714H72.0514V15.8458H73.0954V8.40576H72.0514H71.9314V15.8458H72.0514V15.7258Z" fill="white"/>
<path d="M77.0824 15.7244H76.156V9.41001H74.146V8.52441H79.0936V9.41001H77.0824V15.7244Z" fill="white"/>
<path d="M77.0791 15.7258V15.6058H76.2727V9.29136H74.2627V8.64576H78.9703V9.29136H76.9591V15.7258H77.0791V15.6058V15.7258H77.1991V9.53136H79.2103V8.52576V8.40576H74.0227V9.53136H76.0327V15.8458H77.1991V15.7258H77.0791Z" fill="white"/>
<path d="M83.8593 14.1946C84.3921 14.7334 85.0437 15.0034 85.8153 15.0034C86.5857 15.0034 87.2385 14.7334 87.7713 14.1946C88.3041 13.6546 88.5717 12.9658 88.5717 12.127C88.5717 11.2894 88.3041 10.6006 87.7713 10.0606C87.2385 9.52181 86.5857 9.25181 85.8153 9.25181C85.0437 9.25181 84.3921 9.52181 83.8593 10.0606C83.3265 10.6006 83.0601 11.2894 83.0601 12.127C83.0601 12.9658 83.3265 13.6546 83.8593 14.1946ZM88.4553 14.797C87.7473 15.5254 86.8677 15.8878 85.8153 15.8878C84.7629 15.8878 83.8821 15.5254 83.1765 14.797C82.4685 14.0698 82.1157 13.1794 82.1157 12.127C82.1157 11.0746 82.4685 10.1854 83.1765 9.45821C83.8821 8.72981 84.7629 8.36621 85.8153 8.36621C86.8617 8.36621 87.7389 8.73221 88.4505 9.46301C89.1609 10.1938 89.5161 11.0818 89.5161 12.127C89.5161 13.1794 89.1621 14.0698 88.4553 14.797Z" fill="white"/>
<path d="M83.8607 14.1911L83.7755 14.2751C84.3275 14.8367 85.0175 15.1211 85.8167 15.1199C86.6159 15.1211 87.3059 14.8367 87.8579 14.2751C88.4135 13.7135 88.6943 12.9875 88.6931 12.1235C88.6943 11.2607 88.4135 10.5347 87.8579 9.97308C87.3059 9.41148 86.6159 9.12708 85.8167 9.12828C85.0175 9.12708 84.3275 9.41148 83.7755 9.97308C83.2199 10.5347 82.9403 11.2607 82.9415 12.1235C82.9403 12.9875 83.2199 13.7135 83.7755 14.2751L83.8607 14.1911L83.9459 14.1059C83.4371 13.5887 83.1827 12.9371 83.1815 12.1235C83.1827 11.3111 83.4371 10.6595 83.9459 10.1411V10.1423C84.4595 9.62388 85.0727 9.36948 85.8167 9.36828C86.5595 9.36948 87.1739 9.62388 87.6863 10.1411V10.1423C88.1975 10.6595 88.4519 11.3111 88.4531 12.1235C88.4519 12.9371 88.1975 13.5887 87.6863 14.1059C87.1739 14.6243 86.5595 14.8787 85.8167 14.8799C85.0727 14.8787 84.4595 14.6243 83.9459 14.1059L83.8607 14.1911ZM88.4567 14.7935L88.3703 14.7095C87.6827 15.4151 86.8415 15.7631 85.8167 15.7643C84.7919 15.7631 83.9495 15.4151 83.2631 14.7095L83.2595 14.7071L83.2631 14.7095C82.5767 14.0027 82.2383 13.1495 82.2371 12.1235C82.2383 11.0987 82.5767 10.2455 83.2631 9.53868C83.9495 8.83308 84.7919 8.48388 85.8167 8.48268C86.8355 8.48388 87.6743 8.83428 88.3655 9.54348C89.0555 10.2539 89.3963 11.1047 89.3975 12.1235C89.3963 13.1495 89.0555 14.0027 88.3703 14.7095L88.5431 14.8775C89.2703 14.1299 89.6387 13.2035 89.6375 12.1235C89.6387 11.0507 89.2691 10.1267 88.5383 9.37548C87.8063 8.62308 86.8907 8.24148 85.8167 8.24268C84.7367 8.24148 83.8175 8.62068 83.0915 9.37068C82.3619 10.1183 81.9959 11.0447 81.9971 12.1235C81.9959 13.2035 82.3619 14.1299 83.0915 14.8775L83.0951 14.8811L83.0915 14.8775C83.8175 15.6275 84.7367 16.0055 85.8167 16.0043C86.8967 16.0055 87.8147 15.6275 88.5431 14.8775L88.4567 14.7935Z" fill="white"/>
<path d="M90.8169 15.7244V8.52441H91.9425L95.4417 14.126H95.4813L95.4417 12.7388V8.52441H96.3681V15.7244H95.4021L91.7409 9.85281H91.7013L91.7409 11.24V15.7244H90.8169Z" fill="white"/>
<path d="M90.8182 15.7258H90.9382V8.64576H91.8778L95.377 14.2474H95.6062L95.563 12.7378V8.64576H96.2494V15.6058H95.4706L91.8094 9.73416H91.7026H91.579L91.6222 11.2438V15.6058H90.8182V15.7258H90.9382H90.8182V15.8458H91.8622V11.2402L91.8226 9.85056L91.7026 9.85416V9.97416H91.7422V9.85416L91.6402 9.91776L95.3374 15.8458H96.4894V8.40576H95.443H95.323V12.7414L95.3626 14.131L95.4826 14.1274V14.0074H95.443V14.1274L95.545 14.0638L92.011 8.40576H90.8182H90.6982V15.8458H90.8182V15.7258Z" fill="white"/>
<path d="M128.452 36.1261H130.691V21.1237H128.452V36.1261ZM148.62 26.5273L146.053 33.0313H145.976L143.312 26.5273H140.9L144.895 35.6185L142.618 40.6741H144.954L151.11 26.5273H148.62ZM135.922 34.4209C135.187 34.4209 134.165 34.0549 134.165 33.1477C134.165 31.9897 135.439 31.5457 136.538 31.5457C137.524 31.5457 137.986 31.7581 138.584 32.0473C138.41 33.4369 137.214 34.4209 135.922 34.4209ZM136.192 26.1997C134.57 26.1997 132.892 26.9137 132.197 28.4965L134.184 29.3269C134.609 28.4965 135.4 28.2265 136.23 28.2265C137.388 28.2265 138.565 28.9213 138.584 30.1561V30.3109C138.179 30.0793 137.311 29.7313 136.249 29.7313C134.107 29.7313 131.926 30.9085 131.926 33.1093C131.926 35.1157 133.682 36.4093 135.65 36.4093C137.156 36.4093 137.986 35.7337 138.508 34.9429H138.584V36.1009H140.746V30.3493C140.746 27.6853 138.758 26.1997 136.192 26.1997ZM122.353 28.3537H119.168V23.2117H122.353C124.027 23.2117 124.978 24.5977 124.978 25.7833C124.978 26.9461 124.027 28.3537 122.353 28.3537ZM122.296 21.1237H116.93V36.1261H119.168V30.4417H122.296C124.777 30.4417 127.217 28.6453 127.217 25.7833C127.217 22.9201 124.777 21.1237 122.296 21.1237ZM93.0373 34.4245C91.4917 34.4245 90.1957 33.1285 90.1957 31.3501C90.1957 29.5525 91.4917 28.2385 93.0373 28.2385C94.5649 28.2385 95.7637 29.5525 95.7637 31.3501C95.7637 33.1285 94.5649 34.4245 93.0373 34.4245ZM95.6089 27.3685H95.5321C95.0293 26.7685 94.0621 26.2273 92.8441 26.2273C90.2929 26.2273 87.9529 28.4701 87.9529 31.3501C87.9529 34.2121 90.2929 36.4345 92.8441 36.4345C94.0621 36.4345 95.0293 35.8933 95.5321 35.2753H95.6089V36.0097C95.6089 37.9621 94.5649 39.0061 92.8825 39.0061C91.5109 39.0061 90.6601 38.0197 90.3121 37.1893L88.3597 38.0005C88.9201 39.3541 90.4081 41.0173 92.8825 41.0173C95.5129 41.0173 97.7353 39.4705 97.7353 35.7001V26.5369H95.6089V27.3685ZM99.2821 36.1261H101.525V21.1237H99.2821V36.1261ZM104.831 31.1761C104.772 29.2045 106.358 28.1989 107.498 28.1989C108.389 28.1989 109.142 28.6441 109.393 29.2825L104.831 31.1761ZM111.791 29.4757C111.366 28.3345 110.07 26.2273 107.422 26.2273C104.792 26.2273 102.607 28.2961 102.607 31.3309C102.607 34.1929 104.772 36.4345 107.672 36.4345C110.012 36.4345 111.366 35.0041 111.926 34.1725L110.186 33.0133C109.607 33.8641 108.814 34.4245 107.672 34.4245C106.531 34.4245 105.72 33.9025 105.198 32.8777L112.022 30.0553L111.791 29.4757ZM57.4201 27.7933V29.9581H62.6017C62.4469 31.1761 62.0413 32.0653 61.4221 32.6845C60.6685 33.4381 59.4889 34.2697 57.4201 34.2697C54.2305 34.2697 51.7369 31.6981 51.7369 28.5085C51.7369 25.3189 54.2305 22.7473 57.4201 22.7473C59.1409 22.7473 60.3973 23.4241 61.3261 24.2941L62.8525 22.7665C61.5577 21.5293 59.8369 20.5825 57.4201 20.5825C53.0509 20.5825 49.3777 24.1393 49.3777 28.5085C49.3777 32.8777 53.0509 36.4345 57.4201 36.4345C59.7793 36.4345 61.5577 35.6617 62.9497 34.2121C64.3801 32.7805 64.8253 30.7705 64.8253 29.1469C64.8253 28.6441 64.7857 28.1797 64.7089 27.7933H57.4201ZM70.7149 34.4245C69.1681 34.4245 67.8349 33.1489 67.8349 31.3309C67.8349 29.4949 69.1681 28.2385 70.7149 28.2385C72.2617 28.2385 73.5949 29.4949 73.5949 31.3309C73.5949 33.1489 72.2617 34.4245 70.7149 34.4245ZM70.7149 26.2273C67.8925 26.2273 65.5921 28.3729 65.5921 31.3309C65.5921 34.2697 67.8925 36.4345 70.7149 36.4345C73.5373 36.4345 75.8377 34.2697 75.8377 31.3309C75.8377 28.3729 73.5373 26.2273 70.7149 26.2273ZM81.8905 34.4245C80.3449 34.4245 79.0105 33.1489 79.0105 31.3309C79.0105 29.4949 80.3449 28.2385 81.8905 28.2385C83.4373 28.2385 84.7717 29.4949 84.7717 31.3309C84.7717 33.1489 83.4373 34.4245 81.8905 34.4245ZM81.8905 26.2273C79.0681 26.2273 76.7677 28.3729 76.7677 31.3309C76.7677 34.2697 79.0681 36.4345 81.8905 36.4345C84.7141 36.4345 87.0145 34.2697 87.0145 31.3309C87.0145 28.3729 84.7141 26.2273 81.8905 26.2273Z" fill="white"/>
<path fill-rule="evenodd" clip-rule="evenodd" d="M12.7357 38.9948L12.6469 38.9096C12.2977 38.54 12.0913 37.9664 12.0913 37.2236V37.3976V10.8584V10.8524V11.0348C12.0913 10.2308 12.3325 9.62363 12.7345 9.26123L27.6025 24.128L12.7357 38.9948ZM12.0913 10.8512C12.0913 10.7852 12.0937 10.7204 12.0961 10.658C12.0937 10.7204 12.0913 10.7852 12.0913 10.8512ZM12.0973 10.6544V10.652V10.6544ZM12.0973 10.646V10.6448V10.646Z" fill="url(#paint0_linear)"/>
<path fill-rule="evenodd" clip-rule="evenodd" d="M32.5595 29.2581L32.6723 29.1933L38.5439 25.8573C39.1043 25.5393 39.4775 25.1541 39.6635 24.7449C39.4775 25.1541 39.1043 25.5393 38.5439 25.8585L32.6723 29.1945L32.5595 29.2581ZM32.5607 29.0817L27.6047 24.1245L32.5607 19.1685L38.5439 22.5681C39.3047 22.9989 39.7307 23.5557 39.8015 24.1245V24.1269C39.7307 24.6933 39.3047 25.2501 38.5439 25.6821L32.5607 29.0817Z" fill="url(#paint1_linear)"/>
<path fill-rule="evenodd" clip-rule="evenodd" d="M13.7957 39.5606C13.3805 39.5606 13.0193 39.425 12.7361 39.1706V39.1694C13.0193 39.425 13.3817 39.5606 13.7969 39.5606C13.8329 39.5606 13.8701 39.5594 13.9073 39.557C13.8701 39.5594 13.8329 39.5606 13.7957 39.5606ZM13.7969 39.3842C13.3817 39.3854 13.0193 39.2498 12.7361 38.9942L27.6029 24.1274L32.5589 29.0846L15.1409 38.9822C14.6597 39.2558 14.2025 39.3842 13.7969 39.3842ZM12.7325 39.167C12.7061 39.143 12.6797 39.1178 12.6545 39.0914L12.7325 39.167Z" fill="url(#paint2_linear)"/>
<path fill-rule="evenodd" clip-rule="evenodd" d="M27.6068 24.1249L12.7388 9.25807C13.022 9.00367 13.3832 8.86807 13.7984 8.86807C14.2052 8.86807 14.6624 8.99767 15.1448 9.27247L32.5628 19.1689L27.6068 24.1249ZM32.6744 19.0573L15.1448 9.09727C14.6624 8.82247 14.2052 8.69287 13.7984 8.69287H13.7936H13.7996C14.2064 8.69287 14.6624 8.82247 15.1448 9.09607L32.6744 19.0561V19.0573Z" fill="url(#paint3_linear)"/>
<path d="M13.9094 39.5553C14.2862 39.5337 14.7038 39.4041 15.143 39.1557L32.5598 29.2593L15.143 39.1557C14.7038 39.4053 14.2862 39.5349 13.9094 39.5553ZM12.7382 39.1689L12.7346 39.1653C12.7358 39.1665 12.737 39.1677 12.7382 39.1689ZM12.6566 39.0897L12.6494 39.0825C12.6518 39.0849 12.6542 39.0873 12.6566 39.0897Z" fill="black"/>
<path fill-rule="evenodd" clip-rule="evenodd" d="M32.5586 29.2596L32.6714 29.1948L32.5586 29.2596Z" fill="url(#paint4_linear)"/>
<path fill-rule="evenodd" clip-rule="evenodd" d="M13.799 39.5571C13.3838 39.5571 13.0214 39.4215 12.7382 39.1659V39.1671C12.737 39.1659 12.7358 39.1647 12.7346 39.1635L12.6566 39.0879C12.6542 39.0855 12.6518 39.0831 12.6494 39.0807L12.7382 38.9907C13.0214 39.2463 13.3838 39.3819 13.799 39.3807C14.2046 39.3807 14.6618 39.2523 15.143 38.9787L32.561 29.0811L32.6726 29.1927L32.5598 29.2575L15.143 39.1539C14.7038 39.4023 14.2862 39.5319 13.9094 39.5535C13.8722 39.5559 13.835 39.5571 13.799 39.5571Z" fill="url(#paint5_linear)"/>
<path d="M12.6469 39.0837C12.2977 38.7141 12.0913 38.1405 12.0913 37.3977V37.3965C12.0913 38.1405 12.2977 38.7141 12.6469 39.0825V39.0837Z" fill="black"/>
<path fill-rule="evenodd" clip-rule="evenodd" d="M12.6469 39.0836C12.2977 38.7152 12.0913 38.1416 12.0913 37.3976V37.2236C12.0913 37.9664 12.2977 38.54 12.6469 38.9096L12.7357 38.9948L12.6469 39.0836Z" fill="url(#paint6_linear)"/>
<path fill-rule="evenodd" clip-rule="evenodd" d="M12.6494 39.0837V39.0825L12.7382 38.9937L12.6494 39.0837Z" fill="url(#paint7_linear)"/>
<path d="M39.6628 24.7466C39.7552 24.545 39.8008 24.3362 39.8008 24.1286C39.8008 24.1274 39.802 24.1274 39.802 24.1274C39.802 24.3362 39.7552 24.5438 39.6628 24.7466Z" fill="black"/>
<path fill-rule="evenodd" clip-rule="evenodd" d="M32.6702 29.1938L32.5586 29.0822L38.5418 25.6826C39.3026 25.2506 39.7286 24.6938 39.7994 24.1274C39.7994 24.335 39.7538 24.5438 39.6614 24.7454C39.4754 25.1546 39.1022 25.5398 38.5418 25.8578L32.6702 29.1938Z" fill="url(#paint8_linear)"/>
<path d="M39.8028 24.124H39.8016C39.8016 23.4964 39.3828 22.8688 38.544 22.3924L32.6724 19.0564V19.0552L38.544 22.3924C39.3828 22.8688 39.8028 23.4964 39.8028 24.124Z" fill="#404040"/>
<path fill-rule="evenodd" clip-rule="evenodd" d="M39.7994 24.1277C39.7286 23.5589 39.3026 23.0021 38.5418 22.5713L32.5586 19.1717L32.6702 19.0601L38.5418 22.3961C39.3806 22.8725 39.7994 23.5001 39.7994 24.1277Z" fill="url(#paint9_linear)"/>
<path d="M12.0913 10.8493V10.8481V10.8493ZM12.0961 10.6549C12.0973 10.6537 12.0973 10.6525 12.0973 10.6513C12.0973 10.6525 12.0973 10.6537 12.0961 10.6549ZM12.0973 10.6489V10.6429V10.6489ZM12.0973 10.6417C12.1669 9.40927 12.8365 8.69767 13.7845 8.69287C13.3741 8.69527 13.0165 8.82967 12.7357 9.08287L12.7321 9.08647C12.7033 9.11287 12.6745 9.14047 12.6469 9.16927C12.3325 9.50287 12.1333 10.0021 12.0973 10.6417Z" fill="#404040"/>
<path fill-rule="evenodd" clip-rule="evenodd" d="M12.0913 11.0323V10.8571V10.8499V10.8487C12.0913 10.7827 12.0937 10.7179 12.0961 10.6555C12.0973 10.6543 12.0973 10.6531 12.0973 10.6519V10.6495V10.6435V10.6423C12.1333 10.0027 12.3325 9.5035 12.6469 9.1699L12.7345 9.2587C12.3325 9.6211 12.0913 10.2283 12.0913 11.0323ZM12.7321 9.0871L12.7357 9.0835C12.7345 9.0847 12.7333 9.0859 12.7321 9.0871Z" fill="url(#paint10_linear)"/>
<path fill-rule="evenodd" clip-rule="evenodd" d="M32.561 19.1689L15.143 9.27247C14.6606 8.99767 14.2034 8.86807 13.7966 8.86807C13.3814 8.86807 13.0202 9.00367 12.737 9.25807L12.6494 9.16927C12.677 9.14047 12.7058 9.11287 12.7346 9.08647C12.7358 9.08527 12.737 9.08407 12.7382 9.08287C13.019 8.82967 13.3766 8.69527 13.787 8.69287H13.7966C14.2034 8.69287 14.6606 8.82247 15.143 9.09727L32.6726 19.0573L32.561 19.1689Z" fill="url(#paint11_linear)"/>
<defs>
<linearGradient id="paint0_linear" x1="26.2846" y1="10.5785" x2="6.14565" y2="-9.56052" gradientUnits="userSpaceOnUse">
<stop stop-color="#00A0FF"/>
<stop offset="1" stop-color="#00E2FF"/>
</linearGradient>
<linearGradient id="paint1_linear" x1="40.7284" y1="24.1249" x2="11.692" y2="24.1249" gradientUnits="userSpaceOnUse">
<stop stop-color="#FFDF00"/>
<stop offset="1" stop-color="#FF9C00"/>
</linearGradient>
<linearGradient id="paint2_linear" x1="29.9177" y1="26.8816" x2="2.60778" y2="-0.428378" gradientUnits="userSpaceOnUse">
<stop stop-color="#FF3A44"/>
<stop offset="1" stop-color="#C31162"/>
</linearGradient>
<linearGradient id="paint3_linear" x1="8.8859" y1="0.335115" x2="21.0809" y2="-11.8599" gradientUnits="userSpaceOnUse">
<stop stop-color="#31A070"/>
<stop offset="1" stop-color="#00EF75"/>
</linearGradient>
<linearGradient id="paint4_linear" x1="40.7271" y1="24.1264" x2="11.6922" y2="24.1264" gradientUnits="userSpaceOnUse">
<stop stop-color="#CCB300"/>
<stop offset="1" stop-color="#CC7C00"/>
</linearGradient>
<linearGradient id="paint5_linear" x1="29.9198" y1="26.878" x2="2.60986" y2="-0.43197" gradientUnits="userSpaceOnUse">
<stop stop-color="#CC2D36"/>
<stop offset="1" stop-color="#9C0E4D"/>
</linearGradient>
<linearGradient id="paint6_linear" x1="26.2847" y1="10.5785" x2="6.14571" y2="-9.56056" gradientUnits="userSpaceOnUse">
<stop stop-color="#008CDF"/>
<stop offset="1" stop-color="#00C6DF"/>
</linearGradient>
<linearGradient id="paint7_linear" x1="29.9201" y1="26.8806" x2="2.60921" y2="-0.429732" gradientUnits="userSpaceOnUse">
<stop stop-color="#DF333B"/>
<stop offset="1" stop-color="#AA0E56"/>
</linearGradient>
<linearGradient id="paint8_linear" x1="40.7263" y1="24.1255" x2="11.6899" y2="24.1255" gradientUnits="userSpaceOnUse">
<stop stop-color="#DFC400"/>
<stop offset="1" stop-color="#DF8900"/>
</linearGradient>
<linearGradient id="paint9_linear" x1="40.7263" y1="24.1281" x2="11.6899" y2="24.1281" gradientUnits="userSpaceOnUse">
<stop stop-color="#FFE83F"/>
<stop offset="1" stop-color="#FFB53F"/>
</linearGradient>
<linearGradient id="paint10_linear" x1="26.2847" y1="10.5759" x2="6.14567" y2="-9.56312" gradientUnits="userSpaceOnUse">
<stop stop-color="#3FB8FF"/>
<stop offset="1" stop-color="#3FE9FF"/>
</linearGradient>
<linearGradient id="paint11_linear" x1="8.88418" y1="0.335117" x2="21.0792" y2="-11.8599" gradientUnits="userSpaceOnUse">
<stop stop-color="#64B895"/>
<stop offset="1" stop-color="#3FF497"/>
</linearGradient>
</defs>
</svg>
