<svg width="151" height="156" viewBox="0 0 151 156" fill="none" xmlns="http://www.w3.org/2000/svg">
<path d="M23.192 51.4004C23.192 51.4004 39.4232 37.7042 58.6357 47.5346C77.8482 57.3649 69.3461 77.0257 81.2711 88.5129C93.1961 100.111 105.784 104.418 104.127 123.637C102.471 142.856 63.2732 163.29 33.4607 149.262C3.64823 135.235 -13.5768 83.432 23.192 51.4004Z" fill="#002070" fill-opacity="0.1"/>
<path d="M17.1192 83.9844L16.6775 92.7102H25.29L23.8546 86.4144L17.1192 83.9844Z" fill="url(#paint0_linear)"/>
<path d="M15.0212 77.6884C15.6837 75.3689 17.5607 73.3807 19.9899 72.718C24.6274 71.3925 28.9337 74.5957 29.3753 78.9034C29.3753 78.9034 29.3753 79.0138 29.4857 79.0138C29.4857 79.0138 29.9274 84.0947 29.5962 88.1815C29.4857 90.1696 27.7191 91.6055 25.7316 91.2742C24.517 91.0533 23.0816 90.6115 21.5357 89.8383C19.7691 88.9547 18.6649 87.2979 17.892 85.641C15.4628 84.0947 14.1378 81.002 15.0212 77.6884Z" fill="url(#paint1_linear)"/>
<path d="M15.6836 90.6116C15.6836 90.6116 26.1732 92.1579 27.3878 93.0416C27.8294 93.8147 28.0503 94.9193 28.0503 94.9193H14.0273L15.6836 90.6116Z" fill="#F1F2F2"/>
<path d="M30.9211 73.1597C30.7003 71.5029 28.1607 70.9507 26.9461 71.3925C26.2836 71.6134 26.2836 71.5029 25.1795 71.282C22.7503 70.3984 20.4315 70.067 18.2232 71.1716C16.4565 72.1656 15.4628 73.2702 15.0211 74.3747C13.144 75.1479 14.469 75.9211 13.2545 77.2465C12.0399 78.6824 12.4815 79.6765 13.4753 82.7692C14.469 85.8619 16.2357 88.1814 16.7878 88.9546C17.4503 89.7278 18.6649 89.3964 19.4378 89.8382C20.2107 90.28 21.9774 89.3964 22.8607 88.071C23.8545 86.7455 24.4065 84.7574 24.4065 83.5424C24.4065 83.1006 24.1857 82.4378 23.9649 81.7751C24.1857 81.3333 24.4065 80.8915 24.7378 80.8915C25.5107 81.0019 25.7315 81.8856 26.1732 82.8796C26.7253 83.8737 26.394 85.0887 26.394 85.0887H27.3878C27.3878 85.0887 27.4982 83.6528 27.3878 82.6587C27.2774 81.6647 26.7253 80.8915 25.6211 79.3451C25.1795 78.7929 24.9586 78.2406 24.7378 77.9092C25.4003 78.0197 26.0628 78.1301 26.6149 78.0197C27.0565 77.9092 27.6086 77.9092 27.9399 77.6883C28.0503 77.6883 28.1607 77.6883 28.2711 77.6883C31.3628 77.0256 31.142 74.8165 30.9211 73.1597Z" fill="#254DA1"/>
<path d="M9.27952 95.8027C9.27952 95.8027 24.8483 89.0651 32.9087 101.657C39.6441 113.254 39.2024 147.164 37.767 151.25C35.5587 155.227 10.0524 158.43 3.42744 153.46C-3.19756 148.489 0.335774 99.0059 9.27952 95.8027Z" fill="url(#paint2_linear)"/>
<path d="M27.2774 82.6588C27.2774 82.6588 26.6149 84.3156 27.9399 85.6411C29.2649 86.9665 30.0378 86.4143 30.5899 87.6293C31.142 88.8442 31.0316 91.3847 29.1545 92.2683C27.167 93.1519 23.4128 92.1579 23.4128 90.5011C23.4128 88.8442 26.5045 84.7575 26.1733 82.6588C25.842 80.6707 26.9462 81.3334 27.2774 82.6588Z" fill="#254DA1"/>
<path d="M18.5547 107.621C18.5547 107.621 23.1922 127.503 38.4297 130.817C53.6672 134.13 60.513 112.592 49.6922 101.547C49.6922 101.547 49.4714 99.1165 48.3672 99.3374C47.263 99.5583 46.7109 102.651 47.0422 103.756C47.3734 104.86 49.2505 113.144 45.938 115.574C42.6255 118.004 36.8839 113.144 33.2401 108.174L18.5547 107.621Z" fill="url(#paint3_linear)"/>
<path d="M18.3337 100.331C18.3337 100.331 11.2671 104.308 17.0087 113.475C21.6462 121.538 27.3879 125.736 27.3879 125.736C27.3879 125.736 38.7608 121.318 39.4233 113.254C39.4233 113.254 31.2525 100.773 27.6087 99.0059C23.7441 97.2386 18.3337 100.331 18.3337 100.331Z" fill="#F1F2F2"/>
<path d="M47.3734 103.535H44.8338C44.5026 103.535 44.2817 103.314 44.2817 102.982V98.012C44.2817 97.6806 44.5026 97.4597 44.8338 97.4597H47.3734C47.7047 97.4597 47.9255 97.6806 47.9255 98.012V102.982C47.9255 103.314 47.5942 103.535 47.3734 103.535Z" fill="#254DA1"/>
<path d="M47.1526 102.761H45.0546C44.8338 102.761 44.7234 102.651 44.7234 102.43V98.2327C44.7234 98.0118 44.8338 97.9014 45.0546 97.9014H47.1526C47.3734 97.9014 47.4838 98.0118 47.4838 98.2327V102.43C47.4838 102.651 47.3734 102.761 47.1526 102.761Z" fill="#F1F2F2"/>
<path d="M132.283 122.422V97.2426H124.056V91.2214H112.302V78.6317H101.331V66.5893L88.7934 60.5681V97.2426H84.0918V83.0107H71.5542V122.422H132.283Z" fill="url(#paint4_linear)"/>
<path d="M144.65 126.288H62.9421C61.8379 126.288 60.9546 125.404 60.9546 124.3V124.189C60.9546 123.085 61.8379 122.201 62.9421 122.201H144.65C145.755 122.201 146.638 123.085 146.638 124.189V124.3C146.638 125.404 145.755 126.288 144.65 126.288Z" fill="#626B84"/>
<path d="M144.54 113.917H64.1565V124.079H144.54V113.917Z" fill="#00237A"/>
<path d="M76.4128 130.264C79.8278 130.264 82.5962 127.495 82.5962 124.079C82.5962 120.663 79.8278 117.894 76.4128 117.894C72.9979 117.894 70.2295 120.663 70.2295 124.079C70.2295 127.495 72.9979 130.264 76.4128 130.264Z" fill="#404A69"/>
<path d="M76.4127 130.927C80.1936 130.927 83.2586 127.861 83.2586 124.079C83.2586 120.297 80.1936 117.231 76.4127 117.231C72.6319 117.231 69.5669 120.297 69.5669 124.079C69.5669 127.861 72.6319 130.927 76.4127 130.927Z" fill="#404A69"/>
<path d="M80.3877 124.079C80.3877 126.288 78.6211 128.055 76.4127 128.055C74.2044 128.055 72.4377 126.288 72.4377 124.079C72.4377 121.87 74.2044 120.103 76.4127 120.103C78.6211 120.103 80.3877 121.87 80.3877 124.079Z" fill="#323253"/>
<path d="M79.7251 124.079C79.7251 125.957 78.1793 127.393 76.4126 127.393C74.5355 127.393 73.1001 125.846 73.1001 124.079C73.1001 122.201 74.6459 120.765 76.4126 120.765C78.2897 120.765 79.7251 122.201 79.7251 124.079Z" fill="#F1F2F2"/>
<path d="M148.294 121.649V111.045L146.638 109.941L145.975 107.511H143.988L133.719 95.2505C133.057 94.3669 131.952 93.9251 130.848 93.9251C120.579 93.8146 97.8337 93.9251 92.3128 93.9251C91.4295 93.9251 90.6566 94.2564 89.9941 94.8087C86.2399 97.9014 76.7441 106.959 76.7441 106.959C71.5545 108.726 64.5982 110.824 61.3962 112.592C59.7399 113.475 58.6357 114.911 58.1941 116.679L56.9795 121.98L57.3107 124.189H67.9107C67.9107 124.079 67.9107 124.079 67.9107 123.968C67.9107 119.329 71.6649 115.574 76.3024 115.574C80.9399 115.574 84.6941 119.329 84.6941 123.968C84.6941 124.079 84.6941 124.079 84.6941 124.189H123.45C123.45 124.079 123.45 124.079 123.45 123.968C123.45 119.329 127.205 115.574 131.842 115.574C136.48 115.574 140.234 119.329 140.234 123.968C140.234 124.079 140.234 124.079 140.234 124.189H149.067L148.957 121.649H148.294Z" fill="#000F35"/>
<path d="M148.294 111.046L146.638 109.941C146.417 109.168 146.196 108.284 145.975 107.511H75.198C70.2292 109.168 64.3771 111.046 61.5063 112.592C60.5126 113.144 59.6292 113.917 59.0771 114.911H148.404V111.046H148.294Z" fill="#021E65"/>
<path d="M148.294 121.649V113.807H59.8503C59.0773 114.58 58.5253 115.574 58.3044 116.679L57.0898 121.98L57.4211 124.19H68.0211C68.0211 124.079 68.0211 124.079 68.0211 123.969C68.0211 119.33 71.7753 115.574 76.4128 115.574C81.0503 115.574 84.8044 119.33 84.8044 123.969C84.8044 124.079 84.8044 124.079 84.8044 124.19H123.561C123.561 124.079 123.561 124.079 123.561 123.969C123.561 119.33 127.315 115.574 131.952 115.574C136.59 115.574 140.344 119.33 140.344 123.969C140.344 124.079 140.344 124.079 140.344 124.19H149.177L149.067 121.649H148.294Z" fill="#000F35"/>
<path d="M109.317 95.3611H92.3128L82.7066 104.087C82.1545 104.639 81.8232 105.302 81.8232 106.075C81.8232 106.738 82.3753 107.29 83.0378 107.29H108.544C108.875 107.29 109.096 107.18 109.317 106.959V95.3611Z" fill="#535C78"/>
<path d="M135.265 104.087L127.977 95.3611H112.74V106.627C112.961 107.069 113.292 107.29 113.844 107.29H134.933C135.596 107.29 136.148 106.738 136.148 106.075C136.148 105.302 135.817 104.529 135.265 104.087Z" fill="#535C78"/>
<path d="M82.7063 108.836H82.3751C81.3813 108.836 80.6084 108.063 80.6084 107.069V105.744C80.6084 104.749 81.3813 103.976 82.3751 103.976H82.7063V108.836Z" fill="#2F69FE"/>
<path d="M110.752 124.3H111.525V93.8147C111.305 93.8147 111.084 93.8147 110.752 93.8147V124.3Z" fill="#2F69FE"/>
<path d="M64.4877 125.404H57.5315C56.869 125.404 56.3169 124.852 56.3169 124.19V121.649C56.3169 120.986 56.869 120.434 57.5315 120.434H64.4877C65.1502 120.434 65.7023 120.986 65.7023 121.649V124.19C65.7023 124.852 65.1502 125.404 64.4877 125.404Z" fill="#2F69FE"/>
<path d="M149.619 125.404H142.773C142.221 125.404 141.779 124.963 141.779 124.41V122.864C141.779 122.312 142.221 121.87 142.773 121.87H149.619C150.171 121.87 150.613 122.312 150.613 122.864V124.41C150.613 124.963 150.171 125.404 149.619 125.404Z" fill="#2F69FE"/>
<path d="M73.1001 124.521C73.3209 126.178 74.6459 127.503 76.4126 127.503C78.0688 127.503 79.5043 126.178 79.7251 124.521H73.1001Z" fill="#D1DBE6"/>
<path d="M76.4127 130.927C80.1936 130.927 83.2586 127.861 83.2586 124.079C83.2586 120.297 80.1936 117.231 76.4127 117.231C72.6319 117.231 69.5669 120.297 69.5669 124.079C69.5669 127.861 72.6319 130.927 76.4127 130.927Z" fill="#404A69"/>
<path d="M80.3877 124.079C80.3877 126.288 78.6211 128.055 76.4127 128.055C74.2044 128.055 72.4377 126.288 72.4377 124.079C72.4377 121.87 74.2044 120.103 76.4127 120.103C78.6211 120.103 80.3877 121.87 80.3877 124.079Z" fill="#323253"/>
<path d="M79.7251 124.079C79.7251 125.957 78.1793 127.393 76.4126 127.393C74.5355 127.393 73.1001 125.846 73.1001 124.079C73.1001 122.201 74.6459 120.765 76.4126 120.765C78.2897 120.765 79.7251 122.201 79.7251 124.079Z" fill="#F1F2F2"/>
<path d="M73.1001 124.521C73.3209 126.178 74.6459 127.503 76.4126 127.503C78.0688 127.503 79.5043 126.178 79.7251 124.521H73.1001Z" fill="#D1DBE6"/>
<path d="M132.173 130.927C135.954 130.927 139.019 127.861 139.019 124.079C139.019 120.297 135.954 117.231 132.173 117.231C128.392 117.231 125.327 120.297 125.327 124.079C125.327 127.861 128.392 130.927 132.173 130.927Z" fill="#404A69"/>
<path d="M136.259 124.079C136.259 126.288 134.492 128.055 132.284 128.055C130.075 128.055 128.309 126.288 128.309 124.079C128.309 121.87 130.075 120.103 132.284 120.103C134.492 120.103 136.259 121.87 136.259 124.079Z" fill="#323253"/>
<path d="M135.596 124.079C135.596 125.957 134.05 127.393 132.284 127.393C130.517 127.393 128.971 125.846 128.971 124.079C128.971 122.201 130.517 120.765 132.284 120.765C134.05 120.765 135.596 122.201 135.596 124.079Z" fill="#F1F2F2"/>
<path d="M128.971 124.521C129.192 126.178 130.517 127.503 132.284 127.503C133.94 127.503 135.375 126.178 135.596 124.521H128.971Z" fill="#D1DBE6"/>
<path d="M148.294 119.109H145.644C144.981 119.109 144.54 118.667 144.54 118.004V113.807H148.294V119.109Z" fill="#D32F2F"/>
<path d="M148.294 119.108H145.644C144.981 119.108 144.54 118.667 144.54 118.004V117.452H148.294V119.108Z" fill="#404A69"/>
<path d="M64.2667 118.446H59.4084C59.1876 118.446 59.0771 118.225 59.0771 118.115V116.789C59.0771 116.568 59.298 116.458 59.4084 116.458H64.2667C64.4876 116.458 64.598 116.679 64.598 116.789V118.115C64.598 118.225 64.3771 118.446 64.2667 118.446Z" fill="white"/>
<path d="M64.3774 118.446H62.942C62.8316 118.446 62.7212 118.335 62.7212 118.225V116.568C62.7212 116.458 62.8316 116.347 62.942 116.347H64.3774C64.4878 116.347 64.5983 116.458 64.5983 116.568V118.225C64.5983 118.335 64.4878 118.446 64.3774 118.446Z" fill="#D32F2F"/>
<path d="M108.765 113.807H104.348V114.58H108.765V113.807Z" fill="#535C78"/>
<path d="M136.258 113.807H131.842V114.58H136.258V113.807Z" fill="#535C78"/>
<g filter="url(#filter0_d)">
<path d="M35.1169 77.927C35.1169 76.2701 36.4601 74.927 38.1169 74.927H56.4086C58.0655 74.927 59.4086 76.2701 59.4086 77.927V89.5996C59.4086 91.2564 58.0655 92.5996 56.4086 92.5996H51.2661C50.4703 92.5996 49.7071 92.9158 49.1445 93.4786L47.8149 94.8087L46.4853 93.4786C45.9226 92.9158 45.1594 92.5996 44.3636 92.5996H38.1169C36.4601 92.5996 35.1169 91.2564 35.1169 89.5996V77.927Z" fill="white"/>
</g>
<path fill-rule="evenodd" clip-rule="evenodd" d="M45.6976 80.4497H44.8628V82.6232L45.6976 81.571V80.4497ZM49.9414 84.1458C49.9414 82.7476 48.8004 81.6262 47.409 81.6262C46.5603 81.6262 45.8089 82.0415 45.3497 82.6783L43.207 85.3778C42.887 85.6824 42.4835 85.8485 42.0382 85.8485C41.8991 85.8485 41.7738 85.8347 41.6486 85.7931C41.426 85.7378 41.2173 85.6409 41.0364 85.5024L41.0225 85.4886C41.0086 85.4747 40.9947 85.4644 40.9807 85.454C40.9668 85.4436 40.9529 85.4332 40.939 85.4194L40.9112 85.3917L40.9112 85.3917C40.8833 85.364 40.8555 85.3363 40.8277 85.3225L40.7999 85.2948C40.786 85.2809 40.7755 85.2671 40.7651 85.2533L40.7651 85.2532L40.7651 85.2532C40.7546 85.2394 40.7442 85.2256 40.7303 85.2117C40.725 85.2064 40.7217 85.2011 40.7189 85.1966C40.7144 85.1893 40.7111 85.184 40.7025 85.184C40.6607 85.1425 40.6329 85.0871 40.6051 85.0317C40.5912 85.0179 40.5772 84.9902 40.5772 84.9764C40.5633 84.9625 40.5494 84.9348 40.5494 84.9072C40.5425 84.8933 40.5355 84.8829 40.5285 84.8725L40.5285 84.8725C40.5216 84.8622 40.5146 84.8518 40.5077 84.8379C40.4999 84.8302 40.4964 84.818 40.4925 84.804L40.4925 84.804C40.4894 84.793 40.4859 84.7809 40.4798 84.7687C40.4729 84.7549 40.4694 84.741 40.4659 84.7272C40.4625 84.7133 40.459 84.6995 40.452 84.6857C40.452 84.6799 40.4496 84.6718 40.4468 84.6623L40.4468 84.6623C40.4429 84.6489 40.4381 84.6327 40.4381 84.6164C40.4311 84.6026 40.4277 84.5888 40.4242 84.5749C40.4207 84.5611 40.4172 84.5472 40.4103 84.5334C40.4103 84.5265 40.4068 84.5161 40.4033 84.5057C40.3998 84.4953 40.3964 84.4849 40.3964 84.478C40.3964 84.4642 40.3929 84.4469 40.3894 84.4296C40.3859 84.4122 40.3824 84.3949 40.3824 84.3811V84.3257C40.3824 84.296 40.3784 84.2664 40.3747 84.2388C40.3715 84.215 40.3685 84.1927 40.3685 84.1734C40.3685 83.2598 41.1199 82.5122 42.0382 82.5122C42.1078 82.5122 42.1774 82.5122 42.2608 82.5261C42.4 82.5399 42.5252 82.5814 42.6504 82.623C42.6643 82.6299 42.6817 82.6368 42.6991 82.6437L42.6991 82.6437C42.7165 82.6506 42.7339 82.6576 42.7478 82.6645C42.7553 82.6682 42.7617 82.6719 42.7677 82.6753L42.7677 82.6754C42.7841 82.6848 42.797 82.6922 42.8174 82.6922C42.8313 82.6922 42.8452 82.706 42.8591 82.7199C42.8731 82.7268 42.8835 82.7337 42.8939 82.7406C42.9044 82.7476 42.9148 82.7545 42.9287 82.7614C43.04 82.8306 43.1374 82.8998 43.2209 82.9967L43.8053 82.4153C43.5687 82.18 43.2905 82 42.9983 81.8754C42.7061 81.7508 42.3721 81.6816 42.0382 81.6816C40.6607 81.6816 39.5337 82.8029 39.5337 84.1734C39.5337 85.544 40.6607 86.6653 42.0382 86.6653C42.7061 86.6653 43.3322 86.4023 43.8053 85.9316L46.0037 83.149L46.0454 83.0936C46.3515 82.6922 46.8385 82.443 47.3812 82.443C48.3134 82.443 49.0787 83.2044 49.0787 84.1319C49.0787 85.0594 48.3134 85.8208 47.3812 85.8208C46.4629 85.8208 45.7254 85.101 45.6837 84.2011L45.0158 85.0317C45.3776 85.9731 46.3098 86.6515 47.3812 86.6515C48.8004 86.6791 49.9414 85.544 49.9414 84.1458ZM54.992 82.5262H51.8614C51.5135 82.5262 51.2353 82.803 51.2353 83.1491C51.2353 83.4952 51.5135 83.7721 51.8614 83.7721H52.3901H52.9049H53.5311C54.3381 83.7721 54.992 84.4228 54.992 85.2257C54.992 86.0286 54.3381 86.6793 53.5311 86.6793H48.9116C49.2734 86.4716 49.5795 86.1809 49.816 85.8486H53.5311C53.8789 85.8486 54.1572 85.5718 54.1572 85.2257C54.1572 84.8796 53.8789 84.6027 53.5311 84.6027H52.9049H52.3901H51.8614C51.0544 84.6027 50.4004 83.9521 50.4004 83.1491C50.4004 82.3462 51.0544 81.6956 51.8614 81.6956H54.992V82.5262Z" fill="#000F35"/>
<path fill-rule="evenodd" clip-rule="evenodd" d="M46.5122 84.038C46.5122 83.5714 46.8898 83.1897 47.3514 83.1897C47.8129 83.1897 48.1906 83.5714 48.1906 84.038C48.1906 84.5045 47.3514 85.3104 47.3514 85.3104C47.3514 85.3104 46.5122 84.5045 46.5122 84.038ZM47.1415 83.9663C47.1415 84.0794 47.2394 84.1784 47.3513 84.1784C47.4632 84.1784 47.5611 84.0794 47.5611 83.9663C47.5611 83.8531 47.4632 83.7542 47.3513 83.7542C47.2394 83.7542 47.1415 83.8531 47.1415 83.9663Z" fill="#DE0085"/>
<path d="M27.4717 15.1885V21H24.7539V5.35938H30.7373C32.4847 5.35938 33.8704 5.81413 34.8945 6.72363C35.9258 7.63314 36.4414 8.83626 36.4414 10.333C36.4414 11.8656 35.9365 13.0579 34.9268 13.9102C33.9242 14.7624 32.5169 15.1885 30.7051 15.1885H27.4717ZM27.4717 13.0078H30.7373C31.7041 13.0078 32.4417 12.7822 32.9502 12.3311C33.4587 11.8727 33.7129 11.2139 33.7129 10.3545C33.7129 9.50944 33.4551 8.83626 32.9395 8.33496C32.4238 7.8265 31.7148 7.5651 30.8125 7.55078H27.4717V13.0078ZM45.3896 21C45.2751 20.778 45.1748 20.4163 45.0889 19.915C44.2581 20.7816 43.2412 21.2148 42.0381 21.2148C40.8708 21.2148 39.9183 20.8818 39.1807 20.2158C38.443 19.5498 38.0742 18.7262 38.0742 17.7451C38.0742 16.5062 38.5326 15.5573 39.4492 14.8984C40.373 14.2324 41.6908 13.8994 43.4023 13.8994H45.0029V13.1367C45.0029 12.5352 44.8346 12.0553 44.498 11.6973C44.1615 11.332 43.6494 11.1494 42.9619 11.1494C42.3675 11.1494 41.8805 11.2998 41.501 11.6006C41.1214 11.8942 40.9316 12.2702 40.9316 12.7285H38.3213C38.3213 12.0911 38.5326 11.4967 38.9551 10.9453C39.3776 10.3867 39.9505 9.94987 40.6738 9.63477C41.4043 9.31966 42.2171 9.16211 43.1123 9.16211C44.473 9.16211 45.5579 9.50586 46.3672 10.1934C47.1764 10.8737 47.5918 11.8333 47.6133 13.0723V18.3145C47.6133 19.36 47.7601 20.1943 48.0537 20.8174V21H45.3896ZM42.5215 19.1201C43.0371 19.1201 43.5205 18.9948 43.9717 18.7441C44.43 18.4935 44.7738 18.1569 45.0029 17.7344V15.543H43.5957C42.6289 15.543 41.902 15.7113 41.415 16.0479C40.9281 16.3844 40.6846 16.8607 40.6846 17.4766C40.6846 17.9779 40.8493 18.3789 41.1787 18.6797C41.5153 18.9733 41.9629 19.1201 42.5215 19.1201ZM56.8623 17.8418C56.8623 17.3763 56.6689 17.0218 56.2822 16.7783C55.9027 16.5348 55.2689 16.32 54.3809 16.1338C53.4928 15.9476 52.7516 15.7113 52.1572 15.4248C50.8538 14.7946 50.2021 13.8815 50.2021 12.6855C50.2021 11.6829 50.6247 10.8451 51.4697 10.1719C52.3148 9.4987 53.389 9.16211 54.6924 9.16211C56.0817 9.16211 57.2025 9.50586 58.0547 10.1934C58.9141 10.8809 59.3438 11.7725 59.3438 12.8682H56.7334C56.7334 12.3669 56.5472 11.9515 56.1748 11.6221C55.8024 11.2855 55.3083 11.1172 54.6924 11.1172C54.1195 11.1172 53.6504 11.2497 53.2852 11.5146C52.9271 11.7796 52.748 12.1341 52.748 12.5781C52.748 12.9792 52.9163 13.2907 53.2529 13.5127C53.5895 13.7347 54.2699 13.9603 55.2939 14.1895C56.318 14.4115 57.1201 14.68 57.7002 14.9951C58.2874 15.3031 58.7207 15.6755 59 16.1123C59.2865 16.5492 59.4297 17.0791 59.4297 17.7021C59.4297 18.7477 58.9964 19.5964 58.1299 20.248C57.2633 20.8926 56.1283 21.2148 54.7246 21.2148C53.7721 21.2148 52.9235 21.043 52.1787 20.6992C51.4339 20.3555 50.8538 19.8828 50.4385 19.2812C50.0231 18.6797 49.8154 18.0316 49.8154 17.3369H52.3506C52.3864 17.9528 52.6191 18.429 53.0488 18.7656C53.4785 19.0951 54.0479 19.2598 54.7568 19.2598C55.4443 19.2598 55.9671 19.1309 56.3252 18.873C56.6833 18.6081 56.8623 18.2643 56.8623 17.8418ZM68.2275 17.8418C68.2275 17.3763 68.0342 17.0218 67.6475 16.7783C67.2679 16.5348 66.6341 16.32 65.7461 16.1338C64.8581 15.9476 64.1169 15.7113 63.5225 15.4248C62.2191 14.7946 61.5674 13.8815 61.5674 12.6855C61.5674 11.6829 61.9899 10.8451 62.835 10.1719C63.68 9.4987 64.7542 9.16211 66.0576 9.16211C67.4469 9.16211 68.5677 9.50586 69.4199 10.1934C70.2793 10.8809 70.709 11.7725 70.709 12.8682H68.0986C68.0986 12.3669 67.9124 11.9515 67.54 11.6221C67.1676 11.2855 66.6735 11.1172 66.0576 11.1172C65.4847 11.1172 65.0156 11.2497 64.6504 11.5146C64.2923 11.7796 64.1133 12.1341 64.1133 12.5781C64.1133 12.9792 64.2816 13.2907 64.6182 13.5127C64.9548 13.7347 65.6351 13.9603 66.6592 14.1895C67.6833 14.4115 68.4854 14.68 69.0654 14.9951C69.6527 15.3031 70.0859 15.6755 70.3652 16.1123C70.6517 16.5492 70.7949 17.0791 70.7949 17.7021C70.7949 18.7477 70.3617 19.5964 69.4951 20.248C68.6286 20.8926 67.4935 21.2148 66.0898 21.2148C65.1374 21.2148 64.2887 21.043 63.5439 20.6992C62.7992 20.3555 62.2191 19.8828 61.8037 19.2812C61.3883 18.6797 61.1807 18.0316 61.1807 17.3369H63.7158C63.7516 17.9528 63.9844 18.429 64.4141 18.7656C64.8438 19.0951 65.4131 19.2598 66.1221 19.2598C66.8096 19.2598 67.3324 19.1309 67.6904 18.873C68.0485 18.6081 68.2275 18.2643 68.2275 17.8418ZM78.1963 21.2148C76.542 21.2148 75.1992 20.6956 74.168 19.6572C73.1439 18.6117 72.6318 17.2223 72.6318 15.4893V15.167C72.6318 14.0068 72.8538 12.972 73.2979 12.0625C73.749 11.1458 74.3792 10.4333 75.1885 9.9248C75.9977 9.41634 76.9001 9.16211 77.8955 9.16211C79.4782 9.16211 80.6992 9.66699 81.5586 10.6768C82.4251 11.6865 82.8584 13.1152 82.8584 14.9629V16.0156H75.2637C75.3424 16.9753 75.6611 17.7344 76.2197 18.293C76.7855 18.8516 77.4945 19.1309 78.3467 19.1309C79.5426 19.1309 80.5166 18.6475 81.2686 17.6807L82.6758 19.0234C82.2103 19.7181 81.5872 20.2588 80.8066 20.6455C80.0332 21.0251 79.1631 21.2148 78.1963 21.2148ZM77.8848 11.2568C77.1686 11.2568 76.5885 11.5075 76.1445 12.0088C75.7077 12.5101 75.4284 13.2083 75.3066 14.1035H80.2803V13.9102C80.223 13.0365 79.9902 12.3776 79.582 11.9336C79.1738 11.4824 78.6081 11.2568 77.8848 11.2568ZM87.3164 9.37695L87.3916 10.7197C88.251 9.68132 89.3789 9.16211 90.7754 9.16211C93.196 9.16211 94.4277 10.5479 94.4707 13.3193V21H91.8604V13.4697C91.8604 12.7321 91.6992 12.1878 91.377 11.8369C91.0618 11.4788 90.5426 11.2998 89.8193 11.2998C88.7666 11.2998 87.9824 11.776 87.4668 12.7285V21H84.8564V9.37695H87.3164ZM96.6836 15.1025C96.6836 13.2979 97.1061 11.8584 97.9512 10.7842C98.8034 9.7028 99.9313 9.16211 101.335 9.16211C102.66 9.16211 103.702 9.62402 104.461 10.5479L104.579 9.37695H106.932V20.6455C106.932 22.1709 106.455 23.374 105.503 24.2549C104.558 25.1357 103.279 25.5762 101.668 25.5762C100.816 25.5762 99.9814 25.3971 99.165 25.0391C98.3558 24.6882 97.7399 24.2262 97.3174 23.6533L98.5527 22.085C99.3548 23.0374 100.343 23.5137 101.518 23.5137C102.384 23.5137 103.068 23.2773 103.569 22.8047C104.071 22.3392 104.321 21.6517 104.321 20.7422V19.958C103.569 20.7959 102.567 21.2148 101.313 21.2148C99.9528 21.2148 98.8392 20.6742 97.9727 19.5928C97.1133 18.5114 96.6836 17.0146 96.6836 15.1025ZM99.2832 15.3281C99.2832 16.4954 99.5195 17.4157 99.9922 18.0889C100.472 18.7549 101.134 19.0879 101.979 19.0879C103.032 19.0879 103.813 18.6367 104.321 17.7344V12.6211C103.827 11.7402 103.054 11.2998 102.001 11.2998C101.142 11.2998 100.472 11.64 99.9922 12.3203C99.5195 13.0007 99.2832 14.0033 99.2832 15.3281ZM114.741 21.2148C113.087 21.2148 111.744 20.6956 110.713 19.6572C109.689 18.6117 109.177 17.2223 109.177 15.4893V15.167C109.177 14.0068 109.399 12.972 109.843 12.0625C110.294 11.1458 110.924 10.4333 111.733 9.9248C112.543 9.41634 113.445 9.16211 114.44 9.16211C116.023 9.16211 117.244 9.66699 118.104 10.6768C118.97 11.6865 119.403 13.1152 119.403 14.9629V16.0156H111.809C111.887 16.9753 112.206 17.7344 112.765 18.293C113.33 18.8516 114.039 19.1309 114.892 19.1309C116.088 19.1309 117.062 18.6475 117.813 17.6807L119.221 19.0234C118.755 19.7181 118.132 20.2588 117.352 20.6455C116.578 21.0251 115.708 21.2148 114.741 21.2148ZM114.43 11.2568C113.714 11.2568 113.133 11.5075 112.689 12.0088C112.253 12.5101 111.973 13.2083 111.852 14.1035H116.825V13.9102C116.768 13.0365 116.535 12.3776 116.127 11.9336C115.719 11.4824 115.153 11.2568 114.43 11.2568ZM127.524 11.7617C127.181 11.7044 126.826 11.6758 126.461 11.6758C125.265 11.6758 124.459 12.1341 124.044 13.0508V21H121.434V9.37695H123.926L123.99 10.6768C124.62 9.66699 125.494 9.16211 126.611 9.16211C126.984 9.16211 127.292 9.21224 127.535 9.3125L127.524 11.7617Z" fill="#3A89FF"/>
<defs>
<filter id="filter0_d" x="27.1169" y="68.927" width="40.2917" height="35.8817" filterUnits="userSpaceOnUse" color-interpolation-filters="sRGB">
<feFlood flood-opacity="0" result="BackgroundImageFix"/>
<feColorMatrix in="SourceAlpha" type="matrix" values="0 0 0 0 0 0 0 0 0 0 0 0 0 0 0 0 0 0 127 0"/>
<feOffset dy="2"/>
<feGaussianBlur stdDeviation="4"/>
<feColorMatrix type="matrix" values="0 0 0 0 0 0 0 0 0 0 0 0 0 0 0 0 0 0 0.1 0"/>
<feBlend mode="normal" in2="BackgroundImageFix" result="effect1_dropShadow"/>
<feBlend mode="normal" in="SourceGraphic" in2="effect1_dropShadow" result="shape"/>
</filter>
<linearGradient id="paint0_linear" x1="14.5597" y1="96.1093" x2="22.5857" y2="86.7671" gradientUnits="userSpaceOnUse">
<stop stop-color="#FCC198"/>
<stop offset="0.2137" stop-color="#FBBD97"/>
<stop offset="0.4237" stop-color="#F8B192"/>
<stop offset="0.6322" stop-color="#F39E8B"/>
<stop offset="0.8387" stop-color="#ED8280"/>
<stop offset="1" stop-color="#E66776"/>
</linearGradient>
<linearGradient id="paint1_linear" x1="28.0392" y1="77.8276" x2="16.103" y2="88.3676" gradientUnits="userSpaceOnUse">
<stop stop-color="#FCC198"/>
<stop offset="0.2137" stop-color="#FBBD97"/>
<stop offset="0.4237" stop-color="#F8B192"/>
<stop offset="0.6322" stop-color="#F39E8B"/>
<stop offset="0.8387" stop-color="#ED8280"/>
<stop offset="1" stop-color="#E66776"/>
</linearGradient>
<linearGradient id="paint2_linear" x1="3.02188" y1="96.3431" x2="36.7197" y2="166.433" gradientUnits="userSpaceOnUse">
<stop stop-color="#AAA0FF"/>
<stop offset="1" stop-color="#6B55FF"/>
</linearGradient>
<linearGradient id="paint3_linear" x1="39.81" y1="102.875" x2="30.1426" y2="134.076" gradientUnits="userSpaceOnUse">
<stop stop-color="#FCC198"/>
<stop offset="0.2145" stop-color="#FBBD96"/>
<stop offset="0.4156" stop-color="#F8B292"/>
<stop offset="0.537" stop-color="#F6A98F"/>
<stop offset="0.7334" stop-color="#F09186"/>
<stop offset="0.979" stop-color="#E76B77"/>
<stop offset="1" stop-color="#E66776"/>
</linearGradient>
<linearGradient id="paint4_linear" x1="101.942" y1="51.2993" x2="101.942" y2="125.743" gradientUnits="userSpaceOnUse">
<stop stop-color="#F8F8F8" stop-opacity="0"/>
<stop offset="1" stop-color="#D0D0D0"/>
</linearGradient>
</defs>
</svg>
