<svg width="84" height="88" viewBox="0 0 84 88" fill="none" xmlns="http://www.w3.org/2000/svg">
<path d="M41.8607 49.885L49.0694 60.0118L44.3422 73.6011L55.1186 69.422L58.6226 74.9935L83.7302 58.2319L41.8607 49.885Z" fill="#407BFF"/>
<path d="M51.713 64.0384C51.5824 64.4586 44.3425 73.6012 44.3425 73.6012L55.1184 69.4224L51.713 64.0384Z" fill="#407BFF"/>
<g opacity="0.3">
<path opacity="0.3" d="M50.5287 63.8433C50.4839 64.2798 44.3416 74.0203 44.3416 74.0203L55.9243 69.1555L50.5287 63.8433Z" fill="black"/>
</g>
<path d="M83.7302 58.2319L51.7132 64.0384L44.342 73.6012L49.0693 60.012L83.7302 58.2319Z" fill="#407BFF"/>
<path opacity="0.4" d="M83.7302 58.2319L51.7132 64.0384L44.342 73.6012L49.0693 60.012L83.7302 58.2319Z" fill="black"/>
<path d="M29.1176 70.247C30.0046 70.2341 30.8872 70.3727 31.7276 70.657C32.6086 70.7651 33.4625 71.0328 34.2476 71.447C33.356 71.5641 32.4494 71.4752 31.5975 71.187C30.7073 71.0779 29.8565 70.7554 29.1176 70.247Z" fill="#263238"/>
<path d="M19.4375 66.097C21.1151 66.6475 22.7022 67.4427 24.1475 68.457C23.2547 68.3722 22.3947 68.0775 21.6375 67.597C20.3275 66.937 19.3575 66.227 19.4375 66.097Z" fill="#263238"/>
<path d="M11.0475 59.7365C11.1575 59.6265 12.0475 60.3765 13.1675 61.3165C14.2875 62.2565 15.1675 63.0565 15.0375 63.1865C14.1847 62.8852 13.4142 62.3887 12.7875 61.7365C11.6975 60.7765 10.9375 59.8365 11.0475 59.7365Z" fill="#263238"/>
<path d="M4.64734 51.3865C4.78734 51.3165 5.44735 52.2865 6.24734 53.4865C6.80751 54.1742 7.24708 54.9519 7.54736 55.7865C7.43736 55.8765 6.59735 55.0165 5.78735 53.7865C5.22295 53.0879 4.83225 52.2654 4.64734 51.3865Z" fill="#263238"/>
<path d="M1.01752 41.5167C1.44677 42.2922 1.74413 43.1337 1.89749 44.0067C2.23176 44.8309 2.41796 45.7077 2.44751 46.5967C1.90729 45.8768 1.54105 45.0417 1.3775 44.1567C1.04133 43.3199 0.917665 42.4129 1.01752 41.5167Z" fill="#263238"/>
<path d="M0.477354 31.0171C0.655794 31.8855 0.692923 32.7769 0.587339 33.6571C0.662686 34.5411 0.58145 35.4314 0.347349 36.2871C0.0421035 35.4427 -0.0639847 34.5392 0.0373514 33.6471C-0.0256067 32.748 0.125174 31.8468 0.477354 31.0171Z" fill="#263238"/>
<path d="M3.20752 20.8769C3.09995 21.7549 2.84998 22.6094 2.4675 23.4069C2.26371 24.2644 1.92625 25.0844 1.4675 25.8369C1.41869 24.936 1.60114 24.0375 1.9975 23.2269C2.20111 22.3559 2.61678 21.5486 3.20752 20.8769Z" fill="#263238"/>
<path d="M9.31751 12.3365C9.41751 12.4565 8.63751 13.3365 7.68751 14.4165C6.73751 15.4965 5.97751 16.4165 5.84751 16.3065C6.13132 15.45 6.62257 14.6771 7.27751 14.0565C8.24751 12.9365 9.21751 12.2265 9.31751 12.3365Z" fill="#263238"/>
<path d="M18.1375 6.65668C17.4618 7.22814 16.6988 7.68733 15.8774 8.01668C15.1388 8.50641 14.3246 8.87129 13.4674 9.09668C14.0484 8.40476 14.79 7.8657 15.6274 7.52667C16.3795 7.03408 17.2418 6.73521 18.1375 6.65668Z" fill="#263238"/>
<path d="M28.3975 4.44672C27.5608 4.75432 26.6787 4.91994 25.7875 4.93673C24.9224 5.13538 24.0309 5.19279 23.1474 5.10673C23.9324 4.6617 24.8153 4.4178 25.7175 4.39674C26.6005 4.18528 27.5229 4.20247 28.3975 4.44672Z" fill="#263238"/>
<path d="M38.6975 6.39648C36.9876 6.04045 35.3139 5.52829 33.6975 4.86647C34.5938 4.75469 35.5038 4.87878 36.3375 5.22647C37.2132 5.40264 38.0271 5.80616 38.6975 6.39648Z" fill="#263238"/>
<path d="M45.9976 13.637C45.8476 13.687 45.3876 12.637 44.5676 11.457C43.7476 10.277 42.9576 9.45695 43.0676 9.30695C43.1776 9.15695 44.1575 9.90696 45.0175 11.137C45.6225 11.8325 45.9687 12.7156 45.9976 13.637Z" fill="#263238"/>
<path d="M41.5575 21.8264C41.5575 21.6664 42.6475 21.3164 43.7875 20.5064C44.9275 19.6964 45.5375 18.6864 45.6775 18.7664C45.8175 18.8464 45.3775 20.0463 44.1075 20.9463C43.4005 21.5536 42.4885 21.8684 41.5575 21.8264Z" fill="#263238"/>
<path d="M32.5174 18.0764C32.6574 17.9964 33.2974 18.9764 34.3374 19.9364C35.3774 20.8964 36.4374 21.3764 36.3374 21.5264C35.4084 21.4532 34.5426 21.0274 33.9174 20.3364C33.1992 19.7714 32.7034 18.9711 32.5174 18.0764Z" fill="#263238"/>
<path d="M32.1775 7.86659C32.1033 8.73787 31.9391 9.59914 31.6875 10.4366C31.6127 11.3111 31.4485 12.1756 31.1975 13.0166C30.9291 12.1434 30.9291 11.2098 31.1975 10.3366C31.2662 9.43295 31.608 8.57155 32.1775 7.86659Z" fill="#263238"/>
<path d="M39.0275 0.016371C39.1175 0.146371 38.2075 0.896369 37.1175 1.82637C36.0275 2.75637 35.1175 3.55637 35.0475 3.45637C34.9775 3.35637 35.6275 2.37637 36.7575 1.45637C37.8875 0.536373 38.9475 -0.113629 39.0275 0.016371Z" fill="#263238"/>
</svg>
