<svg width="421" height="315" viewBox="0 0 421 315" fill="none" xmlns="http://www.w3.org/2000/svg">
<path d="M421 275.981H0V276.191H421V275.981Z" fill="#EBEBEB"/>
<path d="M199.554 238.428H36.9723C35.6986 238.425 34.4779 237.918 33.5781 237.017C32.6782 236.115 32.1728 234.894 32.1729 233.62V5.07578C32.1839 3.80943 32.6942 2.5986 33.5928 1.70628C34.4915 0.81396 35.7059 0.312228 36.9723 0.310059H199.554C200.829 0.310059 202.052 0.816596 202.954 1.71824C203.855 2.61988 204.362 3.84276 204.362 5.11788V233.62C204.362 234.895 203.855 236.118 202.954 237.02C202.052 237.921 200.829 238.428 199.554 238.428ZM36.9723 0.478459C35.7544 0.48069 34.5872 0.966031 33.7269 1.82795C32.8666 2.68988 32.3833 3.85795 32.3834 5.07578V233.62C32.3833 234.838 32.8666 236.006 33.7269 236.868C34.5872 237.73 35.7544 238.215 36.9723 238.217H199.554C200.773 238.215 201.941 237.73 202.802 236.868C203.664 236.007 204.149 234.838 204.151 233.62V5.07578C204.149 3.85718 203.664 2.68912 202.802 1.82744C201.941 0.965758 200.773 0.480685 199.554 0.478459H36.9723Z" fill="#EBEBEB"/>
<path d="M381.687 238.428H219.097C217.822 238.425 216.601 237.918 215.7 237.017C214.799 236.116 214.291 234.894 214.289 233.62V5.07578C214.302 3.80866 214.814 2.59784 215.714 1.70575C216.614 0.813666 217.83 0.312204 219.097 0.310059H381.687C382.952 0.314441 384.164 0.817152 385.061 1.70923C385.958 2.60131 386.467 3.81089 386.478 5.07578V233.62C386.478 234.892 385.974 236.112 385.076 237.014C384.178 237.915 382.959 238.423 381.687 238.428ZM219.097 0.478459C217.878 0.480685 216.71 0.965758 215.849 1.82744C214.987 2.68912 214.502 3.85718 214.5 5.07578V233.62C214.502 234.838 214.987 236.007 215.849 236.868C216.71 237.73 217.878 238.215 219.097 238.217H381.687C382.906 238.215 384.074 237.73 384.935 236.868C385.797 236.007 386.282 234.838 386.284 233.62V5.07578C386.282 3.85718 385.797 2.68912 384.935 1.82744C384.074 0.965758 382.906 0.480685 381.687 0.478459H219.097Z" fill="#EBEBEB"/>
<path d="M378.816 289.529H356.924V289.739H378.816V289.529Z" fill="#EBEBEB"/>
<path d="M299.777 291.819H261.862V292.029H299.777V291.819Z" fill="#EBEBEB"/>
<path d="M356.082 281.715H304.896V281.925H356.082V281.715Z" fill="#EBEBEB"/>
<path d="M60.363 283.129H44.1714V283.34H60.363V283.129Z" fill="#EBEBEB"/>
<path d="M114.419 283.129H67.8652V283.34H114.419V283.129Z" fill="#EBEBEB"/>
<path d="M205.566 286.683H142.862V286.893H205.566V286.683Z" fill="#EBEBEB"/>
<path d="M56.7845 214.195H38.9341V275.981H56.7845V214.195Z" fill="#FAFAFA"/>
<path d="M72.4119 227.751H54.5615V275.981H72.4119V227.751Z" fill="#FAFAFA"/>
<path d="M83.8294 188.009H65.979V275.981H83.8294V188.009Z" fill="#FAFAFA"/>
<path d="M95.6932 116.674H77.8428V275.981H95.6932V116.674Z" fill="#FAFAFA"/>
<path d="M139.848 129.077H91.9463V275.981H139.848V129.077Z" fill="#FAFAFA"/>
<path d="M326.09 275.981H346.483V233.696H326.09V275.981Z" fill="#FAFAFA"/>
<path d="M308.222 275.981H328.616V242.974H308.222V275.981Z" fill="#FAFAFA"/>
<path d="M295.188 275.981H315.582V215.769H295.188V275.981Z" fill="#FAFAFA"/>
<path d="M281.632 275.981H302.025V166.95H281.632V275.981Z" fill="#FAFAFA"/>
<path d="M292.595 142.785H230.009V275.981H292.595V142.785Z" fill="#F0F0F0"/>
<path d="M286.634 148.367H283.653V164.576H286.634V148.367Z" fill="#F5F5F5"/>
<path d="M286.634 173.72H283.653V189.928H286.634V173.72Z" fill="#F5F5F5"/>
<path d="M286.634 199.064H283.653V215.273H286.634V199.064Z" fill="#F5F5F5"/>
<path d="M286.634 224.408H283.653V240.617H286.634V224.408Z" fill="#F5F5F5"/>
<path d="M286.634 249.761H283.653V265.969H286.634V249.761Z" fill="#F5F5F5"/>
<path d="M276.075 148.367H273.094V164.576H276.075V148.367Z" fill="#F5F5F5"/>
<path d="M276.075 173.72H273.094V189.928H276.075V173.72Z" fill="#F5F5F5"/>
<path d="M276.075 199.064H273.094V215.273H276.075V199.064Z" fill="#F5F5F5"/>
<path d="M276.075 224.408H273.094V240.617H276.075V224.408Z" fill="#F5F5F5"/>
<path d="M276.075 249.761H273.094V265.969H276.075V249.761Z" fill="#F5F5F5"/>
<path d="M265.516 148.367H262.536V164.576H265.516V148.367Z" fill="#F5F5F5"/>
<path d="M265.516 173.72H262.536V189.928H265.516V173.72Z" fill="#F5F5F5"/>
<path d="M265.516 199.064H262.536V215.273H265.516V199.064Z" fill="#F5F5F5"/>
<path d="M265.516 224.408H262.536V240.617H265.516V224.408Z" fill="#F5F5F5"/>
<path d="M265.516 249.761H262.536V265.969H265.516V249.761Z" fill="#F5F5F5"/>
<path d="M254.958 148.367H251.977V164.576H254.958V148.367Z" fill="#F5F5F5"/>
<path d="M254.958 173.72H251.977V189.928H254.958V173.72Z" fill="#F5F5F5"/>
<path d="M254.958 199.064H251.977V215.273H254.958V199.064Z" fill="#F5F5F5"/>
<path d="M254.958 224.408H251.977V240.617H254.958V224.408Z" fill="#F5F5F5"/>
<path d="M254.958 249.761H251.977V265.969H254.958V249.761Z" fill="#F5F5F5"/>
<path d="M244.39 148.367H241.41V164.576H244.39V148.367Z" fill="#F5F5F5"/>
<path d="M244.39 173.72H241.41V189.928H244.39V173.72Z" fill="#F5F5F5"/>
<path d="M244.39 199.064H241.41V215.273H244.39V199.064Z" fill="#F5F5F5"/>
<path d="M244.39 224.408H241.41V240.617H244.39V224.408Z" fill="#F5F5F5"/>
<path d="M244.39 249.761H241.41V265.969H244.39V249.761Z" fill="#F5F5F5"/>
<path opacity="0.5" d="M230.009 142.785H242.9L248.508 275.981H230.009V142.785Z" fill="#E0E0E0"/>
<path d="M199.242 91.3218L236.358 98.3441V275.981H199.242V91.3218Z" fill="#F0F0F0"/>
<path d="M199.243 91.3218H169.545V275.981H199.243V91.3218Z" fill="#E6E6E6"/>
<path d="M169.545 107.572L236.358 107.572V106.629L169.545 106.629V107.572Z" fill="#E0E0E0"/>
<path d="M169.545 117.626L236.358 117.626V116.683L169.545 116.683V117.626Z" fill="#E0E0E0"/>
<path d="M169.545 127.679L236.358 127.679V126.736L169.545 126.736V127.679Z" fill="#E0E0E0"/>
<path d="M169.545 137.724H236.358V136.781H169.545V137.724Z" fill="#E0E0E0"/>
<path d="M169.545 147.786H236.358V146.843H169.545V147.786Z" fill="#E0E0E0"/>
<path d="M169.545 157.84H236.358V156.897H169.545V157.84Z" fill="#E0E0E0"/>
<path d="M169.545 167.893H236.358V166.95H169.545V167.893Z" fill="#E0E0E0"/>
<path d="M169.545 177.947H236.358V177.004H169.545V177.947Z" fill="#E0E0E0"/>
<path d="M169.545 188.009H236.358V187.066H169.545V188.009Z" fill="#E0E0E0"/>
<path d="M169.545 198.062H236.358V197.119H169.545V198.062Z" fill="#E0E0E0"/>
<path d="M169.545 208.116H236.358V207.173H169.545V208.116Z" fill="#E0E0E0"/>
<path d="M169.545 218.161H236.358V217.218H169.545V218.161Z" fill="#E0E0E0"/>
<path d="M169.545 228.223H236.358V227.28H169.545V228.223Z" fill="#E0E0E0"/>
<path d="M169.545 238.276H236.358V237.333H169.545V238.276Z" fill="#E0E0E0"/>
<path d="M169.545 248.33H236.358V247.387H169.545V248.33Z" fill="#E0E0E0"/>
<path d="M169.545 258.383H236.358V257.44H169.545V258.383Z" fill="#E0E0E0"/>
<path d="M169.545 268.445H236.358V267.502H169.545V268.445Z" fill="#E0E0E0"/>
<path d="M153.303 52.0762H122.258V275.981H153.303V52.0762Z" fill="#F0F0F0"/>
<path d="M153.303 52.0762H122.258L133.684 32.306H178.142L153.303 52.0762Z" fill="#FAFAFA"/>
<path d="M153.303 52.0762L178.142 32.306V275.981H153.303V52.0762Z" fill="#EBEBEB"/>
<path d="M178.142 62.5085H122.258V63.7042H178.142V62.5085Z" fill="#E0E0E0"/>
<path d="M178.142 75.1807H122.258V76.3763H178.142V75.1807Z" fill="#E0E0E0"/>
<path d="M178.142 87.8528H122.258V89.0484H178.142V87.8528Z" fill="#E0E0E0"/>
<path d="M178.142 100.533H122.258V101.729H178.142V100.533Z" fill="#E0E0E0"/>
<path d="M178.142 113.205H122.258V114.401H178.142V113.205Z" fill="#E0E0E0"/>
<path d="M178.142 125.878H122.258V127.073H178.142V125.878Z" fill="#E0E0E0"/>
<path d="M178.142 138.55H122.258V139.745H178.142V138.55Z" fill="#E0E0E0"/>
<path d="M178.142 151.222H122.258V152.417H178.142V151.222Z" fill="#E0E0E0"/>
<path d="M178.142 163.894H122.258V165.089H178.142V163.894Z" fill="#E0E0E0"/>
<path d="M178.142 176.574H122.258V177.77H178.142V176.574Z" fill="#E0E0E0"/>
<path d="M178.142 189.246H122.258V190.442H178.142V189.246Z" fill="#E0E0E0"/>
<path d="M178.142 201.919H122.258V203.114H178.142V201.919Z" fill="#E0E0E0"/>
<path d="M178.142 214.591H122.258V215.786H178.142V214.591Z" fill="#E0E0E0"/>
<path d="M178.142 227.263H122.258V228.458H178.142V227.263Z" fill="#E0E0E0"/>
<path d="M178.142 239.935H122.258V241.13H178.142V239.935Z" fill="#E0E0E0"/>
<path d="M178.142 252.615H122.258V253.811H178.142V252.615Z" fill="#E0E0E0"/>
<path d="M178.142 265.287H122.258V266.483H178.142V265.287Z" fill="#E0E0E0"/>
<path d="M116.87 160.425H82.979V275.981H116.87V160.425Z" fill="#F0F0F0"/>
<path d="M95.087 166.395H89.6477V184.944H95.087V166.395Z" fill="#E6E6E6"/>
<path d="M108.433 166.395H102.993V184.944H108.433V166.395Z" fill="#E6E6E6"/>
<path d="M95.087 190.417H89.6477V208.966H95.087V190.417Z" fill="#E6E6E6"/>
<path d="M108.433 190.417H102.993V208.966H108.433V190.417Z" fill="#E6E6E6"/>
<path d="M95.087 214.431H89.6477V232.98H95.087V214.431Z" fill="#E6E6E6"/>
<path d="M108.433 214.431H102.993V232.98H108.433V214.431Z" fill="#E6E6E6"/>
<path d="M95.087 238.453H89.6477V257.002H95.087V238.453Z" fill="#E6E6E6"/>
<path d="M108.433 238.453H102.993V257.002H108.433V238.453Z" fill="#E6E6E6"/>
<path d="M116.861 160.425H82.979L90.9275 152.417H124.818L116.861 160.425Z" fill="white"/>
<path d="M116.861 160.425L124.818 152.417L132.767 160.425V275.981H116.861V160.425Z" fill="#E6E6E6"/>
<path d="M210.5 314.005C300.663 314.005 373.755 309.738 373.755 304.474C373.755 299.21 300.663 294.943 210.5 294.943C120.337 294.943 47.2446 299.21 47.2446 304.474C47.2446 309.738 120.337 314.005 210.5 314.005Z" fill="#F5F5F5"/>
<path d="M351.072 50.4763H243.692C239.372 50.4763 235.869 53.9784 235.869 58.2985V296.643C235.869 300.964 239.372 304.466 243.692 304.466H351.072C355.392 304.466 358.894 300.964 358.894 296.643V58.2985C358.894 53.9784 355.392 50.4763 351.072 50.4763Z" fill="#B0C7FF"/>
<path d="M346.205 50.4763H238.825C234.505 50.4763 231.003 53.9784 231.003 58.2985V296.643C231.003 300.964 234.505 304.466 238.825 304.466H346.205C350.525 304.466 354.027 300.964 354.027 296.643V58.2985C354.027 53.9784 350.525 50.4763 346.205 50.4763Z" fill="#B0C7FF"/>
<path opacity="0.7" d="M346.205 50.4763H238.825C234.505 50.4763 231.003 53.9784 231.003 58.2985V296.643C231.003 300.963 234.505 304.466 238.825 304.466H346.205C350.525 304.466 354.027 300.963 354.027 296.643V58.2985C354.027 53.9784 350.525 50.4763 346.205 50.4763Z" fill="white"/>
<g opacity="0.9">
<path opacity="0.9" d="M255.699 50.4763H249.038V304.466H255.699V50.4763Z" fill="white"/>
<path opacity="0.9" d="M326.165 50.4763H322.082V304.466H326.165V50.4763Z" fill="white"/>
<path opacity="0.9" d="M231.003 105.644V112.304L354.027 104.684V98.024L231.003 105.644Z" fill="white"/>
<path opacity="0.9" d="M231.011 262.989V269.649H354.036V262.989H231.011Z" fill="white"/>
<path opacity="0.9" d="M231.003 138.895V142.524H354.027V138.895H231.003Z" fill="white"/>
<path opacity="0.9" d="M231.003 224.753V232.382L354.027 190.754V183.125L231.003 224.753Z" fill="white"/>
<path opacity="0.9" d="M274.122 50.4763H267.461L285.362 304.474H292.023L274.122 50.4763Z" fill="white"/>
</g>
<path d="M332.59 278.414H186.124V232.761H315.228L327.277 242.553C328.942 243.905 330.284 245.612 331.203 247.55C332.123 249.488 332.597 251.607 332.59 253.752V278.414Z" fill="#0463F1"/>
<path opacity="0.5" d="M332.59 278.414H186.124V232.761H315.228L327.277 242.553C328.942 243.905 330.284 245.612 331.203 247.55C332.123 249.488 332.597 251.607 332.59 253.752V278.414Z" fill="black"/>
<path d="M185.282 274.297C185.282 257.634 192.86 244.128 202.122 244.128H184.255C174.934 244.128 167.415 257.6 167.415 274.297C167.415 290.994 174.993 304.474 184.255 304.474H202.156C192.818 304.474 185.282 290.96 185.282 274.297Z" fill="#263238"/>
<path d="M202.156 304.466C211.475 304.466 219.029 290.959 219.029 274.297C219.029 257.635 211.475 244.128 202.156 244.128C192.837 244.128 185.282 257.635 185.282 274.297C185.282 290.959 192.837 304.466 202.156 304.466Z" fill="#263238"/>
<path d="M203.511 297.822C210.119 297.822 215.476 287.289 215.476 274.297C215.476 261.304 210.119 250.771 203.511 250.771C196.903 250.771 191.546 261.304 191.546 274.297C191.546 287.289 196.903 297.822 203.511 297.822Z" fill="white"/>
<path d="M88.0225 274.297C88.0225 257.634 95.6005 244.128 104.863 244.128H86.9953C77.6743 244.128 70.1553 257.6 70.1553 274.297C70.1553 290.994 77.7333 304.474 86.9953 304.474H104.896C95.5753 304.474 88.0225 290.96 88.0225 274.297Z" fill="#263238"/>
<path d="M104.896 304.466C114.215 304.466 121.77 290.959 121.77 274.297C121.77 257.635 114.215 244.128 104.896 244.128C95.5771 244.128 88.0225 257.635 88.0225 274.297C88.0225 290.959 95.5771 304.466 104.896 304.466Z" fill="#263238"/>
<path d="M300.914 274.297C300.914 257.634 308.492 244.128 317.754 244.128H299.886C290.574 244.128 283.046 257.6 283.046 274.297C283.046 290.994 290.624 304.474 299.886 304.474H317.787C308.475 304.474 300.914 290.96 300.914 274.297Z" fill="#263238"/>
<path d="M317.787 304.466C327.107 304.466 334.661 290.959 334.661 274.297C334.661 257.635 327.107 244.128 317.787 244.128C308.468 244.128 300.914 257.635 300.914 274.297C300.914 290.959 308.468 304.466 317.787 304.466Z" fill="#263238"/>
<path d="M319.151 297.822C325.759 297.822 331.116 287.289 331.116 274.297C331.116 261.304 325.759 250.771 319.151 250.771C312.543 250.771 307.187 261.304 307.187 274.297C307.187 287.289 312.543 297.822 319.151 297.822Z" fill="white"/>
<path d="M165.343 282.717H143.696L142.483 281.538C141.238 280.29 139.548 279.587 137.785 279.584H83.6778C81.9147 279.587 80.2248 280.29 78.9794 281.538L78.2385 282.27H76.2682C74.7373 282.27 73.2215 281.968 71.8079 281.38C70.3943 280.793 69.1107 279.932 68.031 278.846C66.9512 277.761 66.0966 276.473 65.5161 275.057C64.9356 273.64 64.6408 272.123 64.6486 270.592V252.784H187.429L177.662 274.019C176.761 276.565 175.092 278.769 172.886 280.327C170.68 281.885 168.044 282.72 165.343 282.717Z" fill="#0463F1"/>
<path opacity="0.2" d="M165.343 282.717H143.696L142.483 281.538C141.238 280.29 139.548 279.587 137.785 279.584H83.6778C81.9147 279.587 80.2248 280.29 78.9794 281.538L78.2385 282.27H76.2682C74.7373 282.27 73.2215 281.968 71.8079 281.38C70.3943 280.793 69.1107 279.932 68.031 278.846C66.9512 277.761 66.0966 276.473 65.5161 275.057C64.9356 273.64 64.6408 272.123 64.6486 270.592V252.784H187.429L177.662 274.019C176.761 276.565 175.092 278.769 172.886 280.327C170.68 281.885 168.044 282.72 165.343 282.717Z" fill="black"/>
<path d="M324.237 227.128V215.643C324.237 209.606 315.464 181.121 303.398 175.783C291.332 170.444 262.14 168.07 243.751 169.047C225.361 170.023 200.809 208.486 200.809 208.486L203.478 241.56C207.216 241.56 219.122 240.432 220.865 273.152C220.982 275.458 221.982 277.632 223.657 279.221C225.333 280.811 227.556 281.695 229.866 281.69H294.245C296.408 281.688 298.497 280.905 300.128 279.484C301.759 278.064 302.821 276.102 303.12 273.96C304.804 262.298 309.199 241.535 319.8 241.535C327.235 241.535 332.565 247.9 332.565 255.2C332.567 247.18 330.619 239.28 326.89 232.18L324.237 227.128Z" fill="#0463F1"/>
<path d="M176.39 169.047C142.904 169.047 104.964 208.486 104.964 208.486H200.842C200.842 208.486 225.37 170.032 243.784 169.047H176.39Z" fill="#0463F1"/>
<path opacity="0.4" d="M178.445 169.047C150.238 169.047 120.65 197.035 112.019 205.851C111.805 206.069 111.66 206.345 111.603 206.646C111.545 206.946 111.578 207.257 111.697 207.539C111.816 207.821 112.015 208.061 112.27 208.23C112.526 208.398 112.825 208.487 113.131 208.486H190.477C193.59 208.495 196.662 207.769 199.441 206.367C202.221 204.966 204.631 202.928 206.475 200.42C214.794 189.086 230.817 169.746 243.784 169.047H178.445Z" fill="white"/>
<path d="M200.842 208.486L165.427 236.432L70.1214 236.129C70.1214 236.129 64.6484 244.086 64.6484 252.784H187.429C189.441 247.454 196.497 241.56 203.511 241.56C203.511 231.641 200.842 208.486 200.842 208.486Z" fill="#0463F1"/>
<path opacity="0.2" d="M177.662 228.197C177.561 228.196 177.464 228.159 177.388 228.093C177.313 228.026 177.263 227.935 177.249 227.835C177.235 227.726 177.264 227.615 177.33 227.527C177.396 227.439 177.494 227.38 177.603 227.364C186.104 225.985 194.059 222.285 200.59 216.67C201.881 215.584 202.721 214.056 202.947 212.385C203.172 210.713 202.767 209.017 201.81 207.627C201.775 207.582 201.75 207.53 201.736 207.475C201.721 207.42 201.718 207.362 201.727 207.306C201.736 207.249 201.756 207.195 201.786 207.146C201.816 207.098 201.856 207.056 201.903 207.024C201.95 206.991 202.003 206.968 202.059 206.957C202.115 206.945 202.172 206.945 202.228 206.957C202.284 206.969 202.337 206.991 202.384 207.024C202.431 207.057 202.471 207.099 202.501 207.147C203.574 208.71 204.028 210.615 203.774 212.493C203.521 214.372 202.577 216.089 201.128 217.31C194.484 223.029 186.384 226.794 177.729 228.189L177.662 228.197Z" fill="black"/>
<path d="M70.1216 236.129C70.1216 236.129 86.8605 216.62 104.964 208.486H200.842L165.428 236.432L70.1216 236.129Z" fill="#0463F1"/>
<path d="M144.26 236.129H81.3877V237.956H144.26V236.129Z" fill="#6FB6D9"/>
<path d="M142.955 232.475L146.323 229.107C147.08 228.35 148.038 227.827 149.084 227.599L174.521 222.059C175.415 221.863 176.344 221.892 177.224 222.143L178.588 222.522C179.496 222.778 180.325 223.259 180.997 223.922C181.669 224.584 182.162 225.406 182.431 226.31C182.7 227.214 182.736 228.172 182.535 229.094C182.334 230.016 181.903 230.872 181.282 231.582L175.809 237.838C174.866 238.914 173.546 239.589 172.121 239.724L147.426 241.964C146.61 242.042 145.787 241.939 145.016 241.662C144.244 241.386 143.544 240.942 142.963 240.364C141.919 239.317 141.331 237.9 141.33 236.421C141.328 234.942 141.912 233.524 142.955 232.475Z" fill="white"/>
<path d="M83.1642 234.26L80.3771 229.048C79.9848 228.318 79.4031 227.707 78.6931 227.279C78.0188 226.875 77.2518 226.651 76.4657 226.629C75.6797 226.607 74.9013 226.787 74.2053 227.153L72.0919 228.265C71.0539 228.814 70.2648 229.738 69.8858 230.85L68.5976 234.664C68.3833 235.292 68.3078 235.959 68.3763 236.619C68.4447 237.279 68.6555 237.916 68.9941 238.487C69.3326 239.057 69.7909 239.548 70.3374 239.924C70.8838 240.301 71.5054 240.554 72.1592 240.667L77.9774 241.669C78.9264 241.833 79.903 241.695 80.7689 241.273C81.6349 240.852 82.3461 240.168 82.8021 239.32L83.1894 238.604C83.5459 237.935 83.7303 237.187 83.7259 236.429C83.7214 235.67 83.5284 234.925 83.1642 234.26Z" fill="white"/>
<path opacity="0.4" d="M220.427 209.606H309.073C309.824 209.606 310.565 209.431 311.237 209.094C311.908 208.756 312.492 208.266 312.94 207.663C313.389 207.06 313.69 206.361 313.819 205.62C313.949 204.88 313.904 204.12 313.687 203.4C311.666 196.664 307.793 186.131 301.975 180.759C301.328 180.167 300.534 179.76 299.676 179.58C289.227 177.366 272.429 175.892 259.967 175.033C254.319 174.647 248.654 175.488 243.361 177.5C238.069 179.512 233.276 182.646 229.31 186.687C224.569 191.476 220.287 196.7 216.52 202.289C216.048 202.997 215.777 203.82 215.736 204.67C215.694 205.52 215.884 206.365 216.285 207.116C216.686 207.867 217.283 208.495 218.012 208.933C218.741 209.372 219.576 209.604 220.427 209.606Z" fill="white"/>
<path d="M163.112 262.652C163.112 265.414 160.283 267.662 156.797 267.662C153.311 267.662 150.482 265.414 150.482 262.652C150.482 259.89 153.303 257.65 156.797 257.65C160.291 257.65 163.112 259.89 163.112 262.652Z" fill="#6FB6D9"/>
<path d="M112.23 232.306C114.301 232.306 115.312 234.428 114.487 237.038C113.661 239.648 111.321 241.779 109.241 241.779C107.161 241.779 106.159 239.657 106.984 237.038C107.809 234.42 110.159 232.306 112.23 232.306Z" fill="#6FB6D9"/>
<path d="M69.7428 262.652C69.7428 265.414 68.9008 267.662 67.9662 267.662C67.0316 267.662 66.1812 265.414 66.1812 262.652C66.1812 259.89 67.0232 257.65 67.9662 257.65C68.9092 257.65 69.7428 259.89 69.7428 262.652Z" fill="#6FB6D9"/>
<path d="M217.699 208.806V205.968C217.698 205.154 217.879 204.35 218.228 203.614C218.577 202.879 219.086 202.23 219.718 201.717C220.35 201.203 221.088 200.836 221.879 200.644C222.671 200.452 223.495 200.438 224.292 200.605L235.086 202.853C236.319 203.11 237.425 203.784 238.219 204.761C239.013 205.737 239.447 206.958 239.448 208.217V208.806C239.448 210.258 238.872 211.651 237.845 212.679C236.819 213.707 235.427 214.285 233.975 214.287H223.18C221.727 214.287 220.332 213.71 219.304 212.682C218.276 211.654 217.699 210.26 217.699 208.806Z" fill="#224C62"/>
<path d="M274.492 176.212C274.492 176.212 273.052 176.069 270.543 175.85C281.641 198.584 278.811 209.606 278.811 209.606H287.282C287.366 195.763 274.492 176.212 274.492 176.212Z" fill="#224C62"/>
<path opacity="0.2" d="M180.895 199.426C180.724 201.213 179.893 202.872 178.565 204.08C177.238 205.287 175.508 205.958 173.713 205.96H130.072C126.889 205.96 125.736 202.407 128.043 199.763C132.206 195.022 136.727 190.609 141.565 186.56C149.783 179.639 159.988 176.044 169.528 176.709L173.132 176.97C174.687 177.091 176.162 177.712 177.336 178.739C178.51 179.766 179.322 181.145 179.649 182.67C180.922 188.158 181.343 193.81 180.895 199.426Z" fill="#0463F1"/>
<path opacity="0.2" d="M279.822 275.703C279.71 275.703 279.603 275.659 279.524 275.58C279.445 275.501 279.401 275.394 279.401 275.282C279.401 266.761 283.746 231.624 284.882 226.362C285.985 221.251 285.985 215.542 284.882 211.829C284.851 211.722 284.864 211.606 284.917 211.509C284.971 211.411 285.061 211.338 285.169 211.307C285.276 211.278 285.39 211.291 285.487 211.345C285.585 211.398 285.657 211.487 285.691 211.593C286.827 215.433 286.827 221.301 285.691 226.539C284.554 231.776 280.226 266.795 280.226 275.282C280.226 275.391 280.184 275.495 280.109 275.574C280.033 275.652 279.931 275.699 279.822 275.703Z" fill="black"/>
<path opacity="0.2" d="M278.702 226.808H268.438C268.243 226.814 268.05 226.776 267.872 226.695C267.695 226.615 267.538 226.495 267.414 226.344C267.291 226.194 267.203 226.017 267.159 225.827C267.114 225.637 267.114 225.44 267.158 225.25L267.369 224.063C267.453 223.636 267.68 223.249 268.012 222.967C268.343 222.684 268.76 222.522 269.196 222.505H279.46C279.654 222.499 279.848 222.537 280.025 222.618C280.203 222.698 280.36 222.818 280.483 222.969C280.607 223.119 280.694 223.296 280.739 223.486C280.783 223.676 280.783 223.873 280.739 224.063L280.529 225.25C280.444 225.678 280.217 226.064 279.886 226.346C279.554 226.629 279.137 226.792 278.702 226.808Z" fill="black"/>
<path d="M286.701 79.1296C281.372 79.1319 276.262 81.2504 272.495 85.0193C268.727 88.7883 266.611 93.8992 266.611 99.2282C266.611 118.594 286.701 131.864 286.701 131.864C286.701 131.864 306.808 118.586 306.808 99.2282C306.806 93.8969 304.686 88.7848 300.916 85.0159C297.145 81.2469 292.032 79.1296 286.701 79.1296ZM286.701 108.692C284.846 108.691 283.033 108.139 281.492 107.107C279.951 106.076 278.75 104.61 278.041 102.896C277.332 101.182 277.148 99.2963 277.511 97.4773C277.874 95.6583 278.768 93.9878 280.08 92.6768C281.392 91.3659 283.063 90.4734 284.883 90.1121C286.702 89.7509 288.587 89.9371 290.301 90.6473C292.014 91.3575 293.479 92.5597 294.509 94.1021C295.539 95.6444 296.089 97.4576 296.089 99.3124C296.089 100.545 295.846 101.765 295.374 102.904C294.903 104.042 294.211 105.077 293.339 105.948C292.467 106.819 291.432 107.51 290.293 107.981C289.154 108.452 287.933 108.693 286.701 108.692Z" fill="#DE0085"/>
<path d="M250.891 303.194L255.976 303.11L257.441 291.322L252.364 291.406L250.891 303.194Z" fill="#FFBCB6"/>
<path d="M275.166 302.815L280.1 301.308L277.035 290.135L272.101 291.651L275.166 302.815Z" fill="#FFBCB6"/>
<path d="M279.948 299.826L274.442 302.664C274.352 302.712 274.282 302.789 274.242 302.882C274.202 302.976 274.195 303.08 274.223 303.178L275.401 307.649C275.43 307.757 275.483 307.858 275.556 307.943C275.629 308.028 275.721 308.095 275.824 308.14C275.926 308.185 276.038 308.205 276.15 308.2C276.262 308.195 276.372 308.165 276.471 308.112C278.231 307.169 279.468 306.428 281.7 305.24C283.072 304.533 287.282 302.546 289.177 301.561C291.071 300.576 290.355 298.58 289.496 298.816C285.623 299.852 282.457 300.155 280.824 299.725C280.53 299.648 280.217 299.684 279.948 299.826Z" fill="#233A45"/>
<path d="M256.077 302.521L250.529 302.613C250.429 302.615 250.332 302.652 250.256 302.716C250.179 302.78 250.127 302.869 250.108 302.967L249.173 307.497C249.149 307.606 249.149 307.72 249.176 307.829C249.202 307.938 249.253 308.039 249.324 308.125C249.396 308.212 249.486 308.28 249.588 308.326C249.691 308.372 249.802 308.394 249.914 308.39C251.918 308.322 254.806 308.162 257.324 308.12C260.262 308.078 261.121 308.196 264.573 308.12C266.653 308.12 267.2 305.965 266.325 305.788C262.334 304.946 260.776 304.946 257.315 302.874C256.94 302.652 256.514 302.53 256.077 302.521Z" fill="#233A45"/>
<path d="M263.799 148.544C264.952 150.86 266.257 153.31 267.562 155.642C268.867 157.975 270.248 160.299 271.722 162.479C272.101 163.018 272.454 163.582 272.842 164.096L273.793 165.393C273.987 165.645 274.096 165.763 274.13 165.822C274.164 165.881 274.18 165.965 274.425 165.982C275.319 165.82 276.15 165.412 276.824 164.803C277.287 164.45 277.759 164.045 278.222 163.616C278.685 163.187 279.148 162.69 279.552 162.294L282.912 164.163C282.632 164.907 282.3 165.63 281.918 166.327C281.542 167.041 281.109 167.722 280.622 168.365C280.104 169.067 279.511 169.711 278.854 170.285C278.073 170.979 277.167 171.519 276.184 171.876C274.954 172.325 273.617 172.398 272.345 172.087C271.152 171.794 270.048 171.216 269.128 170.403C268.925 170.231 268.731 170.048 268.547 169.855L268.278 169.577L268.084 169.358L267.343 168.516C266.847 167.952 266.392 167.371 265.92 166.832C264.122 164.52 262.463 162.102 260.953 159.591C260.212 158.345 259.479 157.065 258.805 155.811C258.132 154.556 257.475 153.285 256.852 151.862L263.799 148.544Z" fill="#FFBCB6"/>
<path d="M254.688 148.578C253.316 153.242 262.957 165.948 262.957 165.948L272.682 159.692C270.852 155.651 268.593 151.818 265.946 148.258C261.963 143.181 256.187 143.45 254.688 148.578Z" fill="#FFA722"/>
<g opacity="0.2">
<path opacity="0.2" d="M254.688 148.578C253.316 153.242 262.957 165.948 262.957 165.948L272.682 159.692C270.852 155.651 268.593 151.818 265.946 148.258C261.963 143.181 256.187 143.45 254.688 148.578Z" fill="black"/>
</g>
<path opacity="0.2" d="M260.616 154.051C262.611 154.893 265.558 159.726 267.091 163.313L262.965 165.965C260.656 162.883 258.582 159.632 256.76 156.24C258.065 154.792 259.555 153.605 260.616 154.051Z" fill="black"/>
<path d="M278.971 163.203L282.491 157.511L285.564 162.42C284.825 163.73 283.624 164.718 282.196 165.191L278.971 163.203Z" fill="#FFBCB6"/>
<path d="M287.4 157.57V159.33C287.4 159.88 287.21 160.412 286.861 160.837L285.581 162.42L282.508 157.511L285.682 156.358C285.876 156.289 286.084 156.268 286.288 156.296C286.492 156.325 286.686 156.401 286.854 156.52C287.023 156.639 287.16 156.796 287.255 156.979C287.35 157.162 287.399 157.364 287.4 157.57Z" fill="#FFBCB6"/>
<path d="M283.965 164.845L278.424 164.761L281.489 153.285L287.03 153.369L283.965 164.845Z" fill="#FFA722"/>
<path d="M284.529 164.845L278.988 164.761L282.053 153.285L287.594 153.369L284.529 164.845Z" fill="#233A45"/>
<path opacity="0.2" d="M257.442 291.331L256.684 297.401L251.598 297.486L252.356 291.406L257.442 291.331Z" fill="black"/>
<path opacity="0.2" d="M272.101 291.65L277.043 290.135L278.618 295.894L273.675 297.41L272.101 291.65Z" fill="black"/>
<path d="M233.234 151.028C237.385 168.895 236.484 186.619 236.939 190.442L264.043 188.421C266.644 159.381 260.481 144.637 260.481 144.637C260.481 144.637 258.738 144.3 256.372 144.056C255.631 143.981 254.823 143.913 253.989 143.871C253.526 143.871 253.063 143.829 252.583 143.821C248.731 143.88 244.885 144.162 241.065 144.663C240.34 144.755 239.608 144.856 238.892 144.974L236.972 145.328H236.897C236.276 145.451 235.687 145.698 235.165 146.054C234.642 146.41 234.196 146.868 233.854 147.4C233.513 147.932 233.281 148.527 233.175 149.151C233.068 149.774 233.088 150.413 233.234 151.028Z" fill="#FFA722"/>
<g opacity="0.2">
<path opacity="0.2" d="M233.234 151.028C237.385 168.895 236.484 186.619 236.939 190.442L264.043 188.421C266.644 159.381 260.481 144.637 260.481 144.637C260.481 144.637 258.738 144.3 256.372 144.056C255.631 143.981 254.823 143.913 253.989 143.871C253.526 143.871 253.063 143.829 252.583 143.821C248.731 143.88 244.885 144.162 241.065 144.663C240.34 144.755 239.608 144.856 238.892 144.974L236.972 145.328H236.897C236.276 145.451 235.687 145.698 235.165 146.054C234.642 146.41 234.196 146.868 233.854 147.4C233.513 147.932 233.281 148.527 233.175 149.151C233.068 149.774 233.088 150.413 233.234 151.028Z" fill="black"/>
</g>
<path opacity="0.2" d="M237.823 154.8L234.708 158.8C234.712 158.85 234.712 158.901 234.708 158.951C235.145 161.663 235.482 164.315 235.735 166.875C238.724 163.195 238.286 156.552 237.823 154.8Z" fill="black"/>
<path d="M242.37 136.765C243.018 139.493 242.976 142.524 241.022 144.696C243.186 146.549 245.99 148.662 250.402 148.494C254.814 148.325 253.829 145.345 252.541 143.837C248.777 143.231 248.769 140.781 248.735 138.086C248.734 137.814 248.645 137.549 248.484 137.329C248.322 137.11 248.094 136.948 247.834 136.866L243.692 135.535C243.517 135.479 243.33 135.471 243.15 135.511C242.971 135.551 242.806 135.638 242.671 135.763C242.537 135.888 242.438 136.047 242.385 136.223C242.332 136.399 242.327 136.586 242.37 136.765Z" fill="#FFBCB6"/>
<path d="M254.284 165.906C252.011 165.906 249.914 163.178 249.501 159.692C249.34 158.769 249.368 157.823 249.584 156.911C249.799 155.999 250.198 155.141 250.756 154.388C251.019 154.07 251.348 153.814 251.72 153.636C252.093 153.459 252.499 153.365 252.912 153.36C255.176 153.36 257.281 156.088 257.686 159.574C257.848 160.497 257.821 161.443 257.607 162.354C257.392 163.266 256.995 164.125 256.439 164.879C256.175 165.194 255.845 165.449 255.473 165.626C255.101 165.804 254.696 165.899 254.284 165.906ZM252.92 154.202C252.626 154.207 252.338 154.277 252.074 154.407C251.811 154.536 251.579 154.722 251.396 154.952C250.922 155.617 250.585 156.369 250.406 157.166C250.226 157.963 250.208 158.787 250.352 159.591C250.697 162.563 252.499 165.064 254.292 165.064C254.587 165.06 254.878 164.991 255.143 164.861C255.408 164.732 255.641 164.545 255.825 164.315C256.297 163.649 256.633 162.896 256.812 162.1C256.992 161.303 257.011 160.479 256.869 159.675C256.541 156.703 254.739 154.202 252.954 154.202H252.92Z" fill="#FFA722"/>
<path opacity="0.2" d="M248.744 138.238L244.576 138.777C244.668 138.962 244.786 139.139 244.896 139.316C245.687 140.579 247.422 141.412 249.224 141.715C248.833 140.6 248.67 139.418 248.744 138.238Z" fill="black"/>
<path d="M254.149 127.452C256.465 127.839 260.793 125.212 259.782 121.71C258.486 123.335 254.149 122.787 254.149 122.787V127.452Z" fill="#233A45"/>
<path d="M245.106 131.157C245.359 133.498 242.471 137.666 239.035 136.445C240.719 135.249 240.45 130.879 240.45 130.879L245.106 131.157Z" fill="#233A45"/>
<path d="M241.713 126.61C241.09 131.611 240.467 134.516 242.496 137.556C245.536 142.078 252.069 140.924 254.174 136.234C256.069 132.024 256.768 124.522 252.288 121.642C251.307 121.006 250.18 120.63 249.013 120.55C247.846 120.471 246.679 120.69 245.62 121.187C244.562 121.684 243.647 122.443 242.964 123.392C242.28 124.341 241.85 125.448 241.713 126.61Z" fill="#FFBCB6"/>
<path d="M241.023 131.662C242.244 132.95 245.603 127.688 244.989 125.768C246.252 126.324 248.676 125.263 248.525 123.175C252.306 125.195 257.787 126.795 257.871 123.175C257.955 119.554 254.503 116.818 251.135 116.531C251.539 117.617 250.47 118.081 248.272 117.617C246.075 117.154 237.604 113.256 238.539 121.044C235.373 121.23 234.96 125.238 241.023 131.662Z" fill="#233A45"/>
<path d="M238.547 129.717C238.722 130.973 239.388 132.109 240.399 132.874C241.747 133.876 242.589 132.816 242.715 131.233C242.833 129.801 242.715 127.561 241.107 127.183C240.757 127.106 240.394 127.119 240.05 127.219C239.706 127.319 239.393 127.503 239.139 127.755C238.884 128.007 238.697 128.318 238.594 128.661C238.49 129.003 238.474 129.367 238.547 129.717Z" fill="#FFBCB6"/>
<path d="M246.184 189.76L264.001 188.438C264.001 188.438 266.308 225.006 266.131 240.507C265.954 256.64 258.553 296.189 258.553 296.189L249.948 296.324C249.948 296.324 250.63 257.962 250.63 242.124C250.63 220.796 246.159 189.76 246.159 189.76" fill="#233A45"/>
<path opacity="0.2" d="M253.072 227.776C253.307 228.829 259.934 258.476 262.073 275.77C263.209 268.58 264.38 260.505 265.171 253.373L253.072 227.776Z" fill="black"/>
<path d="M254.385 189.162C254.385 189.162 267.95 222.388 271.006 236.963C274.374 252.918 279.721 293.276 279.721 293.276L270.518 294.707C270.518 294.707 263.554 264.538 259.656 249.129C255.227 231.565 237.663 203.754 236.922 190.459L254.385 189.162Z" fill="#233A45"/>
<path d="M280.874 294.059L269.44 296.736L268 292.333L280.487 290.194L280.874 294.059Z" fill="#FFA722"/>
<path d="M259.664 296.383L249.409 296.543L249.358 293.234L260.81 292.88L259.664 296.383Z" fill="#FFA722"/>
<path d="M248.685 129.203C248.609 129.608 248.761 129.97 249.022 130.045C249.283 130.121 249.561 129.81 249.636 129.406C249.712 129.001 249.561 128.639 249.291 128.564C249.022 128.488 248.761 128.799 248.685 129.203Z" fill="#233A45"/>
<path d="M253.669 130.264C253.594 130.66 253.745 131.031 254.006 131.106C254.267 131.182 254.545 130.871 254.621 130.466C254.697 130.062 254.545 129.692 254.284 129.624C254.023 129.557 253.745 129.86 253.669 130.264Z" fill="#233A45"/>
<path d="M252.027 130.163C252.277 131.485 252.708 132.765 253.307 133.969C252.995 134.114 252.654 134.189 252.31 134.189C251.965 134.189 251.624 134.114 251.312 133.969L252.027 130.163Z" fill="#A02724"/>
<path d="M250.461 135.207C250.011 135.113 249.584 134.928 249.207 134.663C248.831 134.398 248.512 134.059 248.272 133.666C248.257 133.637 248.254 133.603 248.263 133.572C248.273 133.54 248.294 133.514 248.323 133.498C248.351 133.485 248.383 133.483 248.412 133.492C248.442 133.502 248.467 133.522 248.483 133.548C248.757 133.978 249.129 134.338 249.567 134.598C250.006 134.859 250.5 135.012 251.009 135.047C251.036 135.054 251.059 135.07 251.076 135.092C251.093 135.114 251.103 135.141 251.103 135.169C251.103 135.197 251.093 135.224 251.076 135.246C251.059 135.268 251.036 135.284 251.009 135.291C250.824 135.279 250.641 135.251 250.461 135.207Z" fill="#233A45"/>
<path d="M248.188 127.402C248.149 127.384 248.112 127.361 248.078 127.334C248.036 127.287 248.013 127.225 248.013 127.162C248.013 127.098 248.036 127.037 248.078 126.989C248.357 126.727 248.694 126.534 249.061 126.427C249.428 126.32 249.816 126.302 250.192 126.374C250.253 126.392 250.304 126.433 250.336 126.488C250.367 126.543 250.376 126.608 250.36 126.669C250.344 126.729 250.305 126.781 250.252 126.812C250.198 126.844 250.134 126.853 250.074 126.837C249.773 126.783 249.463 126.802 249.17 126.891C248.877 126.98 248.61 127.138 248.39 127.351C248.362 127.374 248.329 127.39 248.295 127.399C248.26 127.408 248.223 127.409 248.188 127.402Z" fill="#233A45"/>
<path d="M256.355 129.01C256.317 128.997 256.282 128.975 256.254 128.946C256.226 128.916 256.206 128.88 256.195 128.841C256.127 128.548 255.989 128.275 255.792 128.046C255.596 127.817 255.347 127.639 255.067 127.528C255.006 127.508 254.955 127.466 254.925 127.409C254.895 127.352 254.889 127.286 254.907 127.225C254.926 127.164 254.969 127.112 255.026 127.083C255.083 127.053 255.149 127.046 255.21 127.065C255.57 127.207 255.89 127.434 256.143 127.728C256.395 128.021 256.572 128.371 256.658 128.749C256.669 128.779 256.672 128.811 256.669 128.843C256.666 128.875 256.656 128.906 256.64 128.934C256.624 128.962 256.603 128.986 256.577 129.005C256.551 129.024 256.521 129.037 256.49 129.043C256.442 129.05 256.394 129.038 256.355 129.01Z" fill="#233A45"/>
<path d="M281.851 299.843C281.448 300.039 281.025 300.189 280.588 300.289C280.57 300.304 280.548 300.312 280.525 300.312C280.502 300.312 280.48 300.304 280.462 300.289C280.448 300.27 280.441 300.246 280.441 300.222C280.441 300.198 280.448 300.174 280.462 300.155C280.571 299.969 281.565 298.319 282.196 298.319C282.268 298.319 282.338 298.339 282.399 298.376C282.459 298.413 282.509 298.466 282.542 298.53C282.608 298.629 282.648 298.743 282.66 298.862C282.672 298.981 282.654 299.101 282.609 299.212C282.431 299.498 282.165 299.72 281.851 299.843ZM280.815 299.978C281.433 299.886 281.992 299.564 282.382 299.077C282.411 299.001 282.421 298.919 282.411 298.838C282.401 298.757 282.37 298.68 282.323 298.614C282.272 298.53 282.23 298.521 282.188 298.521C281.86 298.521 281.228 299.338 280.815 299.978Z" fill="#FFA722"/>
<path d="M280.613 300.281H280.546C280.524 300.278 280.504 300.269 280.486 300.256C280.468 300.242 280.454 300.225 280.445 300.205C280.139 299.546 280.039 298.809 280.159 298.092C280.194 298.006 280.246 297.927 280.313 297.862C280.38 297.797 280.459 297.746 280.546 297.713C280.626 297.673 280.718 297.662 280.806 297.682C280.893 297.702 280.971 297.751 281.026 297.822C281.388 298.277 281.026 299.734 280.655 300.23C280.652 300.241 280.647 300.251 280.64 300.26C280.632 300.269 280.623 300.276 280.613 300.281ZM280.613 297.982C280.522 298.029 280.45 298.107 280.411 298.201C280.311 298.77 280.381 299.356 280.613 299.885C280.891 299.287 281.085 298.243 280.874 297.982C280.874 297.982 280.807 297.898 280.664 297.982H280.613Z" fill="#FFA722"/>
<path d="M256.591 303.22C256.569 303.211 256.551 303.196 256.537 303.176C256.524 303.157 256.517 303.134 256.517 303.11C256.517 303.087 256.524 303.064 256.537 303.044C256.551 303.024 256.569 303.009 256.591 303.001C256.819 302.874 258.848 301.805 259.471 302.159C259.528 302.191 259.576 302.238 259.612 302.294C259.647 302.349 259.668 302.413 259.673 302.479C259.686 302.587 259.673 302.697 259.634 302.8C259.596 302.902 259.535 302.994 259.454 303.068C258.907 303.565 257.45 303.388 256.625 303.236L256.591 303.22ZM259.336 302.335C258.527 302.382 257.741 302.625 257.046 303.043C257.8 303.258 258.605 303.198 259.319 302.874C259.373 302.825 259.413 302.763 259.437 302.694C259.46 302.624 259.466 302.551 259.454 302.479C259.455 302.452 259.448 302.427 259.435 302.404C259.421 302.382 259.402 302.364 259.378 302.352L259.336 302.335Z" fill="#FFA722"/>
<path d="M256.591 303.22C256.575 303.206 256.562 303.19 256.553 303.171C256.544 303.152 256.54 303.131 256.541 303.11C256.585 302.391 256.85 301.703 257.298 301.14C257.483 300.983 257.722 300.904 257.964 300.921C258.3 300.921 258.393 301.123 258.418 301.258C258.519 301.83 257.324 302.942 256.734 303.228C256.713 303.242 256.687 303.25 256.661 303.248C256.635 303.246 256.611 303.236 256.591 303.22ZM258.031 301.173C257.992 301.163 257.952 301.163 257.913 301.173C257.825 301.163 257.736 301.172 257.651 301.2C257.567 301.228 257.49 301.273 257.425 301.333C257.051 301.779 256.825 302.329 256.776 302.908C257.399 302.529 258.208 301.645 258.149 301.308C258.149 301.258 258.132 301.207 258.031 301.173Z" fill="#FFA722"/>
<path d="M241.326 152.611C239.642 155.6 237.958 158.791 236.442 161.932C234.915 165.002 233.607 168.176 232.527 171.43C232.4 171.825 232.308 172.213 232.19 172.6C232.148 172.777 232.072 173.029 232.047 173.147C232.019 173.244 231.997 173.343 231.979 173.442C231.907 173.971 231.921 174.509 232.022 175.033C232.36 176.475 232.914 177.857 233.663 179.134C235.411 182.077 237.448 184.838 239.743 187.377L237.301 190.307C234.044 188.154 231.151 185.497 228.729 182.435C227.38 180.729 226.335 178.803 225.639 176.743C225.238 175.513 225.059 174.221 225.109 172.928C225.109 172.583 225.176 172.221 225.218 171.876C225.26 171.531 225.311 171.354 225.361 171.084C225.462 170.596 225.555 170.082 225.664 169.603C226.608 165.863 227.887 162.216 229.487 158.707C231.022 155.259 232.766 151.907 234.708 148.67L241.326 152.611Z" fill="#FFBCB6"/>
<path d="M236.038 145.715C231.348 147.003 226.776 160.181 226.776 160.181L238.067 163.313C240.045 160.539 241.624 157.5 242.757 154.287C245.131 147.879 241.713 144.166 236.038 145.715Z" fill="#FFA722"/>
<g opacity="0.2">
<path opacity="0.2" d="M236.038 145.715C231.348 147.003 226.776 160.181 226.776 160.181L238.067 163.313C240.045 160.539 241.624 157.5 242.757 154.287C245.131 147.879 241.713 144.166 236.038 145.715Z" fill="black"/>
</g>
<path d="M237.579 186.51L242.732 187.866L240.686 192.707C240.686 192.707 236.063 191.73 236.088 189.213L237.579 186.51Z" fill="#FFBCB6"/>
<path d="M244.711 191.149L243.187 194.98L240.686 192.707L242.732 187.865L244.711 191.149Z" fill="#FFBCB6"/>
</svg>
