<svg width="132" height="185" viewBox="0 0 132 185" fill="none" xmlns="http://www.w3.org/2000/svg">
<path d="M22.9609 17.1328L25.3672 5.35938H28.0635L24.4541 21H21.8545L18.8789 9.58105L15.8389 21H13.2285L9.61914 5.35938H12.3154L14.7432 17.1113L17.7295 5.35938H20.0068L22.9609 17.1328ZM34.5732 21.2148C32.9189 21.2148 31.5762 20.6956 30.5449 19.6572C29.5208 18.6117 29.0088 17.2223 29.0088 15.4893V15.167C29.0088 14.0068 29.2308 12.972 29.6748 12.0625C30.126 11.1458 30.7562 10.4333 31.5654 9.9248C32.3747 9.41634 33.277 9.16211 34.2725 9.16211C35.8551 9.16211 37.0762 9.66699 37.9355 10.6768C38.8021 11.6865 39.2354 13.1152 39.2354 14.9629V16.0156H31.6406C31.7194 16.9753 32.0381 17.7344 32.5967 18.293C33.1624 18.8516 33.8714 19.1309 34.7236 19.1309C35.9196 19.1309 36.8936 18.6475 37.6455 17.6807L39.0527 19.0234C38.5872 19.7181 37.9642 20.2588 37.1836 20.6455C36.4102 21.0251 35.54 21.2148 34.5732 21.2148ZM34.2617 11.2568C33.5456 11.2568 32.9655 11.5075 32.5215 12.0088C32.0846 12.5101 31.8053 13.2083 31.6836 14.1035H36.6572V13.9102C36.5999 13.0365 36.3672 12.3776 35.959 11.9336C35.5508 11.4824 34.985 11.2568 34.2617 11.2568ZM51.4707 15.3066C51.4707 17.1113 51.0661 18.5472 50.2568 19.6143C49.4548 20.6813 48.3483 21.2148 46.9375 21.2148C45.5768 21.2148 44.5169 20.7243 43.7578 19.7432L43.6289 21H41.2656V4.5H43.876V10.4941C44.6279 9.60612 45.6413 9.16211 46.916 9.16211C48.334 9.16211 49.4476 9.68848 50.2568 10.7412C51.0661 11.7939 51.4707 13.2656 51.4707 15.1562V15.3066ZM48.8604 15.0811C48.8604 13.8206 48.6383 12.8753 48.1943 12.2451C47.7503 11.6149 47.1058 11.2998 46.2607 11.2998C45.1292 11.2998 44.3343 11.7939 43.876 12.7822V17.5732C44.3415 18.583 45.1436 19.0879 46.2822 19.0879C47.0986 19.0879 47.7288 18.7835 48.1729 18.1748C48.6169 17.5661 48.846 16.6458 48.8604 15.4141V15.0811ZM68.1533 17.3584H62.0947L60.8271 21H58.002L63.9102 5.35938H66.3486L72.2676 21H69.4316L68.1533 17.3584ZM62.8574 15.167H67.3906L65.124 8.67871L62.8574 15.167ZM73.3096 15.1025C73.3096 13.3122 73.7249 11.8763 74.5557 10.7949C75.3864 9.70638 76.5 9.16211 77.8965 9.16211C79.1283 9.16211 80.1237 9.5918 80.8828 10.4512V4.5H83.4932V21H81.1299L81.001 19.7969C80.2204 20.7422 79.1784 21.2148 77.875 21.2148C76.5143 21.2148 75.4115 20.667 74.5664 19.5713C73.7285 18.4756 73.3096 16.986 73.3096 15.1025ZM75.9199 15.3281C75.9199 16.5098 76.1455 17.4336 76.5967 18.0996C77.055 18.7585 77.7031 19.0879 78.541 19.0879C79.6081 19.0879 80.3887 18.6117 80.8828 17.6592V12.6963C80.403 11.7653 79.6296 11.2998 78.5625 11.2998C77.7174 11.2998 77.0658 11.6364 76.6074 12.3096C76.1491 12.9756 75.9199 13.9818 75.9199 15.3281ZM88.6709 9.37695L88.7461 10.5908C89.5625 9.63835 90.6797 9.16211 92.0977 9.16211C93.6517 9.16211 94.7152 9.75651 95.2881 10.9453C96.1331 9.75651 97.3219 9.16211 98.8545 9.16211C100.136 9.16211 101.089 9.5166 101.712 10.2256C102.342 10.9346 102.664 11.9801 102.679 13.3623V21H100.068V13.4375C100.068 12.6999 99.9072 12.1592 99.585 11.8154C99.2627 11.4717 98.7292 11.2998 97.9844 11.2998C97.39 11.2998 96.903 11.4609 96.5234 11.7832C96.151 12.0983 95.8896 12.5137 95.7393 13.0293L95.75 21H93.1396V13.3516C93.1038 11.9837 92.4056 11.2998 91.0449 11.2998C89.9993 11.2998 89.2581 11.7259 88.8213 12.5781V21H86.2109V9.37695H88.6709ZM108.136 21H105.525V9.37695H108.136V21ZM105.364 6.3584C105.364 5.95736 105.49 5.62435 105.74 5.35938C105.998 5.0944 106.363 4.96191 106.836 4.96191C107.309 4.96191 107.674 5.0944 107.932 5.35938C108.189 5.62435 108.318 5.95736 108.318 6.3584C108.318 6.75228 108.189 7.08171 107.932 7.34668C107.674 7.60449 107.309 7.7334 106.836 7.7334C106.363 7.7334 105.998 7.60449 105.74 7.34668C105.49 7.08171 105.364 6.75228 105.364 6.3584ZM113.41 9.37695L113.485 10.7197C114.345 9.68132 115.473 9.16211 116.869 9.16211C119.29 9.16211 120.521 10.5479 120.564 13.3193V21H117.954V13.4697C117.954 12.7321 117.793 12.1878 117.471 11.8369C117.156 11.4788 116.636 11.2998 115.913 11.2998C114.86 11.2998 114.076 11.776 113.561 12.7285V21H110.95V9.37695H113.41Z" fill="#32C641"/>
<g opacity="0.15">
<path opacity="0.15" d="M130.35 162.363L108.771 174.484C107.829 175.038 106.139 174.973 105.034 174.321L97.8191 170.02C96.7142 169.368 96.5842 168.391 97.5591 167.837L119.073 155.455C120.015 154.901 121.705 154.966 122.81 155.618L130.09 160.147C131.195 160.831 131.325 161.809 130.35 162.363Z" fill="#BDCEFA"/>
<path opacity="0.15" d="M121.381 151.74L99.7693 163.894C98.8268 164.448 97.1369 164.383 96.032 163.731L88.8499 159.43C87.745 158.778 87.615 157.801 88.5899 157.247L110.104 144.865C111.046 144.311 112.736 144.376 113.841 145.028L121.121 149.557C122.193 150.209 122.323 151.186 121.381 151.74Z" fill="#BDCEFA"/>
<path opacity="0.15" d="M126.548 133.851L61.3563 170.313C58.464 171.975 53.3943 171.78 50.047 169.857L12.0567 147.863C8.70936 145.94 8.35188 142.975 11.2442 141.313L76.4355 104.851C79.3278 103.189 84.3975 103.385 87.7448 105.307L125.735 127.302C129.05 129.224 129.407 132.189 126.548 133.851Z" fill="#BDCEFA"/>
</g>
<path d="M0.779955 84.8769C0.422476 84.8769 0 84.5836 0 84.0948V67.77C0 67.5093 0.162491 67.2486 0.389978 67.1183L19.9864 55.7789C20.1163 55.7137 20.2463 55.6812 20.3763 55.6812C20.7338 55.6812 21.1563 55.9744 21.1563 56.4632V72.788C21.1563 73.0487 20.9938 73.3094 20.7663 73.4397L1.13743 84.7791C1.03994 84.8443 0.909948 84.8769 0.779955 84.8769Z" fill="url(#paint0_linear)"/>
<path d="M15.404 108.598C14.624 108.598 13.7466 107.979 13.7466 106.936V72.0058C13.7466 71.4192 14.0716 70.8653 14.559 70.572L56.4491 46.3292C56.7091 46.1662 56.9691 46.1011 57.2616 46.1011C58.0415 46.1011 58.919 46.7202 58.919 47.7629V82.7261C58.919 83.3126 58.594 83.8665 58.1065 84.1598L16.2164 108.37C15.9565 108.533 15.6965 108.598 15.404 108.598Z" fill="url(#paint1_linear)"/>
<path d="M48.4222 61.9047C48.0972 61.9047 47.7397 61.644 47.7397 61.2204V46.7203C47.7397 46.4922 47.8697 46.2641 48.0647 46.1338L65.4187 36.0978C65.5162 36.0326 65.6462 36 65.7437 36C66.0687 36 66.4262 36.2607 66.4262 36.6843V51.1518C66.4262 51.3799 66.2962 51.608 66.1012 51.7383L48.7472 61.8069C48.6497 61.8721 48.5197 61.9047 48.4222 61.9047Z" fill="url(#paint2_linear)"/>
<path d="M7.92953 119.449C7.60455 119.449 7.24707 119.188 7.24707 118.765V104.297C7.24707 104.069 7.37706 103.841 7.57205 103.711L24.9261 93.6747C25.0236 93.6095 25.1535 93.5769 25.251 93.5769C25.576 93.5769 25.9335 93.8376 25.9335 94.2612V108.729C25.9335 108.957 25.8035 109.185 25.6085 109.315L8.25451 119.351C8.15702 119.416 8.02703 119.449 7.92953 119.449Z" fill="url(#paint3_linear)"/>
<path d="M55.8 65.2879C56.2443 64.5478 56.2555 63.7372 55.8249 63.4774C55.3943 63.2175 54.685 63.6068 54.2407 64.3469C53.7965 65.087 53.7853 65.8977 54.2159 66.1575C54.6465 66.4174 55.3558 66.028 55.8 65.2879Z" fill="#BDCEFA"/>
<path d="M60.0565 61.9047C60.0565 62.589 59.5691 63.4688 58.9516 63.7946C58.3341 64.1531 57.8467 63.8598 57.8467 63.1755C57.8467 62.4912 58.3341 61.6115 58.9516 61.2856C59.5691 60.9272 60.0565 61.2204 60.0565 61.9047Z" fill="#BDCEFA"/>
<path d="M63.9562 59.6236C63.9562 60.3079 63.4687 61.1876 62.8513 61.5135C62.2338 61.8719 61.7463 61.5787 61.7463 60.8944C61.7463 60.2101 62.2338 59.3303 62.8513 59.0045C63.4687 58.6786 63.9562 58.9393 63.9562 59.6236Z" fill="#BDCEFA"/>
<path d="M27.6234 82.9215C26.811 83.8339 26.096 84.3878 25.1211 84.9418C22.8462 86.2777 20.8313 85.5283 20.8313 82.4002C20.8313 79.1417 22.8787 75.1664 25.966 73.3417C28.3709 71.9405 30.1258 72.8529 30.1258 75.5248C30.1258 77.8383 28.9883 79.9563 27.5259 80.8361C26.876 81.1946 26.421 81.0968 26.356 80.2822H26.3235C25.901 81.3249 25.2835 82.1069 24.5361 82.5305C23.6261 83.0519 23.0087 82.6609 23.0087 81.3575C23.0087 79.4024 24.2436 76.926 26.226 75.7855C26.8435 75.4271 27.5259 75.199 27.8509 75.2316L27.4284 78.4249C27.2984 79.435 27.3959 79.826 27.7859 79.5979C28.3709 79.2721 29.1183 77.9687 29.1183 76.1439C29.1183 74.0585 27.9484 73.1462 25.836 74.3844C23.7236 75.59 21.9037 78.5878 21.9037 81.6181C21.9037 84.2901 23.3662 84.9418 25.4135 83.7361C26.1285 83.3451 26.8435 82.726 27.3959 82.0743L27.6234 82.9215ZM26.3885 77.0563C26.291 77.0889 26.1285 77.1215 25.966 77.2518C25.0561 77.7732 24.3411 79.2395 24.3411 80.4451C24.3411 81.0642 24.5686 81.2923 25.0236 81.0316C25.5435 80.7384 26.0635 79.6631 26.1935 78.6855L26.3885 77.0563Z" fill="#BDCEFA"/>
<path d="M33.5703 62.8822L38.38 64.2181C38.5425 64.2507 38.77 64.1204 38.9 63.9249L43.7097 57.0496L33.5703 62.8822Z" fill="#BDCEFA"/>
<path d="M36.9829 64.3158L33.6356 69.8552C33.5706 69.79 33.5381 69.6922 33.5381 69.5619V63.3708L36.9829 64.3158Z" fill="#BDCEFA"/>
<path d="M40.0053 62.8171L43.3851 64.5115C43.2876 64.6093 43.1901 64.707 43.0601 64.7722L34.2856 69.8554C34.1882 69.9206 34.0907 69.9531 33.9932 69.9531L37.3405 64.3812L38.6729 64.7396L40.0053 62.8171Z" fill="#BDCEFA"/>
<path d="M43.7424 57.4731V63.6642C43.7424 63.7945 43.7099 63.9249 43.6449 64.0552L40.3301 62.3608L43.7424 57.4731Z" fill="#BDCEFA"/>
<path d="M77.378 65.8149C77.3455 65.8149 77.313 65.7823 77.313 65.7497V41.7675L44.7823 60.6339C44.7498 60.6665 44.6848 60.6339 44.6848 60.6013C44.6523 60.5688 44.6848 60.5036 44.7173 60.5036L77.4755 41.5068V65.7497C77.4755 65.7823 77.4105 65.8149 77.378 65.8149Z" fill="#BDCEFA"/>
<path d="M79.5553 65.9126C79.4578 65.9126 79.3928 65.8475 79.3928 65.7497V65.7171C79.3928 65.6194 79.4578 65.5542 79.5553 65.5542C79.6528 65.5542 79.7178 65.6194 79.7178 65.7171C79.7178 65.8149 79.6528 65.9126 79.5553 65.9126Z" fill="#BDCEFA"/>
<path d="M79.5553 64.6419C79.4578 64.6419 79.3928 64.5767 79.3928 64.479V64.4464C79.3928 64.3487 79.4578 64.2835 79.5553 64.2835C79.6528 64.2835 79.7178 64.3487 79.7178 64.4464C79.7178 64.5767 79.6528 64.6419 79.5553 64.6419ZM79.5553 63.4037C79.4578 63.4037 79.3928 63.3385 79.3928 63.2408V63.2082C79.3928 63.1104 79.4578 63.0453 79.5553 63.0453C79.6528 63.0453 79.7178 63.1104 79.7178 63.2082C79.7178 63.3059 79.6528 63.4037 79.5553 63.4037ZM79.5553 62.1329C79.4578 62.1329 79.3928 62.0677 79.3928 61.97V61.9374C79.3928 61.8396 79.4578 61.7745 79.5553 61.7745C79.6528 61.7745 79.7178 61.8396 79.7178 61.9374C79.7178 62.0352 79.6528 62.1329 79.5553 62.1329ZM79.5553 60.8621C79.4578 60.8621 79.3928 60.7969 79.3928 60.6992V60.6666C79.3928 60.5688 79.4578 60.5037 79.5553 60.5037C79.6528 60.5037 79.7178 60.5688 79.7178 60.6666C79.7178 60.7644 79.6528 60.8621 79.5553 60.8621ZM79.5553 59.5913C79.4578 59.5913 79.3928 59.5261 79.3928 59.4284V59.3958C79.3928 59.2981 79.4578 59.2329 79.5553 59.2329C79.6528 59.2329 79.7178 59.2981 79.7178 59.3958C79.7178 59.5261 79.6528 59.5913 79.5553 59.5913ZM79.5553 58.3531C79.4578 58.3531 79.3928 58.2879 79.3928 58.1902V58.1576C79.3928 58.0598 79.4578 57.9947 79.5553 57.9947C79.6528 57.9947 79.7178 58.0598 79.7178 58.1576C79.7178 58.2553 79.6528 58.3531 79.5553 58.3531ZM79.5553 57.0823C79.4578 57.0823 79.3928 57.0171 79.3928 56.9194V56.8868C79.3928 56.789 79.4578 56.7239 79.5553 56.7239C79.6528 56.7239 79.7178 56.789 79.7178 56.8868C79.7178 56.9846 79.6528 57.0823 79.5553 57.0823Z" fill="#BDCEFA"/>
<path d="M79.5554 55.8115C79.4904 55.8115 79.4579 55.7789 79.4254 55.7463C79.4254 55.7463 79.4254 55.7463 79.4254 55.7137C79.3929 55.6485 79.3929 55.5508 79.4904 55.4856C79.5554 55.453 79.6204 55.453 79.6529 55.4856C79.7179 55.5182 79.7504 55.5508 79.7504 55.616C79.7179 55.7463 79.6529 55.8115 79.5554 55.8115Z" fill="#BDCEFA"/>
<path d="M33.0505 81.8463C32.9855 81.8463 32.953 81.8137 32.9205 81.7486C32.888 81.6834 32.9205 81.5857 32.9855 81.5205H33.018C33.083 81.4879 33.1804 81.5205 33.2454 81.5857C33.2779 81.6508 33.2454 81.7486 33.1804 81.8137H33.148C33.1155 81.8463 33.083 81.8463 33.0505 81.8463ZM34.2204 81.1946C34.1554 81.1946 34.1229 81.1621 34.0904 81.0969C34.0579 81.0317 34.0904 80.934 34.1554 80.8688H34.1879C34.2529 80.8362 34.3504 80.8688 34.4154 80.934C34.4479 80.9991 34.4154 81.0969 34.3504 81.1621H34.3179C34.2854 81.1946 34.2529 81.1946 34.2204 81.1946ZM35.3903 80.5429C35.3253 80.5429 35.2928 80.5104 35.2603 80.4452C35.2278 80.38 35.2603 80.2823 35.3253 80.2171C35.3903 80.1845 35.5203 80.1845 35.5528 80.2823C35.5853 80.3474 35.5853 80.4452 35.5203 80.5104H35.4878C35.4553 80.543 35.4228 80.5429 35.3903 80.5429ZM36.5603 79.8913C36.4953 79.8913 36.4628 79.8587 36.4303 79.7935C36.3978 79.7283 36.4303 79.6306 36.4953 79.5654H36.5278C36.5928 79.5328 36.6902 79.5654 36.7552 79.6306C36.7877 79.6958 36.7552 79.7935 36.6902 79.8587H36.6577C36.5928 79.8913 36.5603 79.8913 36.5603 79.8913ZM37.6977 79.2396C37.6327 79.2396 37.6002 79.207 37.5677 79.1418C37.5352 79.0766 37.5677 78.9789 37.6327 78.9137H37.6652C37.7302 78.8811 37.8277 78.9137 37.8927 78.9789C37.9252 79.0441 37.8927 79.1418 37.8277 79.207H37.7952C37.7627 79.2396 37.7302 79.2396 37.6977 79.2396ZM38.8676 78.5879C38.8026 78.5879 38.7701 78.5553 38.7376 78.4901C38.7051 78.425 38.7376 78.3272 38.8026 78.262C38.8676 78.2294 38.9976 78.2294 39.0301 78.3272C39.0626 78.3924 39.0626 78.4901 38.9976 78.5553H38.9651C38.9326 78.5879 38.9001 78.5879 38.8676 78.5879ZM40.0376 77.9362C39.9726 77.9362 39.9401 77.9036 39.9076 77.8384C39.8751 77.7733 39.9076 77.6755 39.9726 77.6103C40.0376 77.5778 40.1675 77.5778 40.2 77.6755C40.2325 77.7407 40.2325 77.8384 40.1675 77.9036H40.135C40.1026 77.9362 40.0701 77.9362 40.0376 77.9362ZM41.2075 77.2845C41.1425 77.2845 41.11 77.2519 41.0775 77.1867C41.045 77.1216 41.0775 77.0238 41.1425 76.9587H41.175C41.24 76.9261 41.3375 76.9587 41.4025 77.0238C41.435 77.089 41.4025 77.1867 41.3375 77.2519H41.305C41.24 77.2845 41.2075 77.2845 41.2075 77.2845ZM42.3449 76.6328C42.2799 76.6328 42.2474 76.6002 42.2149 76.5351C42.1824 76.4699 42.2149 76.3721 42.2799 76.307H42.3124C42.3774 76.2744 42.4749 76.307 42.5399 76.3721C42.5724 76.4373 42.5399 76.5351 42.4749 76.6002H42.4424C42.4099 76.6328 42.3774 76.6328 42.3449 76.6328ZM43.5149 75.9811C43.4499 75.9811 43.4174 75.9485 43.3849 75.8834C43.3524 75.8182 43.3849 75.7204 43.4499 75.6553C43.5149 75.6227 43.6448 75.6227 43.6773 75.7204C43.7098 75.7856 43.7098 75.8834 43.6123 75.9485H43.5799C43.5799 75.9811 43.5474 75.9811 43.5149 75.9811ZM44.6848 75.3294C44.6198 75.3294 44.5873 75.2968 44.5548 75.2317C44.5223 75.1665 44.5548 75.0688 44.6198 75.0036C44.6848 74.971 44.8148 74.971 44.8473 75.0688C44.8798 75.1339 44.8798 75.2317 44.7823 75.2968H44.7498C44.7498 75.3294 44.7173 75.3294 44.6848 75.3294ZM45.8547 74.6777C45.7897 74.6777 45.7572 74.6452 45.7247 74.58C45.6922 74.5148 45.7247 74.4171 45.7897 74.3519C45.8547 74.3193 45.9847 74.3193 46.0172 74.4171C46.0497 74.4822 46.0497 74.58 45.9522 74.6452H45.9197C45.8872 74.6777 45.8547 74.6777 45.8547 74.6777ZM46.9922 74.026C46.9272 74.026 46.8947 73.9935 46.8622 73.9283C46.8297 73.8631 46.8622 73.7654 46.9272 73.7002C46.9922 73.6676 47.1222 73.6676 47.1546 73.7654C47.1871 73.8305 47.1871 73.9283 47.0896 73.9935H47.0572C47.0572 74.026 47.0247 74.026 46.9922 74.026ZM48.1621 73.3744C48.0971 73.3744 48.0646 73.3418 48.0321 73.2766C47.9996 73.2114 48.0321 73.1137 48.0971 73.0485C48.1621 73.0159 48.2921 73.0159 48.3246 73.1137C48.3571 73.1789 48.3571 73.2766 48.2596 73.3418H48.2271C48.2271 73.3744 48.1946 73.3744 48.1621 73.3744ZM49.332 72.7227C49.267 72.7227 49.2345 72.6901 49.202 72.6249C49.1695 72.5597 49.202 72.462 49.267 72.3968C49.332 72.3642 49.462 72.3642 49.4945 72.462C49.527 72.5272 49.527 72.6249 49.4295 72.6901H49.397C49.397 72.7227 49.3645 72.7227 49.332 72.7227ZM50.502 72.071C50.437 72.071 50.4045 72.0384 50.372 71.9732C50.3395 71.9081 50.372 71.8103 50.437 71.7451H50.4695C50.5345 71.7125 50.6319 71.7451 50.6969 71.8103C50.7294 71.8755 50.6969 71.9732 50.6319 72.0384H50.5994C50.5345 72.071 50.5345 72.071 50.502 72.071ZM51.6394 71.4193C51.5744 71.4193 51.5419 71.3867 51.5094 71.3215C51.4769 71.2564 51.5094 71.1586 51.5744 71.0934C51.6394 71.0609 51.7694 71.0609 51.8019 71.1586C51.8344 71.2238 51.8344 71.3215 51.7694 71.3867H51.7369C51.7044 71.4193 51.6719 71.4193 51.6394 71.4193ZM52.8093 70.7676C52.7443 70.7676 52.7118 70.735 52.6793 70.6698C52.6468 70.6047 52.6793 70.5069 52.7443 70.4418H52.7768C52.8418 70.4092 52.9393 70.4418 53.0043 70.5069C53.0368 70.5721 53.0043 70.6698 52.9393 70.735H52.9068C52.8743 70.7676 52.8418 70.7676 52.8093 70.7676ZM53.9793 70.1159C53.9143 70.1159 53.8818 70.0833 53.8493 70.0182C53.8168 69.953 53.8493 69.8552 53.9143 69.7901H53.9468C54.0118 69.7575 54.1092 69.7901 54.1742 69.8552C54.2067 69.9204 54.1742 70.0182 54.1092 70.0833H54.0767C54.0442 70.1159 54.0118 70.1159 53.9793 70.1159ZM55.1492 69.4642C55.0842 69.4642 55.0517 69.4316 55.0192 69.3665C54.9867 69.3013 55.0192 69.2035 55.0842 69.1384C55.1492 69.1058 55.2792 69.1058 55.3117 69.2035C55.3442 69.2687 55.3442 69.3665 55.2792 69.4316H55.2467C55.1817 69.4642 55.1817 69.4642 55.1492 69.4642ZM56.2866 68.8125C56.2216 68.8125 56.1891 68.7799 56.1566 68.7148C56.1241 68.6496 56.1566 68.5519 56.2216 68.4867C56.2866 68.4541 56.4166 68.4541 56.4491 68.5519C56.4816 68.617 56.4816 68.7148 56.4166 68.7799H56.3841C56.3516 68.8125 56.3191 68.8125 56.2866 68.8125ZM57.4566 68.1934C57.3916 68.1934 57.3591 68.1608 57.3266 68.0957C57.2941 68.0305 57.3266 67.9328 57.3916 67.8676H57.4241C57.4891 67.835 57.5865 67.8676 57.6515 67.9327C57.684 67.9979 57.6515 68.0957 57.5865 68.1608H57.5541C57.5216 68.1608 57.4891 68.1934 57.4566 68.1934ZM58.6265 67.5417C58.5615 67.5417 58.529 67.5092 58.4965 67.444C58.464 67.3788 58.4965 67.2811 58.5615 67.2159H58.594C58.659 67.1833 58.7565 67.2159 58.8215 67.2811C58.854 67.3462 58.8215 67.444 58.7565 67.5092H58.724C58.6915 67.5092 58.659 67.5417 58.6265 67.5417ZM59.7964 66.89C59.7314 66.89 59.6989 66.8575 59.6664 66.7923C59.6339 66.7271 59.6664 66.6294 59.7314 66.5642C59.7964 66.5316 59.9264 66.5316 59.9589 66.6294C59.9914 66.6945 59.9914 66.7923 59.9264 66.8575H59.8939C59.8289 66.8575 59.8289 66.89 59.7964 66.89ZM60.9664 66.2384C60.9014 66.2384 60.8689 66.2058 60.8364 66.1406C60.8039 66.0754 60.8364 65.9777 60.9014 65.9125C60.9664 65.8799 61.0963 65.8799 61.1288 65.9777C61.1613 66.0428 61.1613 66.1406 61.0963 66.2058H61.0638C60.9988 66.2058 60.9664 66.2384 60.9664 66.2384ZM62.1038 65.5867C62.0388 65.5867 62.0063 65.5541 61.9738 65.4889C61.9413 65.4237 61.9738 65.326 62.0388 65.2608H62.0713C62.1363 65.2282 62.2338 65.2608 62.2988 65.326C62.3313 65.3912 62.2988 65.4889 62.2338 65.5541H62.2013C62.1688 65.5541 62.1363 65.5867 62.1038 65.5867ZM63.2737 64.935C63.2087 64.935 63.1762 64.9024 63.1437 64.8372C63.1112 64.7721 63.1437 64.6743 63.2087 64.6091H63.2412C63.3062 64.5765 63.4037 64.6091 63.4687 64.6743C63.5012 64.7395 63.4687 64.8372 63.4037 64.9024H63.3712C63.3387 64.935 63.3062 64.935 63.2737 64.935ZM64.4437 64.2833C64.3787 64.2833 64.3462 64.2507 64.3137 64.1855C64.2812 64.1204 64.3137 64.0226 64.3787 63.9574C64.4437 63.9249 64.5736 63.9249 64.6061 64.0226C64.6386 64.0878 64.6386 64.1855 64.5736 64.2507H64.5412C64.4762 64.2833 64.4762 64.2833 64.4437 64.2833ZM65.6136 63.6316C65.5486 63.6316 65.5161 63.599 65.4836 63.5338C65.4511 63.4687 65.4836 63.3709 65.5486 63.3058C65.6136 63.2732 65.7436 63.2732 65.7761 63.3709C65.8086 63.4361 65.8086 63.5338 65.7436 63.599H65.7111C65.6461 63.6316 65.6136 63.6316 65.6136 63.6316ZM66.751 62.9799C66.686 62.9799 66.6535 62.9473 66.621 62.8822C66.5885 62.817 66.621 62.7192 66.686 62.6541C66.751 62.6215 66.881 62.6215 66.9135 62.7192C66.946 62.7844 66.946 62.8822 66.8485 62.9473H66.816C66.816 62.9799 66.7835 62.9799 66.751 62.9799ZM67.921 62.3282C67.856 62.3282 67.8235 62.2956 67.791 62.2305C67.7585 62.1653 67.791 62.0675 67.856 62.0024H67.8885C67.9535 61.9698 68.0509 62.0024 68.1159 62.0675C68.1484 62.1327 68.1159 62.2305 68.0509 62.2956H68.0185C67.986 62.3282 67.9535 62.3282 67.921 62.3282ZM69.0909 61.6765C69.0259 61.6765 68.9934 61.6439 68.9609 61.5788C68.9284 61.5136 68.9609 61.4159 69.0259 61.3507C69.0909 61.3181 69.2209 61.3181 69.2534 61.4159C69.2859 61.481 69.2859 61.5788 69.1884 61.6439H69.1559C69.1234 61.6765 69.1234 61.6765 69.0909 61.6765ZM70.2608 61.0248C70.1958 61.0248 70.1633 60.9923 70.1308 60.9271C70.0983 60.8619 70.1308 60.7642 70.1958 60.699C70.2608 60.6664 70.3908 60.6664 70.4233 60.7642C70.4558 60.8293 70.4558 60.9271 70.3583 60.9923H70.3258C70.2933 61.0248 70.2608 61.0248 70.2608 61.0248ZM71.3983 60.3731C71.3333 60.3731 71.3008 60.3406 71.2683 60.2754C71.2358 60.2102 71.2683 60.1125 71.3333 60.0473C71.3983 60.0147 71.5282 60.0147 71.5607 60.1125C71.5932 60.1776 71.5932 60.2754 71.4958 60.3406H71.4632C71.4632 60.3731 71.4308 60.3731 71.3983 60.3731ZM72.5682 59.7215C72.5032 59.7215 72.4707 59.6889 72.4382 59.6237C72.4057 59.5585 72.4382 59.4608 72.5032 59.3956C72.5682 59.363 72.6982 59.363 72.7307 59.4608C72.7632 59.526 72.7632 59.6237 72.6657 59.6889H72.6332C72.6332 59.7215 72.6007 59.7215 72.5682 59.7215ZM73.7381 59.0698C73.6731 59.0698 73.6406 59.0372 73.6081 58.972C73.5756 58.9068 73.6081 58.8091 73.6731 58.7439H73.7056C73.7706 58.7113 73.8681 58.7439 73.9331 58.8091C73.9656 58.8743 73.9331 58.972 73.8681 59.0372H73.8356C73.7706 59.0698 73.7706 59.0698 73.7381 59.0698ZM74.9081 58.4181C74.8431 58.4181 74.8106 58.3855 74.7781 58.3203C74.7456 58.2552 74.7781 58.1574 74.8431 58.0922C74.9081 58.0596 75.038 58.0596 75.0705 58.1574C75.103 58.2226 75.103 58.3203 75.038 58.3855H75.0056C74.9406 58.4181 74.9081 58.4181 74.9081 58.4181ZM76.0455 57.7664C75.9805 57.7664 75.948 57.7338 75.9155 57.6686C75.883 57.6035 75.9155 57.5057 75.9805 57.4405C76.0455 57.408 76.1755 57.408 76.208 57.5057C76.2405 57.5709 76.2405 57.6686 76.1755 57.7338H76.143C76.1105 57.7664 76.078 57.7664 76.0455 57.7664ZM77.2154 57.1147C77.1504 57.1147 77.1179 57.0821 77.0854 57.0169C77.0529 56.9518 77.0854 56.854 77.1504 56.7889H77.1829C77.2479 56.7563 77.3454 56.7889 77.4104 56.854C77.4429 56.9192 77.4104 57.0169 77.3454 57.0821H77.3129C77.2804 57.1147 77.2479 57.1147 77.2154 57.1147ZM78.3854 56.463C78.3204 56.463 78.2879 56.4304 78.2554 56.3653C78.2229 56.3001 78.2554 56.2023 78.3204 56.1372C78.3854 56.1046 78.5153 56.1046 78.5478 56.2023C78.5803 56.2675 78.5803 56.3653 78.5154 56.4304H78.4828C78.4179 56.463 78.4179 56.463 78.3854 56.463Z" fill="#BDCEFA"/>
<path d="M31.9132 82.4982C31.8157 82.4982 31.7507 82.433 31.7507 82.3352C31.7507 82.2701 31.7832 82.2049 31.8482 82.1723C31.9132 82.1397 32.0432 82.1397 32.0757 82.2375C32.1082 82.3027 32.1082 82.4004 32.0432 82.433C32.0107 82.4656 31.9457 82.4982 31.9132 82.4982Z" fill="#BDCEFA"/>
<path d="M31.9132 92.1758C31.8157 92.1758 31.7507 92.1106 31.7507 92.0128V91.9803C31.7507 91.8825 31.8157 91.8173 31.9132 91.8173C32.0107 91.8173 32.0757 91.8825 32.0757 91.9803V92.0128C32.0757 92.1106 32.0107 92.1758 31.9132 92.1758ZM31.9132 90.8072C31.8157 90.8072 31.7507 90.7421 31.7507 90.6443V90.6117C31.7507 90.514 31.8157 90.4488 31.9132 90.4488C32.0107 90.4488 32.0757 90.514 32.0757 90.6117V90.6443C32.0757 90.7421 32.0107 90.8072 31.9132 90.8072ZM31.9132 89.4061C31.8157 89.4061 31.7507 89.3409 31.7507 89.2432V89.2106C31.7507 89.1128 31.8157 89.0477 31.9132 89.0477C32.0107 89.0477 32.0757 89.1128 32.0757 89.2106V89.2432C32.0757 89.3409 32.0107 89.4061 31.9132 89.4061ZM31.9132 88.0375C31.8157 88.0375 31.7507 87.9724 31.7507 87.8746V87.842C31.7507 87.7443 31.8157 87.6791 31.9132 87.6791C32.0107 87.6791 32.0757 87.7443 32.0757 87.842V87.8746C32.0757 87.9724 32.0107 88.0375 31.9132 88.0375ZM31.9132 86.6364C31.8157 86.6364 31.7507 86.5712 31.7507 86.4735V86.4409C31.7507 86.3432 31.8157 86.278 31.9132 86.278C32.0107 86.278 32.0757 86.3432 32.0757 86.4409V86.4735C32.0757 86.5712 32.0107 86.6364 31.9132 86.6364ZM31.9132 85.2679C31.8157 85.2679 31.7507 85.2027 31.7507 85.1049V85.0724C31.7507 84.9746 31.8157 84.9094 31.9132 84.9094C32.0107 84.9094 32.0757 84.9746 32.0757 85.0724V85.1049C32.0757 85.2027 32.0107 85.2679 31.9132 85.2679ZM31.9132 83.8667C31.8157 83.8667 31.7507 83.8016 31.7507 83.7038V83.6712C31.7507 83.5735 31.8157 83.5083 31.9132 83.5083C32.0107 83.5083 32.0757 83.5735 32.0757 83.6712V83.7038C32.0757 83.8016 32.0107 83.8667 31.9132 83.8667Z" fill="#BDCEFA"/>
<path d="M31.9132 93.5443C31.8157 93.5443 31.7507 93.4792 31.7507 93.3814C31.7507 93.2837 31.8157 93.2185 31.9132 93.2185C32.0107 93.2185 32.0757 93.2837 32.0757 93.3814C32.0757 93.4792 32.0107 93.5443 31.9132 93.5443Z" fill="#BDCEFA"/>
<path d="M11.5694 99.9961C11.5369 99.9961 11.5044 99.9635 11.5044 99.9309V86.8971L11.5369 86.8645L19.174 82.824C19.2065 82.7915 19.2714 82.824 19.2714 82.8566C19.3039 82.8892 19.2715 82.9544 19.239 82.9544L11.6669 86.9949V99.9309C11.6344 99.9635 11.6019 99.9961 11.5694 99.9961Z" fill="#BDCEFA"/>
<path d="M17.0292 120.948C16.9317 120.948 16.8667 120.883 16.8667 120.785V120.752C16.8667 120.655 16.9317 120.589 17.0292 120.589C17.1267 120.589 17.1917 120.655 17.1917 120.752C17.1917 120.85 17.1267 120.948 17.0292 120.948ZM17.0292 119.612C16.9317 119.612 16.8667 119.547 16.8667 119.449V119.416C16.8667 119.319 16.9317 119.254 17.0292 119.254C17.1267 119.254 17.1917 119.319 17.1917 119.416V119.449C17.1917 119.547 17.1267 119.612 17.0292 119.612ZM17.0292 118.276C16.9317 118.276 16.8667 118.211 16.8667 118.113V118.08C16.8667 117.983 16.9317 117.918 17.0292 117.918C17.1267 117.918 17.1917 117.983 17.1917 118.08C17.1917 118.178 17.1267 118.276 17.0292 118.276ZM17.0292 116.94C16.9317 116.94 16.8667 116.875 16.8667 116.777V116.745C16.8667 116.647 16.9317 116.582 17.0292 116.582C17.1267 116.582 17.1917 116.647 17.1917 116.745V116.777C17.1917 116.875 17.1267 116.94 17.0292 116.94ZM17.0292 115.604C16.9317 115.604 16.8667 115.539 16.8667 115.441V115.409C16.8667 115.311 16.9317 115.246 17.0292 115.246C17.1267 115.246 17.1917 115.311 17.1917 115.409C17.1917 115.506 17.1267 115.604 17.0292 115.604ZM17.0292 114.268C16.9317 114.268 16.8667 114.203 16.8667 114.105V114.073C16.8667 113.975 16.9317 113.91 17.0292 113.91C17.1267 113.91 17.1917 113.975 17.1917 114.073C17.1917 114.17 17.1267 114.268 17.0292 114.268ZM17.0292 112.932C16.9317 112.932 16.8667 112.867 16.8667 112.769V112.737C16.8667 112.639 16.9317 112.574 17.0292 112.574C17.1267 112.574 17.1917 112.639 17.1917 112.737V112.769C17.1917 112.867 17.1267 112.932 17.0292 112.932ZM17.0292 111.596C16.9317 111.596 16.8667 111.531 16.8667 111.433V111.401C16.8667 111.303 16.9317 111.238 17.0292 111.238C17.1267 111.238 17.1917 111.303 17.1917 111.401C17.1917 111.498 17.1267 111.596 17.0292 111.596ZM17.0292 110.26C16.9317 110.26 16.8667 110.195 16.8667 110.097V110.065C16.8667 109.967 16.9317 109.902 17.0292 109.902C17.1267 109.902 17.1917 109.967 17.1917 110.065V110.097C17.1917 110.195 17.1267 110.26 17.0292 110.26ZM17.0292 108.924C16.9317 108.924 16.8667 108.859 16.8667 108.761V108.729C16.8667 108.631 16.9317 108.566 17.0292 108.566C17.1267 108.566 17.1917 108.631 17.1917 108.729C17.1917 108.826 17.1267 108.924 17.0292 108.924ZM17.0292 107.588C16.9317 107.588 16.8667 107.523 16.8667 107.425V107.393C16.8667 107.295 16.9317 107.23 17.0292 107.23C17.1267 107.23 17.1917 107.295 17.1917 107.393V107.425C17.1917 107.523 17.1267 107.588 17.0292 107.588ZM17.0292 106.252C16.9317 106.252 16.8667 106.187 16.8667 106.089V106.057C16.8667 105.959 16.9317 105.894 17.0292 105.894C17.1267 105.894 17.1917 105.959 17.1917 106.057V106.089C17.1917 106.187 17.1267 106.252 17.0292 106.252ZM17.0292 104.916C16.9317 104.916 16.8667 104.851 16.8667 104.753V104.721C16.8667 104.623 16.9317 104.558 17.0292 104.558C17.1267 104.558 17.1917 104.623 17.1917 104.721C17.1917 104.819 17.1267 104.916 17.0292 104.916ZM17.0292 103.58C16.9317 103.58 16.8667 103.515 16.8667 103.417V103.385C16.8667 103.287 16.9317 103.222 17.0292 103.222C17.1267 103.222 17.1917 103.287 17.1917 103.385V103.417C17.1917 103.515 17.1267 103.58 17.0292 103.58ZM17.0292 102.244C16.9317 102.244 16.8667 102.179 16.8667 102.081V102.049C16.8667 101.951 16.9317 101.886 17.0292 101.886C17.1267 101.886 17.1917 101.951 17.1917 102.049V102.081C17.1917 102.179 17.1267 102.244 17.0292 102.244ZM17.0292 100.908C16.9317 100.908 16.8667 100.843 16.8667 100.746V100.713C16.8667 100.615 16.9317 100.55 17.0292 100.55C17.1267 100.55 17.1917 100.615 17.1917 100.713V100.746C17.1917 100.843 17.1267 100.908 17.0292 100.908ZM17.0292 99.5725C16.9317 99.5725 16.8667 99.5073 16.8667 99.4096V99.377C16.8667 99.2792 16.9317 99.2141 17.0292 99.2141C17.1267 99.2141 17.1917 99.2792 17.1917 99.377V99.4096C17.1917 99.5073 17.1267 99.5725 17.0292 99.5725ZM17.0292 98.2365C16.9317 98.2365 16.8667 98.1713 16.8667 98.0736V98.041C16.8667 97.9433 16.9317 97.8781 17.0292 97.8781C17.1267 97.8781 17.1917 97.9433 17.1917 98.041C17.1917 98.1388 17.1267 98.2365 17.0292 98.2365ZM17.0292 96.9006C16.9317 96.9006 16.8667 96.8354 16.8667 96.7376V96.705C16.8667 96.6073 16.9317 96.5421 17.0292 96.5421C17.1267 96.5421 17.1917 96.6073 17.1917 96.705V96.7376C17.1917 96.8354 17.1267 96.9006 17.0292 96.9006ZM17.0292 95.5646C16.9317 95.5646 16.8667 95.4994 16.8667 95.4017V95.3691C16.8667 95.2713 16.9317 95.2062 17.0292 95.2062C17.1267 95.2062 17.1917 95.2713 17.1917 95.3691V95.4017C17.1917 95.4994 17.1267 95.5646 17.0292 95.5646ZM17.0292 94.2286C16.9317 94.2286 16.8667 94.1635 16.8667 94.0657V94.0331C16.8667 93.9354 16.9317 93.8702 17.0292 93.8702C17.1267 93.8702 17.1917 93.9354 17.1917 94.0331V94.0657C17.1917 94.1635 17.1267 94.2286 17.0292 94.2286ZM17.0292 92.8927C16.9317 92.8927 16.8667 92.8275 16.8667 92.7297V92.6972C16.8667 92.5994 16.9317 92.5342 17.0292 92.5342C17.1267 92.5342 17.1917 92.5994 17.1917 92.6972V92.7297C17.1917 92.8275 17.1267 92.8927 17.0292 92.8927ZM17.0292 91.5567C16.9317 91.5567 16.8667 91.4915 16.8667 91.3938V91.3612C16.8667 91.2634 16.9317 91.1983 17.0292 91.1983C17.1267 91.1983 17.1917 91.2634 17.1917 91.3612C17.1917 91.4589 17.1267 91.5567 17.0292 91.5567ZM17.0292 90.2207C16.9317 90.2207 16.8667 90.1556 16.8667 90.0578V90.0252C16.8667 89.9275 16.9317 89.8623 17.0292 89.8623C17.1267 89.8623 17.1917 89.9275 17.1917 90.0252V90.0578C17.1917 90.1556 17.1267 90.2207 17.0292 90.2207ZM17.0292 88.8848C16.9317 88.8848 16.8667 88.8196 16.8667 88.7218V88.6893C16.8667 88.5915 16.9317 88.5263 17.0292 88.5263C17.1267 88.5263 17.1917 88.5915 17.1917 88.6893V88.7218C17.1917 88.8196 17.1267 88.8848 17.0292 88.8848ZM17.0292 87.5488C16.9317 87.5488 16.8667 87.4836 16.8667 87.3859V87.3533C16.8667 87.2555 16.9317 87.1904 17.0292 87.1904C17.1267 87.1904 17.1917 87.2555 17.1917 87.3533V87.3859C17.1917 87.4836 17.1267 87.5488 17.0292 87.5488ZM17.0292 86.2128C16.9317 86.2128 16.8667 86.1477 16.8667 86.0499V86.0173C16.8667 85.9196 16.9317 85.8544 17.0292 85.8544C17.1267 85.8544 17.1917 85.9196 17.1917 86.0173V86.0499C17.1917 86.1477 17.1267 86.2128 17.0292 86.2128ZM17.0292 84.8769C16.9317 84.8769 16.8667 84.8117 16.8667 84.714V84.6814C16.8667 84.5836 16.9317 84.5184 17.0292 84.5184C17.1267 84.5184 17.1917 84.5836 17.1917 84.6814C17.1917 84.7791 17.1267 84.8769 17.0292 84.8769ZM17.0292 83.5409C16.9317 83.5409 16.8667 83.4757 16.8667 83.378V83.3454C16.8667 83.2477 16.9317 83.1825 17.0292 83.1825C17.1267 83.1825 17.1917 83.2477 17.1917 83.3454V83.378C17.1917 83.4757 17.1267 83.5409 17.0292 83.5409ZM17.0292 82.205C16.9317 82.205 16.8667 82.1398 16.8667 82.042V82.0094C16.8667 81.9117 16.9317 81.8465 17.0292 81.8465C17.1267 81.8465 17.1917 81.9117 17.1917 82.0094V82.042C17.1917 82.1398 17.1267 82.205 17.0292 82.205ZM17.0292 80.869C16.9317 80.869 16.8667 80.8038 16.8667 80.7061V80.6735C16.8667 80.5757 16.9317 80.5106 17.0292 80.5106C17.1267 80.5106 17.1917 80.5757 17.1917 80.6735V80.7061C17.1917 80.8038 17.1267 80.869 17.0292 80.869ZM17.0292 79.533C16.9317 79.533 16.8667 79.4679 16.8667 79.3701V79.3375C16.8667 79.2398 16.9317 79.1746 17.0292 79.1746C17.1267 79.1746 17.1917 79.2398 17.1917 79.3375V79.3701C17.1917 79.4679 17.1267 79.533 17.0292 79.533ZM17.0292 78.1971C16.9317 78.1971 16.8667 78.1319 16.8667 78.0341V78.0015C16.8667 77.9038 16.9317 77.8386 17.0292 77.8386C17.1267 77.8386 17.1917 77.9038 17.1917 78.0015C17.1917 78.0993 17.1267 78.1971 17.0292 78.1971ZM17.0292 76.8611C16.9317 76.8611 16.8667 76.7959 16.8667 76.6982V76.6656C16.8667 76.5678 16.9317 76.5027 17.0292 76.5027C17.1267 76.5027 17.1917 76.5678 17.1917 76.6656V76.6982C17.1917 76.7959 17.1267 76.8611 17.0292 76.8611ZM17.0292 75.5251C16.9317 75.5251 16.8667 75.46 16.8667 75.3622V75.3296C16.8667 75.2319 16.9317 75.1667 17.0292 75.1667C17.1267 75.1667 17.1917 75.2319 17.1917 75.3296V75.3622C17.1917 75.46 17.1267 75.5251 17.0292 75.5251ZM17.0292 74.1892C16.9317 74.1892 16.8667 74.124 16.8667 74.0262V73.9937C16.8667 73.8959 16.9317 73.8307 17.0292 73.8307C17.1267 73.8307 17.1917 73.8959 17.1917 73.9937V74.0262C17.1917 74.124 17.1267 74.1892 17.0292 74.1892ZM17.0292 72.8532C16.9317 72.8532 16.8667 72.788 16.8667 72.6903V72.6577C16.8667 72.5599 16.9317 72.4948 17.0292 72.4948C17.1267 72.4948 17.1917 72.5599 17.1917 72.6577V72.6903C17.1917 72.788 17.1267 72.8532 17.0292 72.8532ZM17.6792 71.8757C17.6142 71.8757 17.5817 71.8431 17.5492 71.7779C17.5167 71.7127 17.5167 71.615 17.6142 71.5498H17.6467C17.7117 71.5172 17.8091 71.5172 17.8741 71.615C17.9066 71.6802 17.9066 71.7779 17.8091 71.8431H17.7766C17.7117 71.8757 17.7117 71.8757 17.6792 71.8757ZM18.8491 71.224C18.7841 71.224 18.7191 71.1914 18.7191 71.1588C18.6866 71.0936 18.6866 70.9959 18.7516 70.9307H18.7841C18.8491 70.8981 18.9466 70.8981 19.0116 70.9959C19.0441 71.0611 19.0441 71.1588 18.9466 71.224C18.9141 71.1914 18.8816 71.224 18.8491 71.224ZM19.9865 70.5397C19.9215 70.5397 19.8565 70.5071 19.8565 70.4745C19.824 70.4094 19.824 70.3116 19.889 70.2464H19.9215C19.9865 70.2139 20.084 70.2139 20.149 70.3116C20.1815 70.3768 20.1815 70.4745 20.084 70.5397C20.0515 70.5397 20.019 70.5397 19.9865 70.5397ZM21.1565 69.888C21.0915 69.888 21.059 69.8554 21.0265 69.7903C20.994 69.7251 20.994 69.6273 21.0915 69.5622H21.124C21.189 69.5296 21.2864 69.5296 21.3514 69.6273C21.3839 69.6925 21.3839 69.7903 21.2864 69.8554H21.2539C21.189 69.888 21.1565 69.888 21.1565 69.888ZM22.3264 69.2363C22.2614 69.2363 22.1964 69.2037 22.1964 69.1712C22.1639 69.106 22.1639 69.0082 22.2289 68.9431H22.2614C22.3264 68.9105 22.4239 68.9105 22.4889 69.0082C22.5214 69.0734 22.5214 69.1712 22.4239 69.2363C22.3914 69.2037 22.3589 69.2363 22.3264 69.2363ZM23.4638 68.5521C23.3988 68.5521 23.3338 68.5195 23.3338 68.4869C23.3013 68.4217 23.3013 68.324 23.3663 68.2588H23.3988C23.4638 68.2262 23.5613 68.2262 23.6263 68.324C23.6588 68.3891 23.6588 68.4869 23.5613 68.5521C23.5288 68.5521 23.4963 68.5521 23.4638 68.5521ZM24.6013 67.9004C24.5363 67.9004 24.5038 67.8678 24.4713 67.8026C24.4388 67.7374 24.4388 67.6397 24.5363 67.5745H24.5688C24.6338 67.5419 24.7313 67.5419 24.7962 67.6397C24.8287 67.7049 24.8287 67.8026 24.7312 67.8678H24.6988C24.6663 67.9004 24.6338 67.9004 24.6013 67.9004ZM25.8037 67.2487C25.7387 67.2487 25.6737 67.2161 25.6737 67.1835C25.6412 67.1183 25.6412 67.0206 25.7062 66.9554H25.7387C25.8037 66.9228 25.9012 66.9228 25.9662 67.0206C25.9987 67.0857 25.9987 67.1835 25.9012 67.2487C25.8687 67.2161 25.8362 67.2487 25.8037 67.2487ZM26.9411 66.5644C26.8761 66.5644 26.8111 66.5318 26.8111 66.4992C26.7786 66.4341 26.7786 66.3363 26.8436 66.2711H26.8761C26.9411 66.2386 27.0386 66.2386 27.1036 66.3363C27.1361 66.4015 27.1361 66.4992 27.0386 66.5644C27.0061 66.5644 26.9736 66.5644 26.9411 66.5644ZM28.0786 65.9127C28.0136 65.9127 27.9811 65.8801 27.9486 65.815C27.9161 65.7498 27.9161 65.652 28.0136 65.5869H28.0461C28.1111 65.5543 28.2086 65.5543 28.2735 65.652C28.306 65.7172 28.306 65.815 28.2086 65.8801H28.1761C28.1436 65.9127 28.1111 65.9127 28.0786 65.9127ZM29.2485 65.261C29.1835 65.261 29.1185 65.2284 29.1185 65.1958C29.086 65.1307 29.086 65.0329 29.151 64.9678H29.1835C29.2485 64.9352 29.346 64.9352 29.411 65.0329C29.4435 65.0981 29.4435 65.1958 29.346 65.261C29.3135 65.2284 29.281 65.261 29.2485 65.261ZM30.4184 64.5767C30.3534 64.5767 30.2884 64.5442 30.2884 64.5116C30.2559 64.4464 30.2559 64.3487 30.3209 64.2835H30.3534C30.4184 64.2509 30.5159 64.2509 30.5809 64.3487C30.6134 64.4138 30.6134 64.5116 30.5159 64.5767C30.4834 64.5767 30.4509 64.5767 30.4184 64.5767ZM31.5559 63.9576C31.4909 63.9576 31.4584 63.9251 31.4259 63.8599C31.3934 63.7947 31.3934 63.697 31.4909 63.6318H31.5234C31.5884 63.5992 31.6859 63.5992 31.7508 63.697C31.7833 63.7621 31.7833 63.8599 31.6859 63.9251H31.6534C31.6209 63.9251 31.5884 63.9576 31.5559 63.9576Z" fill="#BDCEFA"/>
<path d="M40.2325 73.4723C40.1675 73.4723 40.1025 73.4397 40.1025 73.4071C40.07 73.3419 40.07 73.2442 40.135 73.179H40.1675C40.2325 73.1464 40.33 73.1464 40.395 73.2442C40.4275 73.3093 40.4275 73.4071 40.33 73.4723C40.2975 73.4397 40.265 73.4723 40.2325 73.4723ZM39.6801 73.0812C39.5826 73.0812 39.5176 73.0161 39.5176 72.9183V72.8857C39.5176 72.788 39.5826 72.7228 39.6801 72.7228C39.7776 72.7228 39.8426 72.788 39.8426 72.8857V72.9183C39.8426 72.9835 39.7776 73.0812 39.6801 73.0812ZM41.37 72.788C41.305 72.788 41.24 72.7554 41.24 72.7228C41.2075 72.6576 41.2075 72.5599 41.2725 72.4947H41.305C41.37 72.4621 41.4675 72.4621 41.5325 72.5599C41.565 72.6251 41.565 72.7228 41.4675 72.788C41.435 72.788 41.4025 72.788 41.37 72.788ZM42.5399 72.1363C42.4749 72.1363 42.4099 72.1037 42.4099 72.0711C42.3774 72.006 42.3774 71.9082 42.4424 71.843H42.4749C42.5399 71.8104 42.6374 71.8104 42.7024 71.9082C42.7349 71.9734 42.7349 72.0711 42.6374 72.1363C42.6049 72.1037 42.5724 72.1363 42.5399 72.1363ZM39.6801 71.7453C39.5826 71.7453 39.5176 71.6801 39.5176 71.5824V71.5498C39.5176 71.452 39.5826 71.3868 39.6801 71.3868C39.7776 71.3868 39.8426 71.452 39.8426 71.5498V71.5824C39.8426 71.6475 39.7776 71.7453 39.6801 71.7453ZM43.6773 71.452C43.6123 71.452 43.5473 71.4194 43.5473 71.3868C43.5149 71.3217 43.5149 71.2239 43.5798 71.1588H43.6123C43.6773 71.1262 43.7748 71.1262 43.8398 71.2239C43.8723 71.2891 43.8723 71.3868 43.7748 71.452C43.7423 71.452 43.7098 71.452 43.6773 71.452ZM44.8148 70.8003C44.7498 70.8003 44.7173 70.7677 44.6848 70.7352C44.6523 70.67 44.6523 70.5722 44.7498 70.5071L44.7823 70.4745C44.8473 70.4419 44.9448 70.4419 45.0098 70.5397C45.0423 70.6048 45.0423 70.7026 44.9448 70.7677L44.9123 70.8003C44.8798 70.8003 44.8473 70.8003 44.8148 70.8003ZM39.6801 70.4093C39.5826 70.4093 39.5176 70.3441 39.5176 70.2464C39.5176 70.1486 39.5826 70.0835 39.6801 70.0835C39.7776 70.0835 39.8426 70.1486 39.8426 70.2464V70.279C39.8426 70.3116 39.7776 70.4093 39.6801 70.4093ZM45.9847 70.1161C45.9197 70.1161 45.8547 70.0835 45.8547 70.0509C45.8222 69.9857 45.8222 69.888 45.8872 69.8228L45.9197 69.7902C45.9847 69.7576 46.0822 69.7576 46.1472 69.8554C46.1797 69.9205 46.1797 70.0183 46.0822 70.0835C46.0497 70.1161 46.0172 70.1161 45.9847 70.1161ZM47.1546 69.4318C47.0896 69.4318 47.0246 69.3992 47.0246 69.3666C46.9922 69.3014 46.9922 69.2037 47.0571 69.1385L47.0896 69.1059C47.1546 69.0733 47.2521 69.0734 47.3171 69.1711C47.3496 69.2363 47.3496 69.334 47.2521 69.3992C47.2196 69.4318 47.1871 69.4318 47.1546 69.4318ZM39.6801 69.0733C39.5826 69.0733 39.5176 69.0082 39.5176 68.9104V68.8778C39.5176 68.7801 39.5826 68.7149 39.6801 68.7149C39.7776 68.7149 39.8426 68.7801 39.8426 68.8778V68.9104C39.8426 68.9756 39.7776 69.0733 39.6801 69.0733ZM48.2921 68.7801C48.2271 68.7801 48.1946 68.7475 48.1621 68.7149C48.1296 68.6498 48.1296 68.552 48.2271 68.4868L48.2596 68.4542C48.3246 68.4217 48.4221 68.4217 48.4871 68.5194C48.5196 68.5846 48.5196 68.6823 48.4221 68.7475L48.3896 68.7801C48.3246 68.7801 48.3246 68.7801 48.2921 68.7801ZM49.462 68.0958C49.397 68.0958 49.332 68.0632 49.332 68.0306C49.2995 67.9655 49.2995 67.8677 49.3645 67.8026L49.397 67.77C49.462 67.7374 49.5595 67.7374 49.6245 67.8351C49.657 67.9003 49.657 67.9981 49.5595 68.0632C49.527 68.0958 49.4945 68.0958 49.462 68.0958ZM39.6801 67.7374C39.5826 67.7374 39.5176 67.6722 39.5176 67.5745V67.5419C39.5176 67.4441 39.5826 67.379 39.6801 67.379C39.7776 67.379 39.8426 67.4441 39.8426 67.5419V67.5745C39.8426 67.6396 39.7776 67.7374 39.6801 67.7374ZM50.5994 67.4441C50.5344 67.4441 50.4695 67.4115 50.4695 67.379C50.437 67.3138 50.437 67.216 50.5019 67.1509H50.5344C50.5994 67.1183 50.6969 67.1183 50.7619 67.216C50.7944 67.2812 50.7944 67.379 50.6969 67.4441C50.6644 67.4441 50.6319 67.4441 50.5994 67.4441ZM51.7369 66.7924C51.6719 66.7924 51.6394 66.7598 51.6069 66.6947C51.5744 66.6295 51.5744 66.5318 51.6719 66.4666H51.7044C51.7694 66.434 51.8669 66.434 51.9319 66.5318C51.9644 66.5969 51.9644 66.6947 51.8669 66.7598H51.8344C51.8019 66.7924 51.7694 66.7924 51.7369 66.7924ZM52.9068 66.1082C52.8418 66.1082 52.7768 66.0756 52.7768 66.043C52.7443 65.9778 52.7443 65.8801 52.8093 65.8149H52.8418C52.9068 65.7823 53.0043 65.7823 53.0693 65.8801C53.1018 65.9452 53.1018 66.043 53.0043 66.1082C52.9718 66.1082 52.9393 66.1082 52.9068 66.1082Z" fill="#BDCEFA"/>
<path d="M121.218 65.9451L109.421 72.7879C108.576 73.2766 107.049 73.2115 106.041 72.6575L94.7321 66.108C93.7246 65.5215 93.6271 64.6417 94.5046 64.153L106.301 57.3102C107.146 56.8215 108.674 56.8866 109.681 57.4406L120.991 63.9901C121.966 64.5766 122.096 65.4564 121.218 65.9451Z" fill="#E8F2FE"/>
<path d="M121.803 107.914V65.261C121.738 65.5217 121.576 65.7498 121.251 65.9453L109.454 72.788C109.031 73.0161 108.479 73.1464 107.894 73.1138V116.06C108.479 116.06 109.031 115.962 109.454 115.734L121.251 108.892C121.673 108.631 121.868 108.273 121.803 107.914Z" fill="url(#paint4_linear)"/>
<path d="M106.074 72.6251L94.7647 66.0756C94.2772 65.8149 94.0172 65.4565 93.9522 65.1306V107.784C93.8548 108.207 94.1472 108.696 94.7647 109.055L106.074 115.604C106.594 115.897 107.244 116.06 107.894 116.06V73.1138C107.244 73.0812 106.594 72.9183 106.074 72.6251Z" fill="#DDDDDD"/>
<path d="M106.074 72.6251L94.7647 66.0756C94.2772 65.8149 94.0172 65.4565 93.9522 65.1306V107.784C93.8548 108.207 94.1472 108.696 94.7647 109.055L106.074 115.604C106.594 115.897 107.244 116.06 107.894 116.06V73.1138C107.244 73.0812 106.594 72.9183 106.074 72.6251Z" fill="url(#paint5_linear)"/>
<path d="M117.676 69.9204C117.676 72.3316 116.408 73.6676 114.589 73.5047C114.166 73.5373 113.711 73.4395 113.191 73.1462L98.112 64.4136C97.982 64.3484 97.852 64.2507 97.7545 64.1855C95.2197 62.4259 93.2373 58.7765 93.2373 55.7787C93.2373 52.8461 95.1222 51.5101 97.5596 52.5203C97.917 50.4348 99.6719 49.6854 101.752 50.9236C102.434 51.3146 103.117 51.9012 103.702 52.5854C104.807 51.6405 106.497 51.6079 108.414 52.7158C111.274 54.3776 113.646 58.027 114.296 61.481C115.174 62.1001 115.824 63.3383 115.856 64.381C116.961 66.0754 117.676 68.1282 117.676 69.9204Z" fill="#0084E9"/>
<path d="M119.073 62.4913C119.041 61.4486 118.391 60.2104 117.514 59.5913C116.864 56.1373 114.491 52.4553 111.631 50.826C109.974 49.8485 108.447 49.7833 107.342 50.4024L106.887 50.6631C106.302 50.0114 105.684 49.4249 104.969 49.0339C103.799 48.3496 102.727 48.2844 101.947 48.7406L99.2171 50.3047C98.7621 50.3047 98.3722 50.4024 98.0147 50.5979L94.7974 52.4553C95.5448 52.0642 96.4873 52.0642 97.5597 52.4878C97.9172 50.4024 99.6721 49.653 101.752 50.8912C102.434 51.2822 103.117 51.8687 103.702 52.553C104.807 51.6081 106.497 51.5755 108.414 52.6833C111.274 54.3452 113.646 57.9946 114.296 61.4486C115.174 62.0677 115.824 63.3059 115.856 64.3486C116.994 66.0756 117.709 68.0958 117.709 69.9205C117.709 71.5824 117.124 72.7228 116.149 73.2116L119.366 71.3543C120.341 70.8655 120.958 69.6925 120.958 68.0307C120.926 66.2385 120.211 64.2183 119.073 62.4913Z" fill="#52A3F6"/>
<path d="M100.062 62.2957C100.062 62.8822 99.6394 63.1429 99.1194 62.8496C98.5995 62.5564 98.177 61.8395 98.177 61.2204C98.177 60.6339 98.5995 60.3732 99.1194 60.6665C99.6394 60.9597 100.062 61.6766 100.062 62.2957Z" fill="white"/>
<path d="M102.987 63.9576C102.987 64.5441 102.564 64.8048 102.044 64.5115C101.524 64.2182 101.102 63.5014 101.102 62.8823C101.102 62.2958 101.524 62.0351 102.044 62.3283C102.564 62.6216 102.987 63.371 102.987 63.9576Z" fill="white"/>
<path d="M105.912 65.6519C105.912 66.2384 105.489 66.4991 104.969 66.2058C104.449 65.9126 104.027 65.1957 104.027 64.5766C104.027 63.9901 104.449 63.7294 104.969 64.0227C105.489 64.3485 105.912 65.0654 105.912 65.6519Z" fill="white"/>
<path d="M108.804 67.3462C108.804 67.9328 108.381 68.1934 107.861 67.9002C107.341 67.6069 106.919 66.8901 106.919 66.2709C106.919 65.6844 107.341 65.4237 107.861 65.717C108.381 66.0103 108.804 66.7271 108.804 67.3462Z" fill="white"/>
<path d="M111.729 69.0081C111.729 69.5946 111.306 69.8553 110.786 69.562C110.266 69.2688 109.844 68.5519 109.844 67.9328C109.844 67.3463 110.266 67.0856 110.786 67.3789C111.306 67.7047 111.729 68.4216 111.729 69.0081Z" fill="white"/>
<path d="M121.38 139.619L99.7688 151.74C98.8263 152.294 97.1364 152.229 96.0315 151.577L88.8494 147.276C87.7445 146.624 87.6145 145.647 88.5894 145.093L110.103 132.711C111.046 132.157 112.736 132.222 113.84 132.874L121.12 137.403C122.193 138.087 122.322 139.065 121.38 139.619Z" fill="#E8F2FE"/>
<path d="M121.998 140.955V138.837C121.933 139.13 121.738 139.391 121.381 139.619L99.7693 151.74C99.3143 152.001 98.6644 152.131 98.0144 152.099V154.575C98.6644 154.575 99.2818 154.477 99.7693 154.217L121.381 142.095C121.868 141.769 122.063 141.378 121.998 140.955Z" fill="url(#paint6_linear)"/>
<path d="M95.9994 151.577L88.8173 147.276C88.2974 146.983 88.0049 146.592 87.9074 146.201V148.319C87.8099 148.807 88.1024 149.329 88.8173 149.72L95.9994 154.021C96.5844 154.347 97.2993 154.542 98.0143 154.542V152.066C97.3318 152.098 96.5844 151.903 95.9994 151.577Z" fill="url(#paint7_linear)"/>
<path d="M130.351 152.946L108.74 165.067C107.798 165.621 106.108 165.556 105.003 164.904L97.8206 160.636C96.7157 159.984 96.5857 159.007 97.5606 158.453L119.074 146.07C120.017 145.517 121.707 145.582 122.812 146.233L130.091 150.763C131.196 151.414 131.326 152.392 130.351 152.946Z" fill="#E8F2FE"/>
<path d="M131 154.314V152.196C130.935 152.49 130.74 152.75 130.382 152.978L108.771 165.1C108.316 165.36 107.666 165.491 107.016 165.458V167.935C107.666 167.935 108.284 167.837 108.771 167.576L130.382 155.455C130.87 155.129 131.065 154.738 131 154.314Z" fill="url(#paint8_linear)"/>
<path d="M105.001 164.937L97.8193 160.636C97.2993 160.342 97.0068 159.951 96.9093 159.56V161.678C96.8118 162.167 97.1043 162.688 97.8193 163.079L105.001 167.381C105.586 167.706 106.301 167.902 107.016 167.902V165.426C106.301 165.426 105.586 165.263 105.001 164.937Z" fill="url(#paint9_linear)"/>
<path d="M126.548 118.634L62.4613 155.618C59.5689 157.279 54.4992 157.084 51.1519 155.161L12.0567 132.613C8.70936 130.691 8.35188 127.725 11.2442 126.064L76.4355 89.6015C79.3278 87.9397 84.3975 88.1352 87.7448 90.0577L125.735 112.052C129.05 114.007 129.407 116.94 126.548 118.634Z" fill="#E8F2FE"/>
<path d="M128.433 118.08V116.321C128.27 117.201 127.62 118.015 126.548 118.634L62.4615 155.618C61.0641 156.432 59.1792 156.791 57.1968 156.726V159.528C59.1467 159.56 61.0641 159.235 62.4615 158.42L126.548 121.404C128.043 120.524 128.66 119.319 128.433 118.08Z" fill="url(#paint10_linear)"/>
<path d="M51.1519 155.161L12.0567 132.613C10.4643 131.701 9.55431 130.528 9.35933 129.42V131.179C9.06684 132.613 9.97679 134.21 12.0567 135.415L51.1519 157.964C52.8743 158.974 55.0842 159.495 57.1966 159.56V156.758C55.0842 156.693 52.8743 156.172 51.1519 155.161Z" fill="#C9C9C9"/>
<path d="M51.1519 155.161L12.0567 132.613C10.4643 131.701 9.55431 130.528 9.35933 129.42V131.179C9.06684 132.613 9.97679 134.21 12.0567 135.415L51.1519 157.964C52.8743 158.974 55.0842 159.495 57.1966 159.56V156.758C55.0842 156.693 52.8743 156.172 51.1519 155.161Z" fill="url(#paint11_linear)"/>
<path d="M66.3608 139L52.9716 146.755L18.9136 127.041L32.3028 119.286L66.3608 139Z" fill="white"/>
<path d="M66.3609 139V144.571L52.9717 152.327V146.755L66.3609 139Z" fill="url(#paint12_linear)"/>
<path d="M18.9136 127.041V132.58L52.9716 152.327V146.755L18.9136 127.041Z" fill="url(#paint13_linear)"/>
<path d="M38.5751 125.249L32.6929 128.638C32.2704 128.898 31.523 128.866 31.003 128.573L25.3808 125.314C24.8934 125.021 24.8284 124.597 25.2508 124.337L31.133 120.948C31.5555 120.687 32.3029 120.72 32.8229 121.013L38.4451 124.271C38.9326 124.565 38.9976 125.021 38.5751 125.249Z" fill="#9CE3F0"/>
<path d="M38.835 127.497V124.89C38.8025 125.021 38.705 125.151 38.5425 125.249L32.6603 128.638C32.4653 128.768 32.1729 128.801 31.8804 128.801V131.538C32.1729 131.538 32.4653 131.505 32.6603 131.375L38.5425 127.986C38.8025 127.856 38.8675 127.693 38.835 127.497Z" fill="#39C2D1"/>
<path d="M31.0029 128.572L25.3807 125.314C25.1532 125.184 25.0232 125.021 24.9907 124.825V127.432C24.9582 127.66 25.0882 127.888 25.3807 128.051L31.0029 131.31C31.2629 131.472 31.5878 131.538 31.9128 131.538V128.8C31.5878 128.8 31.2629 128.735 31.0029 128.572Z" fill="#20A8AF"/>
<path d="M48.9096 131.277L43.0274 134.666C42.6049 134.926 41.8575 134.894 41.3375 134.601L35.7153 131.342C35.2278 131.049 35.1628 130.625 35.5853 130.365L41.4675 126.976C41.89 126.715 42.6374 126.748 43.1574 127.041L48.7796 130.299C49.2995 130.593 49.332 131.016 48.9096 131.277Z" fill="#FF9100"/>
<path d="M49.2022 133.525V130.919C49.1697 131.049 49.0722 131.179 48.9097 131.277L43.0275 134.666C42.8325 134.796 42.54 134.829 42.2476 134.829V137.566C42.54 137.566 42.8325 137.533 43.0275 137.403L48.9097 134.014C49.1372 133.884 49.2347 133.688 49.2022 133.525Z" fill="#D87600"/>
<path d="M41.3701 134.601L35.7479 131.342C35.5204 131.212 35.3904 131.049 35.3579 130.854V133.46C35.3254 133.688 35.4554 133.916 35.7479 134.079L41.3701 137.338C41.63 137.501 41.955 137.566 42.28 137.566V134.829C41.955 134.829 41.63 134.731 41.3701 134.601Z" fill="#BC6200"/>
<path d="M59.5038 137.37L53.6216 140.759C53.1992 141.02 52.4517 140.987 51.9317 140.694L46.3095 137.435C45.8221 137.142 45.7571 136.719 46.1796 136.458L52.0617 133.069C52.4842 132.808 53.2317 132.841 53.7516 133.134L59.3738 136.393C59.8613 136.686 59.9263 137.11 59.5038 137.37Z" fill="#FFEC00"/>
<path d="M59.7637 139.619V137.012C59.7312 137.142 59.6337 137.273 59.4712 137.37L53.6215 140.759C53.4265 140.89 53.134 140.922 52.8416 140.922V143.659C53.134 143.659 53.4265 143.627 53.6215 143.496L59.5037 140.107C59.6987 139.977 59.7961 139.814 59.7637 139.619Z" fill="#D6C100"/>
<path d="M51.9316 140.694L46.3094 137.436C46.0819 137.305 45.9519 137.142 45.9194 136.947V139.554C45.8869 139.782 46.0169 140.01 46.3094 140.173L51.9316 143.431C52.1916 143.594 52.5166 143.659 52.8415 143.659V140.922C52.5166 140.922 52.1916 140.857 51.9316 140.694Z" fill="#938100"/>
<path d="M114.946 114.203C119.953 114.203 124.013 111.854 124.013 108.957C124.013 106.059 119.953 103.71 114.946 103.71C109.938 103.71 105.879 106.059 105.879 108.957C105.879 111.854 109.938 114.203 114.946 114.203Z" fill="white"/>
<path d="M121.348 112.671C117.806 114.724 112.086 114.724 108.544 112.671C106.789 111.661 105.911 110.325 105.879 108.989V114.626C105.879 115.962 106.756 117.331 108.544 118.374C112.086 120.426 117.806 120.426 121.348 118.374C123.135 117.331 124.013 115.995 124.013 114.626V108.989C124.013 110.325 123.103 111.629 121.348 112.671Z" fill="url(#paint14_linear)"/>
<path d="M114.946 104.949L120.471 108.142C117.449 109.902 112.444 109.902 109.422 108.142C106.399 106.383 106.399 103.483 109.422 101.756C111.111 100.778 113.484 100.289 115.889 100.452L114.946 104.949Z" fill="#76B5CE"/>
<path d="M109.421 108.175C107.926 107.295 107.146 106.154 107.146 104.981V108.207C107.146 109.38 107.894 110.553 109.421 111.433C112.444 113.193 117.448 113.193 120.471 111.433V108.175C117.448 109.902 112.476 109.902 109.421 108.175Z" fill="#20A8AF"/>
<path d="M114.946 104.949L120.471 108.142C117.449 109.902 112.444 109.902 109.422 108.142C106.399 106.383 106.399 103.483 109.422 101.756C111.111 100.778 113.484 100.289 115.889 100.452L114.946 104.949Z" fill="#9CE3F0"/>
<path d="M114.946 101.658L115.856 97.1611C117.611 97.2915 119.203 97.7477 120.471 98.4645C123.493 100.224 123.493 103.124 120.471 104.851L114.946 101.658Z" fill="#FF9100"/>
<path d="M114.946 101.658V104.949L120.503 108.175V104.851L114.946 101.658Z" fill="#BC6200"/>
<path d="M122.778 108.175V101.658C122.778 102.798 121.998 103.971 120.503 104.818V108.142V111.4C122.031 110.521 122.778 109.348 122.778 108.175Z" fill="#D87600"/>
<path d="M96.3558 99.9632L83.4866 92.5014C81.9591 91.6216 82.1541 90.0901 83.909 89.08C85.6639 88.0699 88.3288 87.9396 89.8562 88.8193L102.693 96.2812C104.22 97.161 104.025 98.6924 102.27 99.7026C100.516 100.713 97.8507 100.843 96.3558 99.9632Z" fill="white"/>
<path d="M102.271 99.7028C100.517 100.713 97.8517 100.843 96.3242 99.9634L83.455 92.5016C82.805 92.1106 82.4475 91.6218 82.415 91.0679V94.8803V94.9128C82.415 95.4668 82.7725 95.9881 83.455 96.3791L96.3242 103.841C97.8517 104.721 100.517 104.623 102.271 103.58C103.279 102.994 103.766 102.277 103.734 101.56V97.7151C103.734 98.3994 103.246 99.1488 102.271 99.7028Z" fill="url(#paint15_linear)"/>
<path d="M88.947 91.361C88.2971 91.752 87.2246 91.752 86.5422 91.361C85.8922 90.97 85.8922 90.3509 86.5422 89.9925C87.1921 89.6015 88.2646 89.6015 88.947 89.9925C89.6295 90.3835 89.6295 91.0026 88.947 91.361Z" fill="#BDCEFA"/>
<path d="M92.6843 93.5441C92.0344 93.9352 90.9619 93.9352 90.2795 93.5441C89.6295 93.1531 89.6295 92.534 90.2795 92.1756C90.9294 91.7846 92.0019 91.7846 92.6843 92.1756C93.3343 92.534 93.3343 93.1531 92.6843 93.5441Z" fill="#BDCEFA"/>
<path d="M96.4217 95.6948C95.7717 96.0858 94.6992 96.0858 94.0168 95.6948C93.3668 95.3038 93.3668 94.6846 94.0168 94.3262C94.6667 93.9352 95.7392 93.9352 96.4217 94.3262C97.0716 94.6846 97.0716 95.3038 96.4217 95.6948Z" fill="#BDCEFA"/>
<path d="M100.159 97.8454C99.509 98.2364 98.4365 98.2364 97.7541 97.8454C97.1041 97.4544 97.1041 96.8353 97.7541 96.4769C98.404 96.0858 99.4765 96.0858 100.159 96.4769C100.809 96.8679 100.809 97.487 100.159 97.8454Z" fill="#BDCEFA"/>
<path d="M38.6404 114.692V86.1802C38.6404 85.4633 39.0304 84.779 39.6478 84.4206L73.8359 64.6092C75.1683 63.8272 76.8582 64.8047 76.8582 66.3688V94.9128C76.8582 95.6297 76.4682 96.3139 75.8507 96.6724L41.6627 116.484C40.3303 117.233 38.6404 116.256 38.6404 114.692Z" fill="white"/>
<path d="M40.6876 116.06C40.0377 116.06 39.3552 115.539 39.3552 114.724V86.1802C39.3552 85.6914 39.6152 85.2678 40.0377 85.0071L74.2257 65.1958C74.4207 65.0654 74.6482 65.0002 74.9082 65.0002C75.5581 65.0002 76.2406 65.5216 76.2406 66.3362V94.8802C76.2406 95.369 75.9806 95.7926 75.5581 96.0533L41.3701 115.865C41.1426 115.995 40.9151 116.06 40.6876 116.06Z" fill="url(#paint16_linear)"/>
<path d="M38.6403 114.692V86.1802C38.6403 85.4634 39.0302 84.7791 39.6477 84.4207L73.8357 64.6093C74.3882 64.2835 75.0382 64.2509 75.5581 64.479L74.7457 64.0554C74.1282 63.5992 73.2833 63.5014 72.5358 63.925L38.3478 83.7038C37.7303 84.0623 37.3403 84.7465 37.3403 85.4634V114.007C37.3403 114.692 37.6653 115.278 38.1853 115.637H38.2178C38.3478 115.734 38.5103 115.8 38.6403 115.865L39.5502 116.353C38.9977 116.028 38.6403 115.441 38.6403 114.692Z" fill="url(#paint17_linear)"/>
<path d="M41.6626 119.97L66.2962 134.242C66.9137 134.601 67.6937 134.601 68.3111 134.242L102.499 114.431C103.832 113.649 103.832 111.694 102.499 110.912L77.8656 96.6399C77.2481 96.2815 76.4682 96.2815 75.8507 96.6399L41.6626 116.451C40.3302 117.233 40.3302 119.188 41.6626 119.97Z" fill="white"/>
<path d="M102.532 114.431L68.3437 134.242C67.7262 134.601 66.9463 134.601 66.3288 134.242L41.6952 119.97C41.0127 119.579 40.6877 118.895 40.6877 118.211V120.068C40.6877 120.752 41.0127 121.436 41.6952 121.827L66.3288 136.099C66.9463 136.458 67.7262 136.458 68.3437 136.099L102.532 116.288C103.182 115.93 103.507 115.278 103.539 114.626V114.594C103.539 114.561 103.539 114.496 103.539 114.463V112.769C103.539 113.421 103.182 114.04 102.532 114.431ZM103.539 112.573C103.539 112.606 103.539 112.606 103.539 112.573V112.573Z" fill="url(#paint18_linear)"/>
<path d="M89.7925 108.826L60.4142 125.835C59.2767 126.487 57.2618 126.422 55.9294 125.64L47.1224 120.524C45.79 119.742 45.66 118.602 46.7974 117.95L76.1757 100.941C77.3132 100.289 79.3281 100.354 80.6605 101.136L89.5 106.252C90.7999 107.002 90.9299 108.175 89.7925 108.826Z" fill="#B8D0F6"/>
<path d="M46.7973 118.341L76.1756 101.332C77.313 100.68 79.3279 100.745 80.6603 101.527L89.4998 106.643C90.1173 107.002 90.4748 107.458 90.5723 107.914C90.7022 107.36 90.3123 106.708 89.4998 106.252L80.6603 101.136C79.3279 100.354 77.3455 100.289 76.1756 100.941L46.7973 117.95C46.2123 118.308 45.9523 118.765 46.0498 119.286C46.1148 118.928 46.3423 118.602 46.7973 118.341Z" fill="#99B6E0"/>
<path d="M70.4885 108.729L68.9286 107.816L67.3686 108.729L68.9286 109.641L70.4885 108.729ZM67.4336 110.488L65.8737 109.576L64.3138 110.488L65.8737 111.401L67.4336 110.488ZM73.5433 106.937L71.9834 106.024L70.4235 106.937L71.9834 107.849L73.5433 106.937ZM82.4478 107.881L85.6976 105.992L84.1377 105.079L80.8879 106.969L82.4478 107.881ZM83.0652 104.493L81.5053 103.58L79.9454 104.493L81.5053 105.405L83.0652 104.493ZM76.6306 105.177L75.0707 104.265L73.5108 105.177L75.0707 106.089L76.6306 105.177ZM64.3788 112.28L62.8189 111.368L61.259 112.28L62.8189 113.193L64.3788 112.28ZM80.3679 107.295L53.5244 122.838L55.0843 123.75L81.9278 108.207L80.3679 107.295ZM61.324 114.04L59.7641 113.128L58.2042 114.04L59.7641 114.952L61.324 114.04ZM79.133 104.949L50.8921 121.306L52.452 122.219L80.6929 105.861L79.133 104.949ZM86.77 106.643L56.1568 124.369L57.7167 125.282L88.3299 107.556L86.77 106.643ZM55.1818 117.592L53.6219 116.679L52.062 117.592L53.6219 118.504L55.1818 117.592ZM58.2367 115.8L56.6768 114.887L55.1168 115.8L56.6768 116.712L58.2367 115.8Z" fill="#99B6E0"/>
<path d="M70.4885 108.435L68.9286 107.523L67.3686 108.435L68.9286 109.348L70.4885 108.435ZM67.4336 110.227L65.8737 109.315L64.3138 110.227L65.8737 111.14L67.4336 110.227ZM73.5433 106.676L71.9834 105.763L70.4235 106.676L71.9834 107.588L73.5433 106.676ZM82.4478 107.621L85.6976 105.731L84.1377 104.818L80.8879 106.708L82.4478 107.621ZM83.0652 104.232L81.5053 103.32L79.9454 104.232L81.5053 105.144L83.0652 104.232ZM76.6306 104.916L75.0707 104.004L73.5108 104.916L75.0707 105.829L76.6306 104.916ZM64.3788 111.987L62.8189 111.075L61.259 111.987L62.8189 112.899L64.3788 111.987ZM80.3679 107.034L53.5244 122.577L55.0843 123.489L81.9278 107.947L80.3679 107.034ZM61.324 113.779L59.7641 112.867L58.2042 113.779L59.7641 114.692L61.324 113.779ZM79.133 104.688L50.8921 121.046L52.452 121.958L80.6929 105.6L79.133 104.688ZM86.77 106.35L56.1568 124.076L57.7167 124.988L88.3299 107.262L86.77 106.35ZM55.1818 117.298L53.6219 116.386L52.062 117.298L53.6219 118.211L55.1818 117.298ZM58.2367 115.539L56.6768 114.626L55.1168 115.539L56.6768 116.451L58.2367 115.539Z" fill="#E4F2FF"/>
<path d="M71.9834 105.894L73.4133 106.741L73.5433 106.676L71.9834 105.763L70.4235 106.676L70.5535 106.741L71.9834 105.894ZM75.0707 104.134L76.5006 104.981L76.6306 104.916L75.0707 104.004L73.5108 104.916L73.6408 104.981L75.0707 104.134ZM68.9286 107.686L70.3585 108.533L70.4885 108.468L68.9286 107.556L67.3686 108.468L67.4986 108.533L68.9286 107.686ZM81.0179 106.774L84.1377 104.949L85.5676 105.796L85.6976 105.731L84.1377 104.818L80.8879 106.708L81.0179 106.774ZM65.8737 109.445L67.3036 110.293L67.4336 110.227L65.8737 109.315L64.3138 110.227L64.4438 110.293L65.8737 109.445ZM81.5053 103.45L82.9352 104.297L83.0652 104.232L81.5053 103.32L79.9454 104.232L80.0754 104.297L81.5053 103.45ZM86.77 106.35L56.1568 124.076L56.2868 124.141L86.8025 106.48L88.2324 107.327L88.3624 107.262L86.77 106.35ZM80.5629 105.666L80.6929 105.6L79.133 104.688L50.8921 121.046L51.0221 121.111L79.133 104.818L80.5629 105.666ZM53.6219 116.549L55.0518 117.396L55.1818 117.331L53.6219 116.419L52.062 117.331L52.192 117.396L53.6219 116.549ZM81.7978 107.979L81.9278 107.914L80.3679 107.002L53.5244 122.544L53.6544 122.61L80.3679 107.132L81.7978 107.979ZM56.6768 114.757L58.1067 115.604L58.2367 115.539L56.6768 114.626L55.1168 115.539L55.2468 115.604L56.6768 114.757ZM62.8189 111.238L64.2488 112.085L64.3788 112.02L62.8189 111.107L61.259 112.02L61.389 112.085L62.8189 111.238ZM59.7641 112.997L61.194 113.844L61.324 113.779L59.7641 112.867L58.2042 113.779L58.3342 113.844L59.7641 112.997Z" fill="white"/>
<path d="M87.3876 118.83L78.2231 124.141C77.6706 124.467 76.6632 124.434 76.0132 124.043L73.9983 122.87C73.3484 122.479 73.2834 121.925 73.8359 121.567L83.0003 116.256C83.5528 115.93 84.5603 115.962 85.2102 116.353L87.2251 117.526C87.8751 117.917 87.9726 118.504 87.3876 118.83Z" fill="#B8D0F6"/>
<path d="M73.8357 121.86L83.0002 116.549C83.5527 116.223 84.5601 116.256 85.2101 116.647L87.225 117.82C87.5174 117.983 87.6799 118.211 87.7449 118.406C87.8099 118.113 87.6474 117.787 87.225 117.526L85.2101 116.353C84.5601 115.962 83.5527 115.93 83.0002 116.256L73.8357 121.567C73.5107 121.762 73.4132 121.99 73.4782 122.251C73.5107 122.121 73.6407 121.958 73.8357 121.86Z" fill="#99B6E0"/>
<path d="M71.366 75.0038V73.9611C71.366 73.0487 70.716 72.6903 69.9361 73.1465L45.5625 87.2556C44.7825 87.7117 44.1326 88.8196 44.1326 89.732V90.7747L71.366 75.0038Z" fill="white"/>
<path d="M46.6675 87.9399C46.6675 88.2983 46.4075 88.7545 46.0825 88.9174C45.7575 89.1129 45.4976 88.95 45.4976 88.5916C45.4976 88.2331 45.7575 87.777 46.0825 87.614C46.44 87.4511 46.6675 87.5814 46.6675 87.9399Z" fill="white"/>
<path d="M48.6824 86.7992C48.6824 87.1577 48.4224 87.6139 48.0974 87.7768C47.7724 87.9723 47.5125 87.8094 47.5125 87.4509C47.5125 87.0925 47.7724 86.6363 48.0974 86.4734C48.4224 86.3105 48.6824 86.4408 48.6824 86.7992Z" fill="white"/>
<path d="M50.6973 85.6263C50.6973 85.9847 50.4373 86.4409 50.1123 86.6038C49.7873 86.7993 49.5273 86.6364 49.5273 86.278C49.5273 85.9195 49.7873 85.4634 50.1123 85.3004C50.4373 85.1049 50.6973 85.2678 50.6973 85.6263Z" fill="white"/>
<path d="M48.4873 93.3486L44.165 95.8576V91.9149L48.4873 89.4385V93.3486Z" fill="#FFEC00"/>
<path d="M53.8496 90.2533L49.5598 92.7297V88.8196L53.8496 86.3105V90.2533Z" fill="#FF9100"/>
<path d="M59.2441 87.1252L54.9219 89.6342V85.6915L59.2441 83.2151V87.1252Z" fill="#9CE3F0"/>
<path d="M60.7065 86.2779L71.3659 80.1194V79.2722L60.7065 85.4307V86.2779Z" fill="url(#paint19_linear)"/>
<path d="M60.7065 84.714L71.3659 78.5556V77.741L60.7065 83.8994V84.714Z" fill="url(#paint20_linear)"/>
<path d="M60.7065 83.1824L71.3659 76.9914V76.1768L60.7065 82.3352V83.1824Z" fill="url(#paint21_linear)"/>
<path d="M70.4235 89.0802L45.1075 103.743C44.5875 104.036 44.165 103.711 44.165 103.026V98.3016C44.165 97.6173 44.5875 96.8027 45.1075 96.5095L70.4235 81.8465C70.9435 81.5532 71.366 81.879 71.366 82.5633V87.2881C71.366 87.9723 70.9435 88.787 70.4235 89.0802Z" fill="white"/>
<path d="M55.2794 96.8027L51.9646 98.7252V94.6195L55.2794 92.697V96.8027Z" fill="#FFEC00"/>
<path d="M59.4391 94.3915L56.1243 96.3139V92.86L59.4391 90.9375V94.3915Z" fill="#9CE3F0"/>
<path d="M63.5665 92.0128L60.2517 93.9352V88.8846L63.5665 86.9622V92.0128Z" fill="#FF9100"/>
<path d="M69.5137 88.0701L70.4236 87.5487V86.7341L69.5137 87.2555V88.0701Z" fill="url(#paint22_linear)"/>
<path d="M69.5137 86.5061L70.4236 86.0174V85.1702L69.5137 85.6915V86.5061Z" fill="url(#paint23_linear)"/>
<path d="M69.5137 84.9746L70.4236 84.4533V83.6387L69.5137 84.1274V84.9746Z" fill="url(#paint24_linear)"/>
<path d="M64.5088 90.9702L69.091 88.3308V87.4836L64.5088 90.1556V90.9702Z" fill="url(#paint25_linear)"/>
<path d="M64.5088 89.4387L69.091 86.7668V85.9521L64.5088 88.5915V89.4387Z" fill="url(#paint26_linear)"/>
<path d="M64.5088 87.8745L69.091 85.2026V84.3879L64.5088 87.0599V87.8745Z" fill="url(#paint27_linear)"/>
<path d="M46.0501 97.7476L45.1726 98.2363V99.0835L46.0501 98.5622V97.7476Z" fill="url(#paint28_linear)"/>
<path d="M46.0501 99.2791L45.1726 99.8004V100.615L46.0501 100.126V99.2791Z" fill="url(#paint29_linear)"/>
<path d="M46.0501 100.843L45.1726 101.365V102.179L46.0501 101.658V100.843Z" fill="url(#paint30_linear)"/>
<path d="M51.0872 94.8152L46.4724 97.4871V98.3017L51.0872 95.6624V94.8152Z" fill="url(#paint31_linear)"/>
<path d="M51.0872 96.3792L46.4724 99.0511V99.8657L51.0872 97.1938V96.3792Z" fill="url(#paint32_linear)"/>
<path d="M51.0872 97.9106L46.4724 100.583V101.43L51.0872 98.7578V97.9106Z" fill="url(#paint33_linear)"/>
<path d="M69.5462 93.6095L46.375 107.034C45.8875 107.328 45.4976 107.002 45.4976 106.383C45.4976 105.731 45.8875 104.981 46.375 104.721L69.5462 91.296C70.0337 91.0027 70.4236 91.3286 70.4236 91.9477C70.4236 92.5668 70.0337 93.3162 69.5462 93.6095Z" fill="white"/>
<path d="M45.4324 110.879L23.4637 123.587C22.7812 123.978 22.2288 123.554 22.2288 122.642V101.821C22.2288 100.908 22.7812 99.833 23.4637 99.442L45.4324 86.734C46.1149 86.343 46.6674 86.7666 46.6674 87.679V108.5C46.6674 109.413 46.1149 110.488 45.4324 110.879Z" fill="url(#paint34_linear)"/>
<path d="M44.7501 108.761L24.1138 120.687V119.123L44.7501 107.197V108.761Z" fill="url(#paint35_linear)"/>
<path d="M40.8179 99.3117C40.8179 103.385 37.958 108.338 34.4482 110.39C30.9384 112.443 28.0786 110.781 28.0786 106.708C28.0786 102.635 30.9384 97.6825 34.4482 95.6297C37.958 93.6094 40.8179 95.2387 40.8179 99.3117Z" fill="url(#paint36_linear)"/>
<path d="M90.5399 78.9462L68.5711 91.6542C67.8887 92.0452 67.3362 91.6216 67.3362 90.7092V74.4495C67.3362 73.5372 67.8887 72.4619 68.5711 72.0709L90.5399 59.3629C91.2223 58.9719 91.7748 59.3955 91.7748 60.3079V76.5675C91.7748 77.4799 91.2223 78.5552 90.5399 78.9462Z" fill="url(#paint37_linear)"/>
<path d="M89.8575 76.2093L69.2537 88.1352V86.6038L89.8575 74.6453V76.2093Z" fill="url(#paint38_linear)"/>
<path d="M89.8575 73.0158L69.2537 84.9744V83.4103L89.8575 71.4844V73.0158Z" fill="url(#paint39_linear)"/>
<path d="M75.2007 77.8059L69.676 80.9992V74.6126L75.2007 71.3867V77.8059Z" fill="url(#paint40_linear)"/>
<path d="M82.3179 73.7001L76.7932 76.8934V70.4743L82.3179 67.281V73.7001Z" fill="url(#paint41_linear)"/>
<path d="M89.4348 69.562L83.9102 72.7552V66.3687L89.4348 63.1428V69.562Z" fill="url(#paint42_linear)"/>
<path d="M35.8462 142.258L24.0494 149.068C23.2045 149.557 21.677 149.492 20.6696 148.938L9.36025 142.388C8.35281 141.802 8.25531 140.922 9.13276 140.433L20.9296 133.591C21.7745 133.102 23.302 133.167 24.3094 133.721L35.6187 140.27C36.5937 140.857 36.7237 141.737 35.8462 142.258Z" fill="#E8F2FE"/>
<path d="M36.3977 163.08V141.541C36.3327 141.802 36.1702 142.03 35.8453 142.226L24.0484 149.068C23.626 149.296 23.0735 149.427 22.4885 149.394V171.226C23.0735 171.226 23.626 171.128 24.0484 170.9L35.8453 164.057C36.3002 163.829 36.4952 163.438 36.3977 163.08Z" fill="url(#paint43_linear)"/>
<path d="M20.6685 148.938L9.35918 142.388C8.87171 142.128 8.61173 141.769 8.54673 141.443V162.982C8.44924 163.405 8.74172 163.894 9.35918 164.253L20.6685 170.802C21.1885 171.095 21.8385 171.258 22.4884 171.258V149.427C21.871 149.394 21.1885 149.231 20.6685 148.938Z" fill="url(#paint44_linear)"/>
<path d="M24.9364 144.621C28.0295 142.831 28.0271 137.021 24.931 131.644C21.835 126.267 16.8177 123.36 13.7246 125.151C10.6315 126.942 10.6339 132.752 13.73 138.128C16.826 143.505 21.8434 146.412 24.9364 144.621Z" fill="#007DC9"/>
<path d="M24.3677 143.634C27.1499 142.023 27.1502 136.801 24.3682 131.97C21.5862 127.139 17.0755 124.528 14.2933 126.138C11.5111 127.749 11.5109 132.971 14.2928 137.802C17.0748 142.633 21.5855 145.244 24.3677 143.634Z" fill="#0084E9"/>
<path d="M23.431 123.359C21.2212 122.088 19.2388 121.958 17.8088 122.805L13.7466 125.151C15.1765 124.337 17.1589 124.467 19.3363 125.705C23.7235 128.247 27.2658 134.405 27.2658 139.456C27.2658 141.965 26.3884 143.757 24.9584 144.572L29.0207 142.226C30.4506 141.411 31.3606 139.619 31.3606 137.077C31.3606 132.027 27.8183 125.868 23.431 123.359Z" fill="#52A3F6"/>
<path d="M17.3213 136.458C17.6463 136.458 18.0038 136.556 18.3613 136.653C18.3938 136.653 18.4263 136.686 18.4588 136.686C18.6863 136.751 18.8813 136.849 19.1087 136.979V134.992L16.9639 133.753C17.0289 134.666 17.1264 135.578 17.3213 136.458Z" fill="white"/>
<path d="M21.5135 133.037C21.546 133.037 21.611 133.037 21.6435 133.037C21.676 133.037 21.7085 133.037 21.741 133.037C22.001 133.004 22.2284 132.972 22.4559 132.874C21.9035 131.961 21.286 131.179 20.571 130.56C20.7985 130.951 20.9935 131.407 21.1885 131.929C21.3185 132.255 21.416 132.646 21.5135 133.037Z" fill="white"/>
<path d="M18.7514 129.322C18.3614 129.322 18.0039 129.583 17.7114 130.104C17.6139 130.267 17.5164 130.495 17.4189 130.723C17.7439 131.082 18.0689 131.407 18.4264 131.701C18.4589 131.733 18.4914 131.766 18.5239 131.766C18.7189 131.929 18.9139 132.059 19.1413 132.222V129.518C19.1089 129.485 19.1089 129.518 19.1089 129.485C18.9789 129.42 18.8814 129.355 18.7514 129.322Z" fill="white"/>
<path d="M18.4264 137.077C18.0689 136.947 17.7439 136.914 17.4189 136.882C17.5164 137.207 17.5814 137.501 17.7114 137.794C18.0039 138.641 18.3614 139.358 18.7514 139.814C18.8814 139.912 18.9789 139.977 19.1089 140.042C19.1089 140.042 19.1089 140.042 19.1413 140.075V137.37C18.9139 137.273 18.7189 137.175 18.5239 137.11C18.4914 137.11 18.4589 137.077 18.4264 137.077Z" fill="white"/>
<path d="M18.3613 132.026C18.0038 131.733 17.6463 131.375 17.3213 131.016C17.1263 131.668 17.0288 132.483 16.9963 133.362L19.1412 134.601V132.613C18.8812 132.45 18.6862 132.32 18.4913 132.124C18.4588 132.092 18.4263 132.059 18.3613 132.026Z" fill="white"/>
<path d="M17.0613 130.723C16.9963 130.658 16.9313 130.593 16.8988 130.528C16.8663 130.495 16.8338 130.462 16.8013 130.397C16.5413 130.039 16.2813 129.68 16.0538 129.322C15.2414 129.811 14.7864 130.756 14.7539 132.059L16.7363 133.2C16.7363 132.255 16.8663 131.407 17.0613 130.723Z" fill="white"/>
<path d="M17.1587 136.882C17.1262 136.882 17.0937 136.882 17.0287 136.882C16.9962 136.882 16.9637 136.882 16.9312 136.882C16.7038 136.914 16.4763 136.979 16.2488 137.077C16.7688 137.892 17.3537 138.641 18.0362 139.228C17.8087 138.837 17.6137 138.38 17.4187 137.859C17.3537 137.566 17.2562 137.24 17.1587 136.882Z" fill="white"/>
<path d="M16.8988 136.458C16.9638 136.458 16.9963 136.458 17.0613 136.458C16.8663 135.546 16.7363 134.568 16.7363 133.591L14.7539 132.45C14.7864 133.851 15.2739 135.35 16.0538 136.686C16.2813 136.588 16.5413 136.491 16.8013 136.458C16.8338 136.491 16.8663 136.458 16.8988 136.458Z" fill="white"/>
<path d="M17.0612 130.267C17.0937 130.332 17.1262 130.365 17.1912 130.397C17.2887 130.169 17.3862 129.941 17.4837 129.746C17.6786 129.452 17.8736 129.224 18.1011 129.061C17.4512 128.898 16.8337 128.931 16.3137 129.159C16.5087 129.485 16.7362 129.811 16.9962 130.137C16.9962 130.169 17.0287 130.234 17.0612 130.267Z" fill="white"/>
<path d="M21.6108 138.967C21.6758 139.032 21.7408 139.097 21.7733 139.195C21.8058 139.228 21.8383 139.26 21.8708 139.325C22.1633 139.684 22.4233 140.042 22.6833 140.466C23.3982 139.977 23.8532 139.065 23.8857 137.794L21.9033 136.653C21.9033 137.533 21.8058 138.315 21.6108 138.967Z" fill="white"/>
<path d="M20.2135 132.776C20.571 132.906 20.9285 133.004 21.2534 133.036C21.1559 132.678 21.0584 132.32 20.9609 131.994C20.6685 131.147 20.311 130.43 19.8885 129.974C19.7585 129.876 19.661 129.811 19.531 129.745L19.4985 129.713V132.45C19.726 132.58 19.921 132.678 20.116 132.743C20.1485 132.743 20.181 132.743 20.2135 132.776Z" fill="white"/>
<path d="M21.6435 139.456C21.611 139.391 21.546 139.358 21.5135 139.293C21.416 139.554 21.3185 139.814 21.1885 140.042C20.9935 140.336 20.7985 140.564 20.571 140.727C21.286 140.922 21.936 140.857 22.4559 140.596C22.2284 140.238 21.9685 139.912 21.741 139.586C21.7085 139.521 21.676 139.488 21.6435 139.456Z" fill="white"/>
<path d="M21.8708 133.46C21.8383 133.46 21.8058 133.46 21.7733 133.46C21.7083 133.46 21.6433 133.46 21.6108 133.46C21.8058 134.34 21.9033 135.318 21.9033 136.197L23.8857 137.338C23.8532 136.067 23.4307 134.601 22.6833 133.232C22.4233 133.363 22.1633 133.428 21.8708 133.46Z" fill="white"/>
<path d="M21.3509 133.428C20.9934 133.395 20.636 133.297 20.2785 133.167C20.246 133.167 20.2135 133.134 20.181 133.134C19.9535 133.037 19.726 132.939 19.4985 132.809V134.796L21.6434 136.034C21.6109 135.187 21.5134 134.275 21.3509 133.428Z" fill="white"/>
<path d="M20.2785 137.729C20.636 138.022 21.0259 138.348 21.3509 138.706C21.5134 138.087 21.6109 137.305 21.6434 136.458L19.4985 135.22V137.207C19.726 137.338 19.9535 137.501 20.181 137.664C20.2135 137.664 20.246 137.696 20.2785 137.729Z" fill="white"/>
<path d="M21.2534 139C20.9285 138.641 20.571 138.315 20.2135 138.055C20.181 138.022 20.1485 137.99 20.116 137.99C19.921 137.827 19.6935 137.696 19.4985 137.566V140.303L19.531 140.336C19.661 140.401 19.7585 140.466 19.8885 140.499C20.2785 140.499 20.636 140.238 20.9609 139.716C21.0584 139.488 21.1559 139.26 21.2534 139Z" fill="white"/>
<defs>
<linearGradient id="paint0_linear" x1="19.4899" y1="51.1483" x2="4.16972" y2="83.7794" gradientUnits="userSpaceOnUse">
<stop stop-color="#E4F2FF"/>
<stop offset="0.3075" stop-color="#D7E6FD" stop-opacity="0.6923"/>
<stop offset="0.9993" stop-color="#BDCEFA" stop-opacity="0"/>
</linearGradient>
<linearGradient id="paint1_linear" x1="29.8561" y1="50.8914" x2="41.502" y2="98.0596" gradientUnits="userSpaceOnUse">
<stop stop-color="#E4F2FF"/>
<stop offset="0.3075" stop-color="#D7E6FD" stop-opacity="0.6923"/>
<stop offset="0.9993" stop-color="#BDCEFA" stop-opacity="0"/>
</linearGradient>
<linearGradient id="paint2_linear" x1="57.4961" y1="27.8068" x2="56.9763" y2="54.5069" gradientUnits="userSpaceOnUse">
<stop stop-color="#E4F2FF"/>
<stop offset="0.3075" stop-color="#D7E6FD" stop-opacity="0.6923"/>
<stop offset="0.9993" stop-color="#BDCEFA" stop-opacity="0"/>
</linearGradient>
<linearGradient id="paint3_linear" x1="19.8257" y1="82.5642" x2="15.1477" y2="117.038" gradientUnits="userSpaceOnUse">
<stop stop-color="#E4F2FF"/>
<stop offset="0.3075" stop-color="#D7E6FD" stop-opacity="0.6923"/>
<stop offset="0.9993" stop-color="#BDCEFA" stop-opacity="0"/>
</linearGradient>
<linearGradient id="paint4_linear" x1="125.517" y1="69.4126" x2="102.345" y2="115.307" gradientUnits="userSpaceOnUse">
<stop stop-color="#E4F2FF"/>
<stop offset="0.0555438" stop-color="#E1EFFF"/>
<stop offset="0.6478" stop-color="#C7D7FB"/>
<stop offset="0.9993" stop-color="#BDCEFA"/>
</linearGradient>
<linearGradient id="paint5_linear" x1="130.382" y1="46.6139" x2="92.981" y2="102.133" gradientUnits="userSpaceOnUse">
<stop stop-color="#E4F2FF"/>
<stop offset="0.0555438" stop-color="#E1EFFF"/>
<stop offset="0.6478" stop-color="#C7D7FB"/>
<stop offset="0.9993" stop-color="#BDCEFA"/>
</linearGradient>
<linearGradient id="paint6_linear" x1="121.974" y1="137.606" x2="72.6787" y2="175.523" gradientUnits="userSpaceOnUse">
<stop stop-color="#E4F2FF"/>
<stop offset="0.0555438" stop-color="#E1EFFF"/>
<stop offset="0.6478" stop-color="#C7D7FB"/>
<stop offset="0.9993" stop-color="#BDCEFA"/>
</linearGradient>
<linearGradient id="paint7_linear" x1="107.406" y1="137.289" x2="89.9359" y2="153.079" gradientUnits="userSpaceOnUse">
<stop stop-color="#E4F2FF"/>
<stop offset="0.0555438" stop-color="#E1EFFF"/>
<stop offset="0.6478" stop-color="#C7D7FB"/>
<stop offset="0.9993" stop-color="#BDCEFA"/>
</linearGradient>
<linearGradient id="paint8_linear" x1="129.781" y1="152.59" x2="83.5449" y2="185.141" gradientUnits="userSpaceOnUse">
<stop stop-color="#E4F2FF"/>
<stop offset="0.0555438" stop-color="#E1EFFF"/>
<stop offset="0.6478" stop-color="#C7D7FB"/>
<stop offset="0.9993" stop-color="#BDCEFA"/>
</linearGradient>
<linearGradient id="paint9_linear" x1="122.411" y1="150.785" x2="100.658" y2="164.504" gradientUnits="userSpaceOnUse">
<stop stop-color="#E4F2FF"/>
<stop offset="0.0555438" stop-color="#E1EFFF"/>
<stop offset="0.6478" stop-color="#C7D7FB"/>
<stop offset="0.9993" stop-color="#BDCEFA"/>
</linearGradient>
<linearGradient id="paint10_linear" x1="134.592" y1="106.127" x2="52.156" y2="169.432" gradientUnits="userSpaceOnUse">
<stop stop-color="#E4F2FF"/>
<stop offset="0.0555438" stop-color="#E1EFFF"/>
<stop offset="0.6478" stop-color="#C7D7FB"/>
<stop offset="0.9993" stop-color="#BDCEFA"/>
</linearGradient>
<linearGradient id="paint11_linear" x1="87.2714" y1="152.174" x2="54.6618" y2="147.578" gradientUnits="userSpaceOnUse">
<stop stop-color="#E4F2FF"/>
<stop offset="0.0555438" stop-color="#E1EFFF"/>
<stop offset="0.6478" stop-color="#C7D7FB"/>
<stop offset="0.9993" stop-color="#BDCEFA"/>
</linearGradient>
<linearGradient id="paint12_linear" x1="65.8509" y1="139.527" x2="25.6105" y2="179.174" gradientUnits="userSpaceOnUse">
<stop stop-color="#E4F2FF"/>
<stop offset="0.0555438" stop-color="#E1EFFF"/>
<stop offset="0.6478" stop-color="#C7D7FB"/>
<stop offset="0.9993" stop-color="#BDCEFA"/>
</linearGradient>
<linearGradient id="paint13_linear" x1="86.0829" y1="154.267" x2="25.6116" y2="136.757" gradientUnits="userSpaceOnUse">
<stop stop-color="#E4F2FF"/>
<stop offset="0.0555438" stop-color="#E1EFFF"/>
<stop offset="0.6478" stop-color="#C7D7FB"/>
<stop offset="0.9993" stop-color="#BDCEFA"/>
</linearGradient>
<linearGradient id="paint14_linear" x1="130.657" y1="113.761" x2="106.121" y2="114.572" gradientUnits="userSpaceOnUse">
<stop stop-color="#E4F2FF"/>
<stop offset="0.0555438" stop-color="#E1EFFF"/>
<stop offset="0.6478" stop-color="#C7D7FB"/>
<stop offset="0.9993" stop-color="#BDCEFA"/>
</linearGradient>
<linearGradient id="paint15_linear" x1="103.889" y1="102.969" x2="84.8527" y2="92.1783" gradientUnits="userSpaceOnUse">
<stop stop-color="#E4F2FF"/>
<stop offset="0.0555438" stop-color="#E1EFFF"/>
<stop offset="0.6478" stop-color="#C7D7FB"/>
<stop offset="0.9993" stop-color="#BDCEFA"/>
</linearGradient>
<linearGradient id="paint16_linear" x1="28.1032" y1="139.156" x2="83.8432" y2="48.298" gradientUnits="userSpaceOnUse">
<stop stop-color="#0F123B"/>
<stop offset="0.0744209" stop-color="#141754"/>
<stop offset="0.2081" stop-color="#1B1F7A"/>
<stop offset="0.3474" stop-color="#212599"/>
<stop offset="0.4915" stop-color="#262AB2"/>
<stop offset="0.6426" stop-color="#292DC3"/>
<stop offset="0.8051" stop-color="#2B2FCE"/>
<stop offset="0.9993" stop-color="#2C30D1"/>
</linearGradient>
<linearGradient id="paint17_linear" x1="72.0788" y1="60.3713" x2="33.7745" y2="105.889" gradientUnits="userSpaceOnUse">
<stop stop-color="#E4F2FF"/>
<stop offset="0.0555438" stop-color="#E1EFFF"/>
<stop offset="0.6478" stop-color="#C7D7FB"/>
<stop offset="0.9993" stop-color="#BDCEFA"/>
</linearGradient>
<linearGradient id="paint18_linear" x1="113.197" y1="119.506" x2="54.3846" y2="127.201" gradientUnits="userSpaceOnUse">
<stop stop-color="#E4F2FF"/>
<stop offset="0.0555438" stop-color="#E1EFFF"/>
<stop offset="0.6478" stop-color="#C7D7FB"/>
<stop offset="0.9993" stop-color="#BDCEFA"/>
</linearGradient>
<linearGradient id="paint19_linear" x1="60.7218" y1="82.7778" x2="71.3692" y2="82.7778" gradientUnits="userSpaceOnUse">
<stop stop-color="#FCFDFF" stop-opacity="0"/>
<stop offset="0.1209" stop-color="#FCFAD7" stop-opacity="0.121"/>
<stop offset="0.3661" stop-color="#FDF58C" stop-opacity="0.3663"/>
<stop offset="0.5853" stop-color="#FEF150" stop-opacity="0.5857"/>
<stop offset="0.7704" stop-color="#FFEE24" stop-opacity="0.771"/>
<stop offset="0.9143" stop-color="#FFED0A" stop-opacity="0.9149"/>
<stop offset="0.9993" stop-color="#FFEC00"/>
</linearGradient>
<linearGradient id="paint20_linear" x1="60.7218" y1="81.2272" x2="71.3692" y2="81.2272" gradientUnits="userSpaceOnUse">
<stop stop-color="#FCFDFF" stop-opacity="0"/>
<stop offset="0.1209" stop-color="#FCFAD7" stop-opacity="0.121"/>
<stop offset="0.3661" stop-color="#FDF58C" stop-opacity="0.3663"/>
<stop offset="0.5853" stop-color="#FEF150" stop-opacity="0.5857"/>
<stop offset="0.7704" stop-color="#FFEE24" stop-opacity="0.771"/>
<stop offset="0.9143" stop-color="#FFED0A" stop-opacity="0.9149"/>
<stop offset="0.9993" stop-color="#FFEC00"/>
</linearGradient>
<linearGradient id="paint21_linear" x1="60.7218" y1="79.6762" x2="71.3692" y2="79.6762" gradientUnits="userSpaceOnUse">
<stop stop-color="#FCFDFF" stop-opacity="0"/>
<stop offset="0.1209" stop-color="#FCFAD7" stop-opacity="0.121"/>
<stop offset="0.3661" stop-color="#FDF58C" stop-opacity="0.3663"/>
<stop offset="0.5853" stop-color="#FEF150" stop-opacity="0.5857"/>
<stop offset="0.7704" stop-color="#FFEE24" stop-opacity="0.771"/>
<stop offset="0.9143" stop-color="#FFED0A" stop-opacity="0.9149"/>
<stop offset="0.9993" stop-color="#FFEC00"/>
</linearGradient>
<linearGradient id="paint22_linear" x1="64.1211" y1="91.0046" x2="72.2354" y2="86.031" gradientUnits="userSpaceOnUse">
<stop stop-color="#FCFDFF" stop-opacity="0"/>
<stop offset="0.2768" stop-color="#FDB2C9" stop-opacity="0.277"/>
<stop offset="0.5268" stop-color="#FE779D" stop-opacity="0.5272"/>
<stop offset="0.7381" stop-color="#FE4B7E" stop-opacity="0.7386"/>
<stop offset="0.9023" stop-color="#FF316A" stop-opacity="0.9029"/>
<stop offset="0.9993" stop-color="#FF2763"/>
</linearGradient>
<linearGradient id="paint23_linear" x1="63.4311" y1="89.879" x2="71.5454" y2="84.9054" gradientUnits="userSpaceOnUse">
<stop stop-color="#FCFDFF" stop-opacity="0"/>
<stop offset="0.2768" stop-color="#FDB2C9" stop-opacity="0.277"/>
<stop offset="0.5268" stop-color="#FE779D" stop-opacity="0.5272"/>
<stop offset="0.7381" stop-color="#FE4B7E" stop-opacity="0.7386"/>
<stop offset="0.9023" stop-color="#FF316A" stop-opacity="0.9029"/>
<stop offset="0.9993" stop-color="#FF2763"/>
</linearGradient>
<linearGradient id="paint24_linear" x1="62.7411" y1="88.7534" x2="70.8554" y2="83.7797" gradientUnits="userSpaceOnUse">
<stop stop-color="#FCFDFF" stop-opacity="0"/>
<stop offset="0.2768" stop-color="#FDB2C9" stop-opacity="0.277"/>
<stop offset="0.5268" stop-color="#FE779D" stop-opacity="0.5272"/>
<stop offset="0.7381" stop-color="#FE4B7E" stop-opacity="0.7386"/>
<stop offset="0.9023" stop-color="#FF316A" stop-opacity="0.9029"/>
<stop offset="0.9993" stop-color="#FF2763"/>
</linearGradient>
<linearGradient id="paint25_linear" x1="64.0681" y1="90.9187" x2="72.1825" y2="85.9449" gradientUnits="userSpaceOnUse">
<stop stop-color="#FCFDFF" stop-opacity="0"/>
<stop offset="0.2768" stop-color="#FDB2C9" stop-opacity="0.277"/>
<stop offset="0.5268" stop-color="#FE779D" stop-opacity="0.5272"/>
<stop offset="0.7381" stop-color="#FE4B7E" stop-opacity="0.7386"/>
<stop offset="0.9023" stop-color="#FF316A" stop-opacity="0.9029"/>
<stop offset="0.9993" stop-color="#FF2763"/>
</linearGradient>
<linearGradient id="paint26_linear" x1="63.3781" y1="89.793" x2="71.4925" y2="84.8192" gradientUnits="userSpaceOnUse">
<stop stop-color="#FCFDFF" stop-opacity="0"/>
<stop offset="0.2768" stop-color="#FDB2C9" stop-opacity="0.277"/>
<stop offset="0.5268" stop-color="#FE779D" stop-opacity="0.5272"/>
<stop offset="0.7381" stop-color="#FE4B7E" stop-opacity="0.7386"/>
<stop offset="0.9023" stop-color="#FF316A" stop-opacity="0.9029"/>
<stop offset="0.9993" stop-color="#FF2763"/>
</linearGradient>
<linearGradient id="paint27_linear" x1="62.6881" y1="88.6672" x2="70.8025" y2="83.6934" gradientUnits="userSpaceOnUse">
<stop stop-color="#FCFDFF" stop-opacity="0"/>
<stop offset="0.2768" stop-color="#FDB2C9" stop-opacity="0.277"/>
<stop offset="0.5268" stop-color="#FE779D" stop-opacity="0.5272"/>
<stop offset="0.7381" stop-color="#FE4B7E" stop-opacity="0.7386"/>
<stop offset="0.9023" stop-color="#FF316A" stop-opacity="0.9029"/>
<stop offset="0.9993" stop-color="#FF2763"/>
</linearGradient>
<linearGradient id="paint28_linear" x1="51.9736" y1="94.0735" x2="42.7934" y2="100.281" gradientUnits="userSpaceOnUse">
<stop stop-color="#FCFDFF" stop-opacity="0"/>
<stop offset="0.1209" stop-color="#FCFAD7" stop-opacity="0.121"/>
<stop offset="0.3661" stop-color="#FDF58C" stop-opacity="0.3663"/>
<stop offset="0.5853" stop-color="#FEF150" stop-opacity="0.5857"/>
<stop offset="0.7704" stop-color="#FFEE24" stop-opacity="0.771"/>
<stop offset="0.9143" stop-color="#FFED0A" stop-opacity="0.9149"/>
<stop offset="0.9993" stop-color="#FFEC00"/>
</linearGradient>
<linearGradient id="paint29_linear" x1="52.6921" y1="95.136" x2="43.5119" y2="101.343" gradientUnits="userSpaceOnUse">
<stop stop-color="#FCFDFF" stop-opacity="0"/>
<stop offset="0.1209" stop-color="#FCFAD7" stop-opacity="0.121"/>
<stop offset="0.3661" stop-color="#FDF58C" stop-opacity="0.3663"/>
<stop offset="0.5853" stop-color="#FEF150" stop-opacity="0.5857"/>
<stop offset="0.7704" stop-color="#FFEE24" stop-opacity="0.771"/>
<stop offset="0.9143" stop-color="#FFED0A" stop-opacity="0.9149"/>
<stop offset="0.9993" stop-color="#FFEC00"/>
</linearGradient>
<linearGradient id="paint30_linear" x1="53.4105" y1="96.1986" x2="44.2303" y2="102.406" gradientUnits="userSpaceOnUse">
<stop stop-color="#FCFDFF" stop-opacity="0"/>
<stop offset="0.1209" stop-color="#FCFAD7" stop-opacity="0.121"/>
<stop offset="0.3661" stop-color="#FDF58C" stop-opacity="0.3663"/>
<stop offset="0.5853" stop-color="#FEF150" stop-opacity="0.5857"/>
<stop offset="0.7704" stop-color="#FFEE24" stop-opacity="0.771"/>
<stop offset="0.9143" stop-color="#FFED0A" stop-opacity="0.9149"/>
<stop offset="0.9993" stop-color="#FFEC00"/>
</linearGradient>
<linearGradient id="paint31_linear" x1="52.1218" y1="94.2931" x2="42.9416" y2="100.5" gradientUnits="userSpaceOnUse">
<stop stop-color="#FCFDFF" stop-opacity="0"/>
<stop offset="0.1209" stop-color="#FCFAD7" stop-opacity="0.121"/>
<stop offset="0.3661" stop-color="#FDF58C" stop-opacity="0.3663"/>
<stop offset="0.5853" stop-color="#FEF150" stop-opacity="0.5857"/>
<stop offset="0.7704" stop-color="#FFEE24" stop-opacity="0.771"/>
<stop offset="0.9143" stop-color="#FFED0A" stop-opacity="0.9149"/>
<stop offset="0.9993" stop-color="#FFEC00"/>
</linearGradient>
<linearGradient id="paint32_linear" x1="52.8403" y1="95.3555" x2="43.6601" y2="101.563" gradientUnits="userSpaceOnUse">
<stop stop-color="#FCFDFF" stop-opacity="0"/>
<stop offset="0.1209" stop-color="#FCFAD7" stop-opacity="0.121"/>
<stop offset="0.3661" stop-color="#FDF58C" stop-opacity="0.3663"/>
<stop offset="0.5853" stop-color="#FEF150" stop-opacity="0.5857"/>
<stop offset="0.7704" stop-color="#FFEE24" stop-opacity="0.771"/>
<stop offset="0.9143" stop-color="#FFED0A" stop-opacity="0.9149"/>
<stop offset="0.9993" stop-color="#FFEC00"/>
</linearGradient>
<linearGradient id="paint33_linear" x1="53.5587" y1="96.418" x2="44.3785" y2="102.625" gradientUnits="userSpaceOnUse">
<stop stop-color="#FCFDFF" stop-opacity="0"/>
<stop offset="0.1209" stop-color="#FCFAD7" stop-opacity="0.121"/>
<stop offset="0.3661" stop-color="#FDF58C" stop-opacity="0.3663"/>
<stop offset="0.5853" stop-color="#FEF150" stop-opacity="0.5857"/>
<stop offset="0.7704" stop-color="#FFEE24" stop-opacity="0.771"/>
<stop offset="0.9143" stop-color="#FFED0A" stop-opacity="0.9149"/>
<stop offset="0.9993" stop-color="#FFEC00"/>
</linearGradient>
<linearGradient id="paint34_linear" x1="47.6022" y1="81.9475" x2="22.7755" y2="125.499" gradientUnits="userSpaceOnUse">
<stop stop-color="#E4F2FF"/>
<stop offset="0.3075" stop-color="#D7E6FD" stop-opacity="0.6923"/>
<stop offset="0.9993" stop-color="#BDCEFA" stop-opacity="0"/>
</linearGradient>
<linearGradient id="paint35_linear" x1="49.5109" y1="87.9925" x2="31.9384" y2="118.069" gradientUnits="userSpaceOnUse">
<stop stop-color="#E4F2FF"/>
<stop offset="0.0555438" stop-color="#E1EFFF"/>
<stop offset="0.6478" stop-color="#C7D7FB"/>
<stop offset="0.9993" stop-color="#BDCEFA"/>
</linearGradient>
<linearGradient id="paint36_linear" x1="44.7725" y1="85.2242" x2="27.2001" y2="115.301" gradientUnits="userSpaceOnUse">
<stop stop-color="#E4F2FF"/>
<stop offset="0.0555438" stop-color="#E1EFFF"/>
<stop offset="0.6478" stop-color="#C7D7FB"/>
<stop offset="0.9993" stop-color="#BDCEFA"/>
</linearGradient>
<linearGradient id="paint37_linear" x1="91.0116" y1="51.6314" x2="70.8442" y2="93.4812" gradientUnits="userSpaceOnUse">
<stop stop-color="#E4F2FF"/>
<stop offset="0.3075" stop-color="#D7E6FD" stop-opacity="0.6923"/>
<stop offset="0.9993" stop-color="#BDCEFA" stop-opacity="0"/>
</linearGradient>
<linearGradient id="paint38_linear" x1="95.0284" y1="67.6997" x2="68.1858" y2="91.3383" gradientUnits="userSpaceOnUse">
<stop stop-color="#E4F2FF"/>
<stop offset="0.0555438" stop-color="#E1EFFF"/>
<stop offset="0.6478" stop-color="#C7D7FB"/>
<stop offset="0.9993" stop-color="#BDCEFA"/>
</linearGradient>
<linearGradient id="paint39_linear" x1="93.4564" y1="65.9145" x2="66.6139" y2="89.5532" gradientUnits="userSpaceOnUse">
<stop stop-color="#E4F2FF"/>
<stop offset="0.0555438" stop-color="#E1EFFF"/>
<stop offset="0.6478" stop-color="#C7D7FB"/>
<stop offset="0.9993" stop-color="#BDCEFA"/>
</linearGradient>
<linearGradient id="paint40_linear" x1="89.3376" y1="61.2376" x2="62.4951" y2="84.8762" gradientUnits="userSpaceOnUse">
<stop stop-color="#E4F2FF"/>
<stop offset="0.0555438" stop-color="#E1EFFF"/>
<stop offset="0.6478" stop-color="#C7D7FB"/>
<stop offset="0.9993" stop-color="#BDCEFA"/>
</linearGradient>
<linearGradient id="paint41_linear" x1="90.4181" y1="62.4644" x2="63.5756" y2="86.1029" gradientUnits="userSpaceOnUse">
<stop stop-color="#E4F2FF"/>
<stop offset="0.0555438" stop-color="#E1EFFF"/>
<stop offset="0.6478" stop-color="#C7D7FB"/>
<stop offset="0.9993" stop-color="#BDCEFA"/>
</linearGradient>
<linearGradient id="paint42_linear" x1="91.4983" y1="63.6913" x2="64.6558" y2="87.3299" gradientUnits="userSpaceOnUse">
<stop stop-color="#E4F2FF"/>
<stop offset="0.0555438" stop-color="#E1EFFF"/>
<stop offset="0.6478" stop-color="#C7D7FB"/>
<stop offset="0.9993" stop-color="#BDCEFA"/>
</linearGradient>
<linearGradient id="paint43_linear" x1="37.0794" y1="141.006" x2="9.85882" y2="195.73" gradientUnits="userSpaceOnUse">
<stop stop-color="#E4F2FF"/>
<stop offset="0.0555438" stop-color="#E1EFFF"/>
<stop offset="0.6478" stop-color="#C7D7FB"/>
<stop offset="0.9993" stop-color="#BDCEFA"/>
</linearGradient>
<linearGradient id="paint44_linear" x1="33.7832" y1="130.403" x2="9.14114" y2="165.22" gradientUnits="userSpaceOnUse">
<stop stop-color="#E4F2FF"/>
<stop offset="0.0555438" stop-color="#E1EFFF"/>
<stop offset="0.6478" stop-color="#C7D7FB"/>
<stop offset="0.9993" stop-color="#BDCEFA"/>
</linearGradient>
</defs>
</svg>
